<?xml version="1.0" encoding="UTF-8" standalone="no"?>
<!DOCTYPE svg PUBLIC "-//W3C//DTD SVG 1.1//EN"
 "http://www.w3.org/Graphics/SVG/1.1/DTD/svg11.dtd">
<!-- Generated by graphviz version 2.40.1 (0)
 -->
<!-- Title: flowchart Pages: 1 -->
<svg width="3799pt" height="774pt"
 viewBox="0.00 0.00 3799.12 774.20" xmlns="http://www.w3.org/2000/svg" xmlns:xlink="http://www.w3.org/1999/xlink">
<g id="graph0" class="graph" transform="scale(1 1) rotate(0) translate(4 770.2)">
<title>flowchart</title>
<polygon fill="#ffffff" stroke="transparent" points="-4,4 -4,-770.2 3795.1228,-770.2 3795.1228,4 -4,4"/>
<!-- v0 -->
<g id="node1" class="node">
<title>v0</title>
<ellipse fill="none" stroke="#000000" cx="1463.6828" cy="-660.6" rx="131.8766" ry="18"/>
<text text-anchor="middle" x="1463.6828" y="-656.9" font-family="Times,serif" font-size="14.00" fill="#000000">GET_GENE_ID_DICT:dl_human</text>
</g>
<!-- v1 -->
<g id="node2" class="node">
<title>v1</title>
<ellipse fill="none" stroke="#000000" cx="1463.6828" cy="-587.6" rx="178.9686" ry="18"/>
<text text-anchor="middle" x="1463.6828" y="-583.9" font-family="Times,serif" font-size="14.00" fill="#000000">GET_GENE_ID_DICT:uniprotac_to_ensp_dict</text>
</g>
<!-- v0&#45;&gt;v1 -->
<g id="edge1" class="edge">
<title>v0&#45;&gt;v1</title>
<path fill="none" stroke="#000000" d="M1463.6828,-642.5551C1463.6828,-634.4828 1463.6828,-624.7764 1463.6828,-615.7817"/>
<polygon fill="#000000" stroke="#000000" points="1467.1829,-615.6903 1463.6828,-605.6904 1460.1829,-615.6904 1467.1829,-615.6903"/>
</g>
<!-- v15 -->
<g id="node3" class="node">
<title>v15</title>
<ellipse fill="none" stroke="#000000" cx="1263.6828" cy="-500.6" rx="273.7515" ry="18"/>
<text text-anchor="middle" x="1263.6828" y="-496.9" font-family="Times,serif" font-size="14.00" fill="#000000">HERNANDEZ2017_DATASET:hernandez2017_rnk_translate1col_w_dict</text>
</g>
<!-- v1&#45;&gt;v15 -->
<g id="edge2" class="edge">
<title>v1&#45;&gt;v15</title>
<path fill="none" stroke="#000000" d="M1429.0472,-569.8048C1408.752,-559.6231 1382.502,-546.8731 1358.6828,-536.6 1347.1815,-531.6395 1334.7507,-526.6609 1322.7911,-522.0558"/>
<polygon fill="#000000" stroke="#000000" points="1323.9184,-518.7399 1313.3275,-518.4502 1321.4261,-525.2813 1323.9184,-518.7399"/>
<text text-anchor="middle" x="1450.6828" y="-540.4" font-family="Times,serif" font-size="14.00" fill="#000000">uniprotac2ENSP_dict</text>
</g>
<!-- v16 -->
<g id="node20" class="node">
<title>v16</title>
<ellipse fill="none" stroke="#000000" cx="955.6828" cy="-319.6" rx="231.259" ry="18"/>
<text text-anchor="middle" x="955.6828" y="-315.9" font-family="Times,serif" font-size="14.00" fill="#000000">HERNANDEZ2017_DATASET:hernandez2017_make_seqrnk</text>
</g>
<!-- v15&#45;&gt;v16 -->
<g id="edge18" class="edge">
<title>v15&#45;&gt;v16</title>
<path fill="none" stroke="#000000" d="M1233.0246,-482.5833C1176.7546,-449.5155 1057.0811,-379.188 994.9518,-342.6769"/>
<polygon fill="#000000" stroke="#000000" points="996.6119,-339.5929 986.2171,-337.5438 993.0653,-345.6279 996.6119,-339.5929"/>
</g>
<!-- v17 -->
<g id="node22" class="node">
<title>v17</title>
<ellipse fill="none" stroke="#000000" cx="666.6828" cy="-427.6" rx="261.0538" ry="18"/>
<text text-anchor="middle" x="666.6828" y="-423.9" font-family="Times,serif" font-size="14.00" fill="#000000">HERNANDEZ2017_DATASET:hernandez2017_make_uniprot_seqrnk</text>
</g>
<!-- v15&#45;&gt;v17 -->
<g id="edge20" class="edge">
<title>v15&#45;&gt;v17</title>
<path fill="none" stroke="#000000" d="M1120.1409,-485.248C1064.3903,-479.103 1000.0244,-471.7852 941.6828,-464.6 892.9076,-458.593 839.3362,-451.4979 792.5366,-445.1359"/>
<polygon fill="#000000" stroke="#000000" points="792.7297,-441.63 782.3488,-443.7481 791.7848,-448.5659 792.7297,-441.63"/>
</g>
<!-- v18 -->
<g id="node24" class="node">
<title>v18</title>
<ellipse fill="none" stroke="#000000" cx="2029.6828" cy="-373.6" rx="219.8612" ry="18"/>
<text text-anchor="middle" x="2029.6828" y="-369.9" font-family="Times,serif" font-size="14.00" fill="#000000">HERNANDEZ2017_DATASET:hernandez2017_make_rnk</text>
</g>
<!-- v15&#45;&gt;v18 -->
<g id="edge22" class="edge">
<title>v15&#45;&gt;v18</title>
<path fill="none" stroke="#000000" d="M1474.061,-489.0806C1574.0449,-481.0688 1694.7967,-467.6987 1801.6828,-445.6 1861.6453,-433.2027 1928.2049,-411.1875 1973.8509,-394.754"/>
<polygon fill="#000000" stroke="#000000" points="1975.058,-398.0394 1983.2639,-391.3375 1972.6697,-391.4594 1975.058,-398.0394"/>
</g>
<!-- v2 -->
<g id="node4" class="node">
<title>v2</title>
<ellipse fill="none" stroke="#000000" cx="1629.6828" cy="-427.6" rx="163.2712" ry="18"/>
<text text-anchor="middle" x="1629.6828" y="-423.9" font-family="Times,serif" font-size="14.00" fill="#000000">GET_STRING_ID_DICT:dl_string_aliases</text>
</g>
<!-- v6 -->
<g id="node5" class="node">
<title>v6</title>
<ellipse fill="none" stroke="#000000" cx="2315.6828" cy="-319.6" rx="124.5782" ry="18"/>
<text text-anchor="middle" x="2315.6828" y="-315.9" font-family="Times,serif" font-size="14.00" fill="#000000">PSP:translate_kin_phos_clusters</text>
</g>
<!-- v2&#45;&gt;v6 -->
<g id="edge3" class="edge">
<title>v2&#45;&gt;v6</title>
<path fill="none" stroke="#000000" d="M1679.2393,-410.4385C1689.1261,-405.442 1698.8602,-399.2195 1706.6828,-391.6 1719.4972,-379.1184 1709.654,-365.3022 1724.6828,-355.6 1767.3763,-328.0382 2131.0554,-341.9876 2181.6828,-337.6 2193.5581,-336.5708 2205.9948,-335.2417 2218.3029,-333.7721"/>
<polygon fill="#000000" stroke="#000000" points="2219.0975,-337.2009 2228.5964,-332.5081 2218.2443,-330.2531 2219.0975,-337.2009"/>
<text text-anchor="middle" x="1762.6828" y="-369.9" font-family="Times,serif" font-size="14.00" fill="#000000">string_id_dict</text>
</g>
<!-- v10 -->
<g id="node13" class="node">
<title>v10</title>
<ellipse fill="none" stroke="#000000" cx="1530.6828" cy="-319.6" rx="213.6622" ry="18"/>
<text text-anchor="middle" x="1530.6828" y="-315.9" font-family="Times,serif" font-size="14.00" fill="#000000">KINEX_SCORING_MATRIX:get_kinex_scoring_matrix</text>
</g>
<!-- v2&#45;&gt;v10 -->
<g id="edge10" class="edge">
<title>v2&#45;&gt;v10</title>
<path fill="none" stroke="#000000" d="M1567.5344,-410.9481C1551.1281,-405.2519 1536.6071,-398.5516 1531.6828,-391.6 1522.7862,-379.0407 1522.2155,-361.9087 1524.0202,-347.5071"/>
<polygon fill="#000000" stroke="#000000" points="1527.4784,-348.0466 1525.6689,-337.6075 1520.5735,-346.8966 1527.4784,-348.0466"/>
<text text-anchor="middle" x="1569.6828" y="-369.9" font-family="Times,serif" font-size="14.00" fill="#000000">string_id_dict</text>
</g>
<!-- v26 -->
<g id="node14" class="node">
<title>v26</title>
<ellipse fill="none" stroke="#000000" cx="1530.6828" cy="-232.6" rx="150.5735" ry="18"/>
<text text-anchor="middle" x="1530.6828" y="-228.9" font-family="Times,serif" font-size="14.00" fill="#000000">KINEX_HERNANDEZ2017:run_kinex</text>
</g>
<!-- v2&#45;&gt;v26 -->
<g id="edge31" class="edge">
<title>v2&#45;&gt;v26</title>
<path fill="none" stroke="#000000" d="M1503.9101,-416.0853C1400.4059,-403.698 1265.4319,-379.8329 1231.6828,-337.6 1221.6944,-325.1007 1221.722,-314.1213 1231.6828,-301.6 1253.8164,-273.777 1334.1481,-256.21 1405.9751,-245.7678"/>
<polygon fill="#000000" stroke="#000000" points="1406.6365,-249.2091 1416.0468,-244.3413 1405.6548,-242.2783 1406.6365,-249.2091"/>
<text text-anchor="middle" x="1269.6828" y="-315.9" font-family="Times,serif" font-size="14.00" fill="#000000">string_id_dict</text>
</g>
<!-- v14 -->
<g id="node17" class="node">
<title>v14</title>
<ellipse fill="none" stroke="#000000" cx="3202.6828" cy="-319.6" rx="250.7555" ry="18"/>
<text text-anchor="middle" x="3202.6828" y="-315.9" font-family="Times,serif" font-size="14.00" fill="#000000">HERNANDEZ2017_DATASET:translate_hernandez2017_metadata</text>
</g>
<!-- v2&#45;&gt;v14 -->
<g id="edge16" class="edge">
<title>v2&#45;&gt;v14</title>
<path fill="none" stroke="#000000" d="M1788.7336,-423.5541C2049.6156,-416.6376 2543.4136,-402.2561 2580.6828,-391.6 2611.6893,-382.7346 2612.777,-364.8105 2643.6828,-355.6 2707.475,-336.5888 2876.257,-341.8987 2942.6828,-337.6 2965.4989,-336.1235 2989.4379,-334.5285 3013.1675,-332.9194"/>
<polygon fill="#000000" stroke="#000000" points="3013.581,-336.3995 3023.3206,-332.2293 3013.1062,-329.4156 3013.581,-336.3995"/>
<text text-anchor="middle" x="2681.6828" y="-369.9" font-family="Times,serif" font-size="14.00" fill="#000000">string_id_dict</text>
</g>
<!-- v33 -->
<g id="node35" class="node">
<title>v33</title>
<ellipse fill="none" stroke="#000000" cx="630.6828" cy="-232.6" rx="194.1657" ry="18"/>
<text text-anchor="middle" x="630.6828" y="-228.9" font-family="Times,serif" font-size="14.00" fill="#000000">KSTAR_HERNANDEZ2017:translate_kstar_output</text>
</g>
<!-- v2&#45;&gt;v33 -->
<g id="edge40" class="edge">
<title>v2&#45;&gt;v33</title>
<path fill="none" stroke="#000000" d="M1469.6119,-424.1025C1204.3256,-416.701 696.9103,-395.1233 639.6828,-337.6 620.012,-317.8275 620.5768,-284.3712 624.2527,-260.5388"/>
<polygon fill="#000000" stroke="#000000" points="627.7027,-261.1288 626.0335,-250.6663 620.8139,-259.8862 627.7027,-261.1288"/>
<text text-anchor="middle" x="677.6828" y="-315.9" font-family="Times,serif" font-size="14.00" fill="#000000">string_id_dict</text>
</g>
<!-- v38 -->
<g id="node40" class="node">
<title>v38</title>
<ellipse fill="none" stroke="#000000" cx="2723.6828" cy="-319.6" rx="209.8628" ry="18"/>
<text text-anchor="middle" x="2723.6828" y="-315.9" font-family="Times,serif" font-size="14.00" fill="#000000">PTMSEA_HERNANDEZ2017:translate_ptmsea_output</text>
</g>
<!-- v2&#45;&gt;v38 -->
<g id="edge46" class="edge">
<title>v2&#45;&gt;v38</title>
<path fill="none" stroke="#000000" d="M1789.6645,-424.0718C1974.472,-419.2565 2267.0389,-409.1533 2375.6828,-391.6 2434.4448,-382.106 2446.5616,-368.4467 2504.6828,-355.6 2537.0739,-348.4405 2572.4474,-342.0249 2605.1339,-336.6626"/>
<polygon fill="#000000" stroke="#000000" points="2605.8747,-340.0883 2615.1855,-335.0326 2604.7542,-333.1786 2605.8747,-340.0883"/>
<text text-anchor="middle" x="2542.6828" y="-369.9" font-family="Times,serif" font-size="14.00" fill="#000000">string_id_dict</text>
</g>
<!-- v43 -->
<g id="node45" class="node">
<title>v43</title>
<ellipse fill="none" stroke="#000000" cx="1967.6828" cy="-319.6" rx="205.2636" ry="18"/>
<text text-anchor="middle" x="1967.6828" y="-315.9" font-family="Times,serif" font-size="14.00" fill="#000000">ZSCORE_HERNANDEZ2017:translate_zscore_output</text>
</g>
<!-- v2&#45;&gt;v43 -->
<g id="edge52" class="edge">
<title>v2&#45;&gt;v43</title>
<path fill="none" stroke="#000000" d="M1623.9316,-409.5089C1620.0165,-393.2945 1617.6297,-369.9206 1630.6828,-355.6 1634.0343,-351.9231 1727.958,-342.0786 1815.7901,-333.6121"/>
<polygon fill="#000000" stroke="#000000" points="1816.293,-337.08 1825.9125,-332.6398 1815.6236,-330.1121 1816.293,-337.08"/>
<text text-anchor="middle" x="1668.6828" y="-369.9" font-family="Times,serif" font-size="14.00" fill="#000000">string_id_dict</text>
</g>
<!-- v28 -->
<g id="node9" class="node">
<title>v28</title>
<ellipse fill="none" stroke="#000000" cx="2315.6828" cy="-232.6" rx="142.9746" ry="18"/>
<text text-anchor="middle" x="2315.6828" y="-228.9" font-family="Times,serif" font-size="14.00" fill="#000000">GSEA_HERNANDEZ2017:run_gsea</text>
</g>
<!-- v6&#45;&gt;v28 -->
<g id="edge7" class="edge">
<title>v6&#45;&gt;v28</title>
<path fill="none" stroke="#000000" d="M2315.6828,-301.5735C2315.6828,-289.7918 2315.6828,-274.1607 2315.6828,-260.7581"/>
<polygon fill="#000000" stroke="#000000" points="2319.1829,-260.6033 2315.6828,-250.6034 2312.1829,-260.6034 2319.1829,-260.6033"/>
<text text-anchor="middle" x="2373.6828" y="-272.4" font-family="Times,serif" font-size="14.00" fill="#000000">psp_kin_sub_clusters</text>
</g>
<!-- v3 -->
<g id="node6" class="node">
<title>v3</title>
<ellipse fill="#000000" stroke="#000000" cx="2444.6828" cy="-587.6" rx="3.6" ry="3.6"/>
</g>
<!-- v4 -->
<g id="node7" class="node">
<title>v4</title>
<ellipse fill="none" stroke="#000000" cx="2441.6828" cy="-500.6" rx="105.8812" ry="18"/>
<text text-anchor="middle" x="2441.6828" y="-496.9" font-family="Times,serif" font-size="14.00" fill="#000000">PSP:psp_kinase_substrates</text>
</g>
<!-- v3&#45;&gt;v4 -->
<g id="edge4" class="edge">
<title>v3&#45;&gt;v4</title>
<path fill="none" stroke="#000000" d="M2444.5539,-583.8617C2444.2292,-574.445 2443.3536,-549.053 2442.654,-528.7647"/>
<polygon fill="#000000" stroke="#000000" points="2446.1507,-528.6056 2442.3081,-518.7322 2439.1549,-528.8469 2446.1507,-528.6056"/>
<text text-anchor="middle" x="2528.1828" y="-540.4" font-family="Times,serif" font-size="14.00" fill="#000000">input/psp_kinase_substrates.gz</text>
</g>
<!-- v5 -->
<g id="node8" class="node">
<title>v5</title>
<ellipse fill="none" stroke="#000000" cx="2431.6828" cy="-427.6" rx="90.9839" ry="18"/>
<text text-anchor="middle" x="2431.6828" y="-423.9" font-family="Times,serif" font-size="14.00" fill="#000000">PSP:kin_phos_clusters</text>
</g>
<!-- v4&#45;&gt;v5 -->
<g id="edge5" class="edge">
<title>v4&#45;&gt;v5</title>
<path fill="none" stroke="#000000" d="M2439.2109,-482.5551C2438.1051,-474.4828 2436.7755,-464.7764 2435.5433,-455.7817"/>
<polygon fill="#000000" stroke="#000000" points="2438.9858,-455.1228 2434.1609,-445.6904 2432.0506,-456.0729 2438.9858,-455.1228"/>
</g>
<!-- v5&#45;&gt;v6 -->
<g id="edge6" class="edge">
<title>v5&#45;&gt;v6</title>
<path fill="none" stroke="#000000" d="M2422.3283,-409.5669C2413.4847,-393.8348 2399.0091,-371.1549 2381.6828,-355.6 2376.1407,-350.6245 2369.7901,-346.0785 2363.2668,-342.0176"/>
<polygon fill="#000000" stroke="#000000" points="2364.7229,-338.8145 2354.324,-336.7861 2361.1882,-344.8566 2364.7229,-338.8145"/>
</g>
<!-- v30 -->
<g id="node32" class="node">
<title>v30</title>
<ellipse fill="none" stroke="#000000" cx="2314.6828" cy="-145.6" rx="3.5" ry="3.5"/>
<text text-anchor="middle" x="2292.6828" y="-152.9" font-family="Times,serif" font-size="14.00" fill="#000000">collect</text>
</g>
<!-- v28&#45;&gt;v30 -->
<g id="edge34" class="edge">
<title>v28&#45;&gt;v30</title>
<path fill="none" stroke="#000000" d="M2315.4756,-214.5735C2315.2861,-198.0868 2315.01,-174.0625 2314.8386,-159.1548"/>
<polygon fill="#000000" stroke="#000000" points="2318.3383,-159.1011 2314.7235,-149.142 2311.3388,-159.1816 2318.3383,-159.1011"/>
</g>
<!-- v29 -->
<g id="node33" class="node">
<title>v29</title>
<ellipse fill="#000000" stroke="#000000" cx="2290.6828" cy="-145.6" rx="1.8" ry="1.8"/>
</g>
<!-- v28&#45;&gt;v29 -->
<g id="edge35" class="edge">
<title>v28&#45;&gt;v29</title>
<path fill="none" stroke="#000000" d="M2310.5028,-214.5735C2305.5471,-197.3278 2298.2215,-171.8345 2294.0033,-157.1554"/>
<polygon fill="#000000" stroke="#000000" points="2297.3599,-156.1629 2291.2341,-147.5185 2290.6321,-158.0962 2297.3599,-156.1629"/>
</g>
<!-- v7 -->
<g id="node10" class="node">
<title>v7</title>
<ellipse fill="#000000" stroke="#000000" cx="3411.6828" cy="-747.6" rx="3.6" ry="3.6"/>
</g>
<!-- v8 -->
<g id="node11" class="node">
<title>v8</title>
<ellipse fill="none" stroke="#000000" cx="3411.6828" cy="-660.6" rx="103.1819" ry="18"/>
<text text-anchor="middle" x="3411.6828" y="-656.9" font-family="Times,serif" font-size="14.00" fill="#000000">PSP:hs_phosphoproteome</text>
</g>
<!-- v7&#45;&gt;v8 -->
<g id="edge8" class="edge">
<title>v7&#45;&gt;v8</title>
<path fill="none" stroke="#000000" d="M3411.6828,-743.8617C3411.6828,-734.445 3411.6828,-709.053 3411.6828,-688.7647"/>
<polygon fill="#000000" stroke="#000000" points="3415.1829,-688.7321 3411.6828,-678.7322 3408.1829,-688.7322 3415.1829,-688.7321"/>
<text text-anchor="middle" x="3514.6828" y="-700.4" font-family="Times,serif" font-size="14.00" fill="#000000">input/Phosphorylation_site_dataset.gz</text>
</g>
<!-- v9 -->
<g id="node12" class="node">
<title>v9</title>
<ellipse fill="#000000" stroke="#000000" cx="3411.6828" cy="-587.6" rx="1.8" ry="1.8"/>
</g>
<!-- v8&#45;&gt;v9 -->
<g id="edge9" class="edge">
<title>v8&#45;&gt;v9</title>
<path fill="none" stroke="#000000" d="M3411.6828,-642.5551C3411.6828,-629.2025 3411.6828,-611.3784 3411.6828,-599.701"/>
<polygon fill="#000000" stroke="#000000" points="3415.1829,-599.4525 3411.6828,-589.4525 3408.1829,-599.4525 3415.1829,-599.4525"/>
</g>
<!-- v10&#45;&gt;v26 -->
<g id="edge11" class="edge">
<title>v10&#45;&gt;v26</title>
<path fill="none" stroke="#000000" d="M1530.6828,-301.5735C1530.6828,-289.7918 1530.6828,-274.1607 1530.6828,-260.7581"/>
<polygon fill="#000000" stroke="#000000" points="1534.1829,-260.6033 1530.6828,-250.6034 1527.1829,-260.6034 1534.1829,-260.6033"/>
<text text-anchor="middle" x="1572.1828" y="-272.4" font-family="Times,serif" font-size="14.00" fill="#000000">scoring_matrix</text>
</g>
<!-- v27 -->
<g id="node31" class="node">
<title>v27</title>
<ellipse fill="none" stroke="#000000" cx="1692.6828" cy="-145.6" rx="3.5" ry="3.5"/>
<text text-anchor="middle" x="1670.6828" y="-152.9" font-family="Times,serif" font-size="14.00" fill="#000000">collect</text>
</g>
<!-- v26&#45;&gt;v27 -->
<g id="edge32" class="edge">
<title>v26&#45;&gt;v27</title>
<path fill="none" stroke="#000000" d="M1563.4659,-214.9943C1599.7053,-195.5323 1656.1901,-165.198 1680.6824,-152.0446"/>
<polygon fill="#000000" stroke="#000000" points="1682.3428,-155.1258 1689.4968,-147.311 1679.0309,-148.9588 1682.3428,-155.1258"/>
</g>
<!-- v11 -->
<g id="node15" class="node">
<title>v11</title>
<ellipse fill="none" stroke="#000000" cx="2879.6828" cy="-747.6" rx="231.259" ry="18"/>
<text text-anchor="middle" x="2879.6828" y="-743.9" font-family="Times,serif" font-size="14.00" fill="#000000">HERNANDEZ2017_DATASET:parse_hernandez2017_dataset</text>
</g>
<!-- v12 -->
<g id="node16" class="node">
<title>v12</title>
<ellipse fill="none" stroke="#000000" cx="1298.6828" cy="-660.6" rx="3.5" ry="3.5"/>
<text text-anchor="middle" x="1273.6828" y="-667.9" font-family="Times,serif" font-size="14.00" fill="#000000">flatMap</text>
</g>
<!-- v11&#45;&gt;v12 -->
<g id="edge12" class="edge">
<title>v11&#45;&gt;v12</title>
<path fill="none" stroke="#000000" d="M2650.6771,-744.9045C2247.9987,-739.0632 1444.08,-722.0753 1322.6828,-678.6 1317.6078,-676.7825 1312.7135,-673.4924 1308.6833,-670.2176"/>
<polygon fill="#000000" stroke="#000000" points="1310.898,-667.4992 1301.1692,-663.3038 1306.1583,-672.6505 1310.898,-667.4992"/>
</g>
<!-- v11&#45;&gt;v14 -->
<g id="edge13" class="edge">
<title>v11&#45;&gt;v14</title>
<path fill="none" stroke="#000000" d="M2952.2484,-730.4992C3009.8225,-714.751 3080.6828,-689.4985 3080.6828,-660.6 3080.6828,-660.6 3080.6828,-660.6 3080.6828,-427.6 3080.6828,-388.4274 3116.3819,-360.0324 3149.158,-342.2174"/>
<polygon fill="#000000" stroke="#000000" points="3151.0316,-345.1882 3158.2929,-337.473 3147.8052,-338.9761 3151.0316,-345.1882"/>
</g>
<!-- v13 -->
<g id="node18" class="node">
<title>v13</title>
<ellipse fill="none" stroke="#000000" cx="1263.6828" cy="-587.6" rx="3.5" ry="3.5"/>
<text text-anchor="middle" x="1247.6828" y="-594.9" font-family="Times,serif" font-size="14.00" fill="#000000">map</text>
</g>
<!-- v12&#45;&gt;v13 -->
<g id="edge14" class="edge">
<title>v12&#45;&gt;v13</title>
<path fill="none" stroke="#000000" d="M1296.9947,-657.0791C1292.1109,-646.8928 1277.7951,-617.0341 1269.6078,-599.9578"/>
<polygon fill="#000000" stroke="#000000" points="1272.7527,-598.4213 1265.2733,-590.9173 1266.4407,-601.4477 1272.7527,-598.4213"/>
</g>
<!-- v20 -->
<g id="node19" class="node">
<title>v20</title>
<ellipse fill="none" stroke="#000000" cx="3388.6828" cy="-232.6" rx="3.5" ry="3.5"/>
<text text-anchor="middle" x="3361.1828" y="-239.9" font-family="Times,serif" font-size="14.00" fill="#000000">combine</text>
</g>
<!-- v14&#45;&gt;v20 -->
<g id="edge17" class="edge">
<title>v14&#45;&gt;v20</title>
<path fill="none" stroke="#000000" d="M3240.7715,-301.7843C3282.989,-282.0374 3348.7272,-251.2889 3376.08,-238.4948"/>
<polygon fill="#000000" stroke="#000000" points="3377.9257,-241.4956 3385.5009,-234.0883 3374.9599,-235.1549 3377.9257,-241.4956"/>
<text text-anchor="middle" x="3332.6828" y="-272.4" font-family="Times,serif" font-size="14.00" fill="#000000">metadata</text>
</g>
<!-- v45 -->
<g id="node30" class="node">
<title>v45</title>
<ellipse fill="none" stroke="#000000" cx="2322.6828" cy="-58.6" rx="300.8466" ry="18"/>
<text text-anchor="middle" x="2322.6828" y="-54.9" font-family="Times,serif" font-size="14.00" fill="#000000">BENCHMARK_PHOSX_HERNANDEZ2017:benchmark_phosx_hernandez2017</text>
</g>
<!-- v14&#45;&gt;v45 -->
<g id="edge55" class="edge">
<title>v14&#45;&gt;v45</title>
<path fill="none" stroke="#000000" d="M3190.2756,-301.5277C3158.2881,-256.6747 3067.9002,-140.5713 2959.6828,-94.6 2926.5753,-80.5358 2763.0586,-71.4754 2609.9997,-65.962"/>
<polygon fill="#000000" stroke="#000000" points="2610.0527,-62.4618 2599.9346,-65.604 2609.8038,-69.4574 2610.0527,-62.4618"/>
<text text-anchor="middle" x="3126.6828" y="-185.4" font-family="Times,serif" font-size="14.00" fill="#000000">metadata</text>
</g>
<!-- v47 -->
<g id="node48" class="node">
<title>v47</title>
<ellipse fill="none" stroke="#000000" cx="1660.6828" cy="-58.6" rx="343.3392" ry="18"/>
<text text-anchor="middle" x="1660.6828" y="-54.9" font-family="Times,serif" font-size="14.00" fill="#000000">BENCHMARK_PHOSX_HERNANDEZ2017:benchmark_phosx_per_kinase_hernandez2017</text>
</g>
<!-- v14&#45;&gt;v47 -->
<g id="edge63" class="edge">
<title>v14&#45;&gt;v47</title>
<path fill="none" stroke="#000000" d="M3166.1142,-301.6427C3072.1073,-256.5311 2813.2061,-138.8974 2582.6828,-94.6 2458.2299,-70.6851 2139.3044,-81.8363 2012.6828,-76.6 1979.7127,-75.2366 1945.0133,-73.6488 1910.7763,-71.9918"/>
<polygon fill="#000000" stroke="#000000" points="1910.8113,-68.4894 1900.653,-71.4992 1910.4711,-75.4811 1910.8113,-68.4894"/>
<text text-anchor="middle" x="2944.6828" y="-185.4" font-family="Times,serif" font-size="14.00" fill="#000000">metadata</text>
</g>
<!-- v13&#45;&gt;v15 -->
<g id="edge15" class="edge">
<title>v13&#45;&gt;v15</title>
<path fill="none" stroke="#000000" d="M1263.6828,-583.8617C1263.6828,-574.445 1263.6828,-549.053 1263.6828,-528.7647"/>
<polygon fill="#000000" stroke="#000000" points="1267.1829,-528.7321 1263.6828,-518.7322 1260.1829,-528.7322 1267.1829,-528.7321"/>
<text text-anchor="middle" x="1309.1828" y="-540.4" font-family="Times,serif" font-size="14.00" fill="#000000">untranslated_rnk</text>
</g>
<!-- v21 -->
<g id="node26" class="node">
<title>v21</title>
<ellipse fill="none" stroke="#000000" cx="3388.6828" cy="-145.6" rx="152.1731" ry="18"/>
<text text-anchor="middle" x="3388.6828" y="-141.9" font-family="Times,serif" font-size="14.00" fill="#000000">HERNANDEZ2017_DATASET:publish</text>
</g>
<!-- v20&#45;&gt;v21 -->
<g id="edge25" class="edge">
<title>v20&#45;&gt;v21</title>
<path fill="none" stroke="#000000" d="M3388.6828,-228.8617C3388.6828,-219.445 3388.6828,-194.053 3388.6828,-173.7647"/>
<polygon fill="#000000" stroke="#000000" points="3392.1829,-173.7321 3388.6828,-163.7322 3385.1829,-173.7322 3392.1829,-173.7321"/>
</g>
<!-- v16&#45;&gt;v26 -->
<g id="edge30" class="edge">
<title>v16&#45;&gt;v26</title>
<path fill="none" stroke="#000000" d="M1018.5347,-302.2717C1061.3811,-291.0749 1119.5782,-277.064 1171.6828,-268.6 1259.3393,-254.3609 1282.3309,-259.5645 1370.6828,-250.6 1384.1099,-249.2376 1398.1635,-247.7489 1412.1296,-246.2299"/>
<polygon fill="#000000" stroke="#000000" points="1412.7135,-249.687 1422.2734,-245.1199 1411.952,-242.7285 1412.7135,-249.687"/>
<text text-anchor="middle" x="1190.1828" y="-272.4" font-family="Times,serif" font-size="14.00" fill="#000000">seqrnk</text>
</g>
<!-- v23 -->
<g id="node21" class="node">
<title>v23</title>
<ellipse fill="none" stroke="#000000" cx="1207.6828" cy="-232.6" rx="154.0727" ry="18"/>
<text text-anchor="middle" x="1207.6828" y="-228.9" font-family="Times,serif" font-size="14.00" fill="#000000">PHOSX_HERNANDEZ2017:run_phosx</text>
</g>
<!-- v16&#45;&gt;v23 -->
<g id="edge19" class="edge">
<title>v16&#45;&gt;v23</title>
<path fill="none" stroke="#000000" d="M978.6177,-301.5473C993.7472,-290.485 1014.4434,-276.9008 1034.6828,-268.6 1054.9893,-260.2717 1077.4573,-253.7867 1099.2928,-248.7651"/>
<polygon fill="#000000" stroke="#000000" points="1100.2618,-252.1355 1109.2707,-246.5596 1098.751,-245.3005 1100.2618,-252.1355"/>
<text text-anchor="middle" x="1053.1828" y="-272.4" font-family="Times,serif" font-size="14.00" fill="#000000">seqrnk</text>
</g>
<!-- v25 -->
<g id="node28" class="node">
<title>v25</title>
<ellipse fill="none" stroke="#000000" cx="1498.6828" cy="-145.6" rx="3.5" ry="3.5"/>
<text text-anchor="middle" x="1476.6828" y="-152.9" font-family="Times,serif" font-size="14.00" fill="#000000">collect</text>
</g>
<!-- v23&#45;&gt;v25 -->
<g id="edge27" class="edge">
<title>v23&#45;&gt;v25</title>
<path fill="none" stroke="#000000" d="M1263.7905,-215.8255C1333.2385,-195.0627 1447.0475,-161.0374 1485.5104,-149.5381"/>
<polygon fill="#000000" stroke="#000000" points="1486.6208,-152.8593 1495.1992,-146.6415 1484.6156,-146.1526 1486.6208,-152.8593"/>
</g>
<!-- v24 -->
<g id="node29" class="node">
<title>v24</title>
<ellipse fill="#000000" stroke="#000000" cx="1235.6828" cy="-145.6" rx="1.8" ry="1.8"/>
</g>
<!-- v23&#45;&gt;v24 -->
<g id="edge28" class="edge">
<title>v23&#45;&gt;v24</title>
<path fill="none" stroke="#000000" d="M1213.4844,-214.5735C1219.0348,-197.3278 1227.2395,-171.8345 1231.9638,-157.1554"/>
<polygon fill="#000000" stroke="#000000" points="1235.3334,-158.11 1235.0654,-147.5185 1228.67,-155.9654 1235.3334,-158.11"/>
</g>
<!-- v32 -->
<g id="node23" class="node">
<title>v32</title>
<ellipse fill="none" stroke="#000000" cx="382.6828" cy="-319.6" rx="149.4735" ry="18"/>
<text text-anchor="middle" x="382.6828" y="-315.9" font-family="Times,serif" font-size="14.00" fill="#000000">KSTAR_HERNANDEZ2017:run_kstar</text>
</g>
<!-- v17&#45;&gt;v32 -->
<g id="edge21" class="edge">
<title>v17&#45;&gt;v32</title>
<path fill="none" stroke="#000000" d="M620.104,-409.8869C570.0317,-390.8454 490.4973,-360.5999 437.4602,-340.4308"/>
<polygon fill="#000000" stroke="#000000" points="438.4695,-337.0702 427.8784,-336.7871 435.9813,-343.613 438.4695,-337.0702"/>
<text text-anchor="middle" x="599.6828" y="-369.9" font-family="Times,serif" font-size="14.00" fill="#000000">uniprot_rnk</text>
</g>
<!-- v32&#45;&gt;v33 -->
<g id="edge39" class="edge">
<title>v32&#45;&gt;v33</title>
<path fill="none" stroke="#000000" d="M431.3837,-302.5154C471.5139,-288.4375 528.5781,-268.419 571.3687,-253.4078"/>
<polygon fill="#000000" stroke="#000000" points="572.5415,-256.7055 580.8191,-250.0925 570.2242,-250.1002 572.5415,-256.7055"/>
</g>
<!-- v18&#45;&gt;v28 -->
<g id="edge23" class="edge">
<title>v18&#45;&gt;v28</title>
<path fill="none" stroke="#000000" d="M2185.1811,-360.8694C2304.2866,-351.0263 2448.5219,-338.8646 2449.6828,-337.6 2470.8434,-314.5481 2458.9898,-289.4793 2435.6828,-268.6 2428.8482,-262.4773 2413.4833,-256.4799 2395.9535,-251.1903"/>
<polygon fill="#000000" stroke="#000000" points="2396.6108,-247.7372 2386.0325,-248.3281 2394.6704,-254.4629 2396.6108,-247.7372"/>
<text text-anchor="middle" x="2471.1828" y="-315.9" font-family="Times,serif" font-size="14.00" fill="#000000">rnk</text>
</g>
<!-- v19 -->
<g id="node25" class="node">
<title>v19</title>
<ellipse fill="#000000" stroke="#000000" cx="3474.6828" cy="-319.6" rx="3.6" ry="3.6"/>
<text text-anchor="middle" x="3501.5828" y="-327" font-family="Times,serif" font-size="14.00" fill="#000000">Channel.of</text>
</g>
<!-- v19&#45;&gt;v20 -->
<g id="edge24" class="edge">
<title>v19&#45;&gt;v20</title>
<path fill="none" stroke="#000000" d="M3472.8518,-316.3861C3470.6592,-312.6581 3466.7678,-306.4089 3462.6828,-301.6 3442.3463,-277.6593 3414.3122,-253.4962 3399.2583,-241.1037"/>
<polygon fill="#000000" stroke="#000000" points="3401.4252,-238.3548 3391.4515,-234.7805 3397.0194,-243.7944 3401.4252,-238.3548"/>
</g>
<!-- v22 -->
<g id="node27" class="node">
<title>v22</title>
<ellipse fill="#000000" stroke="#000000" cx="3388.6828" cy="-58.6" rx="1.8" ry="1.8"/>
</g>
<!-- v21&#45;&gt;v22 -->
<g id="edge26" class="edge">
<title>v21&#45;&gt;v22</title>
<path fill="none" stroke="#000000" d="M3388.6828,-127.5735C3388.6828,-110.502 3388.6828,-85.3487 3388.6828,-70.6035"/>
<polygon fill="#000000" stroke="#000000" points="3392.1829,-70.5185 3388.6828,-60.5185 3385.1829,-70.5185 3392.1829,-70.5185"/>
</g>
<!-- v25&#45;&gt;v45 -->
<g id="edge29" class="edge">
<title>v25&#45;&gt;v45</title>
<path fill="none" stroke="#000000" d="M1502.1905,-144.0834C1513.027,-139.3629 1546.8567,-124.3619 1573.6828,-109.6 1584.7031,-103.5357 1585.6696,-98.3289 1597.6828,-94.6 1685.8423,-67.2351 1920.4924,-81.2756 2012.6828,-76.6 2040.8578,-75.1711 2070.4675,-73.5742 2099.748,-71.9377"/>
<polygon fill="#000000" stroke="#000000" points="2100.3001,-75.4124 2110.0882,-71.3575 2099.9078,-68.4234 2100.3001,-75.4124"/>
<text text-anchor="middle" x="1634.6828" y="-98.4" font-family="Times,serif" font-size="14.00" fill="#000000">phosx_output</text>
</g>
<!-- v25&#45;&gt;v47 -->
<g id="edge57" class="edge">
<title>v25&#45;&gt;v47</title>
<path fill="none" stroke="#000000" d="M1497.4611,-142.14C1494.5256,-133.1413 1488.138,-108.7254 1499.6828,-94.6 1504.9611,-88.1419 1516.1711,-82.7589 1530.3405,-78.2962"/>
<polygon fill="#000000" stroke="#000000" points="1531.4096,-81.6306 1540.0466,-75.4944 1529.4682,-74.9052 1531.4096,-81.6306"/>
<text text-anchor="middle" x="1536.6828" y="-98.4" font-family="Times,serif" font-size="14.00" fill="#000000">phosx_output</text>
</g>
<!-- v46 -->
<g id="node47" class="node">
<title>v46</title>
<ellipse fill="#000000" stroke="#000000" cx="2322.6828" cy="-1.8" rx="1.8" ry="1.8"/>
</g>
<!-- v45&#45;&gt;v46 -->
<g id="edge56" class="edge">
<title>v45&#45;&gt;v46</title>
<path fill="none" stroke="#000000" d="M2322.6828,-40.3155C2322.6828,-31.6139 2322.6828,-21.4551 2322.6828,-13.756"/>
<polygon fill="#000000" stroke="#000000" points="2326.1829,-13.6036 2322.6828,-3.6036 2319.1829,-13.6037 2326.1829,-13.6036"/>
</g>
<!-- v27&#45;&gt;v45 -->
<g id="edge33" class="edge">
<title>v27&#45;&gt;v45</title>
<path fill="none" stroke="#000000" d="M1695.6735,-143.537C1707.5333,-135.4835 1752.6564,-106.0441 1794.6828,-94.6 1809.9397,-90.4454 1961.5049,-80.3469 2098.3493,-71.8996"/>
<polygon fill="#000000" stroke="#000000" points="2098.8271,-75.3769 2108.5929,-71.2687 2098.3966,-68.3902 2098.8271,-75.3769"/>
<text text-anchor="middle" x="1830.1828" y="-98.4" font-family="Times,serif" font-size="14.00" fill="#000000">kinex_output</text>
</g>
<!-- v27&#45;&gt;v47 -->
<g id="edge59" class="edge">
<title>v27&#45;&gt;v47</title>
<path fill="none" stroke="#000000" d="M1691.4675,-142.2957C1688.1121,-133.1734 1678.4649,-106.945 1670.8549,-86.2555"/>
<polygon fill="#000000" stroke="#000000" points="1674.0563,-84.82 1667.3193,-76.643 1667.4866,-87.2365 1674.0563,-84.82"/>
<text text-anchor="middle" x="1714.1828" y="-98.4" font-family="Times,serif" font-size="14.00" fill="#000000">kinex_output</text>
</g>
<!-- v30&#45;&gt;v45 -->
<g id="edge36" class="edge">
<title>v30&#45;&gt;v45</title>
<path fill="none" stroke="#000000" d="M2314.5369,-141.8748C2314.254,-133.4335 2313.8119,-112.2127 2315.6828,-94.6 2315.9535,-92.0516 2316.3121,-89.4146 2316.7243,-86.7799"/>
<polygon fill="#000000" stroke="#000000" points="2320.19,-87.2822 2318.507,-76.8219 2313.2995,-86.0486 2320.19,-87.2822"/>
<text text-anchor="middle" x="2348.6828" y="-98.4" font-family="Times,serif" font-size="14.00" fill="#000000">gsea_output</text>
</g>
<!-- v30&#45;&gt;v47 -->
<g id="edge58" class="edge">
<title>v30&#45;&gt;v47</title>
<path fill="none" stroke="#000000" d="M2313.1724,-142.2633C2311.1475,-138.1747 2307.1629,-131.3321 2301.6828,-127.6 2289.4544,-119.2721 2187.288,-96.9618 2172.6828,-94.6 2122.5115,-86.4869 2015.395,-78.4563 1912.0429,-72.0454"/>
<polygon fill="#000000" stroke="#000000" points="1912.2512,-68.5517 1902.0548,-71.4301 1911.8207,-75.5385 1912.2512,-68.5517"/>
<text text-anchor="middle" x="2271.6828" y="-98.4" font-family="Times,serif" font-size="14.00" fill="#000000">gsea_output</text>
</g>
<!-- v31 -->
<g id="node34" class="node">
<title>v31</title>
<ellipse fill="none" stroke="#000000" cx="193.6828" cy="-427.6" rx="193.8658" ry="18"/>
<text text-anchor="middle" x="193.6828" y="-423.9" font-family="Times,serif" font-size="14.00" fill="#000000">KSTAR_HERNANDEZ2017:make_kstar_networks</text>
</g>
<!-- v31&#45;&gt;v32 -->
<g id="edge37" class="edge">
<title>v31&#45;&gt;v32</title>
<path fill="none" stroke="#000000" d="M220.1254,-409.5232C250.648,-390.9785 301.0681,-362.089 337.7393,-342.0813"/>
<polygon fill="#000000" stroke="#000000" points="339.6233,-345.0412 346.7458,-337.1976 336.2866,-338.8876 339.6233,-345.0412"/>
</g>
<!-- v31&#45;&gt;v32 -->
<g id="edge38" class="edge">
<title>v31&#45;&gt;v32</title>
<path fill="none" stroke="#000000" d="M230.0586,-409.766C263.9971,-391.475 314.1028,-362.9384 347.612,-342.8782"/>
<polygon fill="#000000" stroke="#000000" points="349.84,-345.6218 356.5961,-337.4605 346.2252,-339.6274 349.84,-345.6218"/>
</g>
<!-- v34 -->
<g id="node36" class="node">
<title>v34</title>
<ellipse fill="none" stroke="#000000" cx="1212.6828" cy="-145.6" rx="3.5" ry="3.5"/>
<text text-anchor="middle" x="1190.6828" y="-152.9" font-family="Times,serif" font-size="14.00" fill="#000000">collect</text>
</g>
<!-- v33&#45;&gt;v34 -->
<g id="edge41" class="edge">
<title>v33&#45;&gt;v34</title>
<path fill="none" stroke="#000000" d="M733.0591,-217.2963C879.2233,-195.447 1136.9456,-156.9215 1198.9755,-147.649"/>
<polygon fill="#000000" stroke="#000000" points="1199.7585,-151.071 1209.1311,-146.1309 1198.7235,-144.1479 1199.7585,-151.071"/>
</g>
<!-- v34&#45;&gt;v45 -->
<g id="edge42" class="edge">
<title>v34&#45;&gt;v45</title>
<path fill="none" stroke="#000000" d="M1213.9374,-142.1571C1215.6625,-137.959 1219.1921,-131.0034 1224.6828,-127.6 1278.3794,-94.3165 1303.6969,-121.8005 1365.6828,-109.6 1390.964,-104.624 1396.191,-98.3506 1421.6828,-94.6 1551.6776,-75.4741 1881.417,-82.4088 2012.6828,-76.6 2041.8363,-75.3099 2072.5211,-73.7606 2102.7862,-72.1194"/>
<polygon fill="#000000" stroke="#000000" points="2103.237,-75.6 2113.0311,-71.5595 2102.855,-68.6105 2103.237,-75.6"/>
<text text-anchor="middle" x="1455.6828" y="-98.4" font-family="Times,serif" font-size="14.00" fill="#000000">kstar_output</text>
</g>
<!-- v34&#45;&gt;v47 -->
<g id="edge60" class="edge">
<title>v34&#45;&gt;v47</title>
<path fill="none" stroke="#000000" d="M1214.12,-142.4079C1216.0335,-138.4685 1219.7573,-131.7798 1224.6828,-127.6 1251.8309,-104.5623 1263.2897,-103.8122 1297.6828,-94.6 1326.9464,-86.7618 1385.0374,-79.7541 1446.3215,-74.0509"/>
<polygon fill="#000000" stroke="#000000" points="1446.943,-77.5087 1456.5819,-73.1107 1446.3042,-70.5379 1446.943,-77.5087"/>
<text text-anchor="middle" x="1331.6828" y="-98.4" font-family="Times,serif" font-size="14.00" fill="#000000">kstar_output</text>
</g>
<!-- v35 -->
<g id="node37" class="node">
<title>v35</title>
<ellipse fill="none" stroke="#000000" cx="2723.6828" cy="-587.6" rx="206.8635" ry="18"/>
<text text-anchor="middle" x="2723.6828" y="-583.9" font-family="Times,serif" font-size="14.00" fill="#000000">PTMSEA_HERNANDEZ2017:ptmsea_hernandez2017</text>
</g>
<!-- v36 -->
<g id="node38" class="node">
<title>v36</title>
<ellipse fill="none" stroke="#000000" cx="2723.6828" cy="-500.6" rx="3.5" ry="3.5"/>
<text text-anchor="middle" x="2698.6828" y="-507.9" font-family="Times,serif" font-size="14.00" fill="#000000">flatMap</text>
</g>
<!-- v35&#45;&gt;v36 -->
<g id="edge43" class="edge">
<title>v35&#45;&gt;v36</title>
<path fill="none" stroke="#000000" d="M2723.6828,-569.5735C2723.6828,-553.0868 2723.6828,-529.0625 2723.6828,-514.1548"/>
<polygon fill="#000000" stroke="#000000" points="2727.1829,-514.142 2723.6828,-504.142 2720.1829,-514.1421 2727.1829,-514.142"/>
</g>
<!-- v37 -->
<g id="node39" class="node">
<title>v37</title>
<ellipse fill="none" stroke="#000000" cx="2723.6828" cy="-427.6" rx="3.5" ry="3.5"/>
<text text-anchor="middle" x="2707.6828" y="-434.9" font-family="Times,serif" font-size="14.00" fill="#000000">map</text>
</g>
<!-- v36&#45;&gt;v37 -->
<g id="edge44" class="edge">
<title>v36&#45;&gt;v37</title>
<path fill="none" stroke="#000000" d="M2723.6828,-497.0791C2723.6828,-487.1785 2723.6828,-458.6936 2723.6828,-441.4241"/>
<polygon fill="#000000" stroke="#000000" points="2727.1829,-441.2575 2723.6828,-431.2576 2720.1829,-441.2576 2727.1829,-441.2575"/>
</g>
<!-- v37&#45;&gt;v38 -->
<g id="edge45" class="edge">
<title>v37&#45;&gt;v38</title>
<path fill="none" stroke="#000000" d="M2723.6828,-424.0066C2723.6828,-412.3616 2723.6828,-374.8721 2723.6828,-348.1552"/>
<polygon fill="#000000" stroke="#000000" points="2727.1829,-347.8214 2723.6828,-337.8215 2720.1829,-347.8215 2727.1829,-347.8214"/>
<text text-anchor="middle" x="2778.1828" y="-369.9" font-family="Times,serif" font-size="14.00" fill="#000000">ptmsea_output_untr</text>
</g>
<!-- v39 -->
<g id="node41" class="node">
<title>v39</title>
<ellipse fill="none" stroke="#000000" cx="2507.6828" cy="-145.6" rx="3.5" ry="3.5"/>
<text text-anchor="middle" x="2485.6828" y="-152.9" font-family="Times,serif" font-size="14.00" fill="#000000">collect</text>
</g>
<!-- v38&#45;&gt;v39 -->
<g id="edge47" class="edge">
<title>v38&#45;&gt;v39</title>
<path fill="none" stroke="#000000" d="M2701.3806,-301.6343C2655.6648,-264.8077 2552.7736,-181.9231 2518.8016,-154.5568"/>
<polygon fill="#000000" stroke="#000000" points="2520.594,-151.5064 2510.6108,-147.9587 2516.2027,-156.9576 2520.594,-151.5064"/>
</g>
<!-- v39&#45;&gt;v45 -->
<g id="edge48" class="edge">
<title>v39&#45;&gt;v45</title>
<path fill="none" stroke="#000000" d="M2507.2455,-141.9713C2505.9105,-132.5655 2500.9973,-107.2513 2485.6828,-94.6 2477.8463,-88.1262 2462.0655,-82.4972 2443.2826,-77.7361"/>
<polygon fill="#000000" stroke="#000000" points="2444.0697,-74.3257 2433.5292,-75.3974 2442.4374,-81.1328 2444.0697,-74.3257"/>
<text text-anchor="middle" x="2538.1828" y="-98.4" font-family="Times,serif" font-size="14.00" fill="#000000">ptmsea_output</text>
</g>
<!-- v39&#45;&gt;v47 -->
<g id="edge61" class="edge">
<title>v39&#45;&gt;v47</title>
<path fill="none" stroke="#000000" d="M2504.1793,-144.8829C2490.3684,-141.9629 2438.5972,-130.1368 2400.6828,-109.6 2391.2226,-104.4758 2391.7576,-98.3751 2381.6828,-94.6 2343.244,-80.1966 2053.6804,-78.6482 2012.6828,-76.6 1981.3902,-75.0367 1948.5336,-73.3786 1915.9906,-71.7263"/>
<polygon fill="#000000" stroke="#000000" points="1916.068,-68.2258 1905.9032,-71.2138 1915.7127,-75.2168 1916.068,-68.2258"/>
<text text-anchor="middle" x="2441.1828" y="-98.4" font-family="Times,serif" font-size="14.00" fill="#000000">ptmsea_output</text>
</g>
<!-- v40 -->
<g id="node42" class="node">
<title>v40</title>
<ellipse fill="none" stroke="#000000" cx="2220.6828" cy="-587.6" rx="202.2642" ry="18"/>
<text text-anchor="middle" x="2220.6828" y="-583.9" font-family="Times,serif" font-size="14.00" fill="#000000">ZSCORE_HERNANDEZ2017:zscore_hernandez2017</text>
</g>
<!-- v41 -->
<g id="node43" class="node">
<title>v41</title>
<ellipse fill="none" stroke="#000000" cx="2233.6828" cy="-500.6" rx="3.5" ry="3.5"/>
<text text-anchor="middle" x="2208.6828" y="-507.9" font-family="Times,serif" font-size="14.00" fill="#000000">flatMap</text>
</g>
<!-- v40&#45;&gt;v41 -->
<g id="edge49" class="edge">
<title>v40&#45;&gt;v41</title>
<path fill="none" stroke="#000000" d="M2223.3764,-569.5735C2225.84,-553.0868 2229.4298,-529.0625 2231.6574,-514.1548"/>
<polygon fill="#000000" stroke="#000000" points="2235.1372,-514.5495 2233.1535,-504.142 2228.214,-513.515 2235.1372,-514.5495"/>
</g>
<!-- v42 -->
<g id="node44" class="node">
<title>v42</title>
<ellipse fill="none" stroke="#000000" cx="2265.6828" cy="-427.6" rx="3.5" ry="3.5"/>
<text text-anchor="middle" x="2249.6828" y="-434.9" font-family="Times,serif" font-size="14.00" fill="#000000">map</text>
</g>
<!-- v41&#45;&gt;v42 -->
<g id="edge50" class="edge">
<title>v41&#45;&gt;v42</title>
<path fill="none" stroke="#000000" d="M2235.2262,-497.0791C2239.6489,-486.9898 2252.5317,-457.6011 2260.0503,-440.4492"/>
<polygon fill="#000000" stroke="#000000" points="2263.4194,-441.4812 2264.2286,-430.9173 2257.0083,-438.6709 2263.4194,-441.4812"/>
</g>
<!-- v42&#45;&gt;v43 -->
<g id="edge51" class="edge">
<title>v42&#45;&gt;v43</title>
<path fill="none" stroke="#000000" d="M2266.2245,-423.9194C2267.7495,-411.9979 2270.7507,-374.1445 2250.6828,-355.6 2240.8388,-346.5033 2188.7181,-338.6627 2131.8346,-332.6425"/>
<polygon fill="#000000" stroke="#000000" points="2131.8522,-329.1258 2121.5451,-331.578 2131.1318,-336.0886 2131.8522,-329.1258"/>
<text text-anchor="middle" x="2319.1828" y="-369.9" font-family="Times,serif" font-size="14.00" fill="#000000">zscore_output_untr</text>
</g>
<!-- v44 -->
<g id="node46" class="node">
<title>v44</title>
<ellipse fill="none" stroke="#000000" cx="1967.6828" cy="-145.6" rx="3.5" ry="3.5"/>
<text text-anchor="middle" x="1945.6828" y="-152.9" font-family="Times,serif" font-size="14.00" fill="#000000">collect</text>
</g>
<!-- v43&#45;&gt;v44 -->
<g id="edge53" class="edge">
<title>v43&#45;&gt;v44</title>
<path fill="none" stroke="#000000" d="M1967.6828,-301.3078C1967.6828,-266.3382 1967.6828,-190.7072 1967.6828,-159.4996"/>
<polygon fill="#000000" stroke="#000000" points="1971.1829,-159.3527 1967.6828,-149.3528 1964.1829,-159.3528 1971.1829,-159.3527"/>
</g>
<!-- v44&#45;&gt;v45 -->
<g id="edge54" class="edge">
<title>v44&#45;&gt;v45</title>
<path fill="none" stroke="#000000" d="M1971.176,-143.8872C1985.9759,-136.7027 2045.1171,-108.7174 2096.6828,-94.6 2123.2183,-87.3352 2151.9341,-81.3666 2179.7091,-76.5245"/>
<polygon fill="#000000" stroke="#000000" points="2180.6227,-79.9194 2189.8937,-74.7912 2179.4482,-73.0186 2180.6227,-79.9194"/>
<text text-anchor="middle" x="2134.6828" y="-98.4" font-family="Times,serif" font-size="14.00" fill="#000000">zscore_output</text>
</g>
<!-- v44&#45;&gt;v47 -->
<g id="edge62" class="edge">
<title>v44&#45;&gt;v47</title>
<path fill="none" stroke="#000000" d="M1964.4649,-143.4455C1952.5107,-135.5491 1909.3034,-107.9592 1869.6828,-94.6 1848.7885,-87.5549 1826.2323,-81.8358 1803.9352,-77.208"/>
<polygon fill="#000000" stroke="#000000" points="1804.5532,-73.7623 1794.0597,-75.2244 1803.1746,-80.6252 1804.5532,-73.7623"/>
<text text-anchor="middle" x="1941.6828" y="-98.4" font-family="Times,serif" font-size="14.00" fill="#000000">zscore_output</text>
</g>
<!-- v48 -->
<g id="node49" class="node">
<title>v48</title>
<ellipse fill="#000000" stroke="#000000" cx="1660.6828" cy="-1.8" rx="1.8" ry="1.8"/>
</g>
<!-- v47&#45;&gt;v48 -->
<g id="edge64" class="edge">
<title>v47&#45;&gt;v48</title>
<path fill="none" stroke="#000000" d="M1660.6828,-40.3155C1660.6828,-31.6139 1660.6828,-21.4551 1660.6828,-13.756"/>
<polygon fill="#000000" stroke="#000000" points="1664.1829,-13.6036 1660.6828,-3.6036 1657.1829,-13.6037 1664.1829,-13.6036"/>
</g>
<!-- v49 -->
<g id="node50" class="node">
<title>v49</title>
<ellipse fill="#000000" stroke="#000000" cx="3640.6828" cy="-747.6" rx="3.6" ry="3.6"/>
<text text-anchor="middle" x="3587.0828" y="-755" font-family="Times,serif" font-size="14.00" fill="#000000">Channel.fromPath</text>
</g>
<!-- v51 -->
<g id="node51" class="node">
<title>v51</title>
<ellipse fill="none" stroke="#000000" cx="3678.6828" cy="-660.6" rx="3.5" ry="3.5"/>
<text text-anchor="middle" x="3651.1828" y="-667.9" font-family="Times,serif" font-size="14.00" fill="#000000">combine</text>
</g>
<!-- v49&#45;&gt;v51 -->
<g id="edge65" class="edge">
<title>v49&#45;&gt;v51</title>
<path fill="none" stroke="#000000" d="M3639.8471,-743.9402C3638.0564,-735.2769 3634.5628,-713.0109 3641.6828,-696.6 3646.9132,-684.5446 3658.2899,-674.489 3667.0564,-668.0972"/>
<polygon fill="#000000" stroke="#000000" points="3669.2511,-670.8404 3675.6239,-662.3765 3665.3639,-665.0189 3669.2511,-670.8404"/>
<text text-anchor="middle" x="3668.6828" y="-700.4" font-family="Times,serif" font-size="14.00" fill="#000000">config_ch</text>
</g>
<!-- v52 -->
<g id="node53" class="node">
<title>v52</title>
<ellipse fill="none" stroke="#000000" cx="3678.6828" cy="-587.6" rx="112.3801" ry="18"/>
<text text-anchor="middle" x="3678.6828" y="-583.9" font-family="Times,serif" font-size="14.00" fill="#000000">PUBLISH_CONFIG:publish</text>
</g>
<!-- v51&#45;&gt;v52 -->
<g id="edge67" class="edge">
<title>v51&#45;&gt;v52</title>
<path fill="none" stroke="#000000" d="M3678.6828,-657.0791C3678.6828,-649.6741 3678.6828,-631.873 3678.6828,-616.1439"/>
<polygon fill="#000000" stroke="#000000" points="3682.1829,-615.7387 3678.6828,-605.7387 3675.1829,-615.7388 3682.1829,-615.7387"/>
</g>
<!-- v50 -->
<g id="node52" class="node">
<title>v50</title>
<ellipse fill="#000000" stroke="#000000" cx="3717.6828" cy="-747.6" rx="3.6" ry="3.6"/>
<text text-anchor="middle" x="3683.5828" y="-755" font-family="Times,serif" font-size="14.00" fill="#000000">Channel.of</text>
</g>
<!-- v50&#45;&gt;v51 -->
<g id="edge66" class="edge">
<title>v50&#45;&gt;v51</title>
<path fill="none" stroke="#000000" d="M3716.1247,-743.8695C3712.5835,-735.4175 3703.621,-714.1762 3695.6828,-696.6 3692.1835,-688.852 3688.1224,-680.2388 3684.8471,-673.3803"/>
<polygon fill="#000000" stroke="#000000" points="3687.8035,-671.4521 3680.3149,-663.9573 3681.4952,-674.4862 3687.8035,-671.4521"/>
<text text-anchor="middle" x="3720.6828" y="-700.4" font-family="Times,serif" font-size="14.00" fill="#000000">val_ch</text>
</g>
<!-- v53 -->
<g id="node54" class="node">
<title>v53</title>
<ellipse fill="#000000" stroke="#000000" cx="3678.6828" cy="-500.6" rx="1.8" ry="1.8"/>
</g>
<!-- v52&#45;&gt;v53 -->
<g id="edge68" class="edge">
<title>v52&#45;&gt;v53</title>
<path fill="none" stroke="#000000" d="M3678.6828,-569.5735C3678.6828,-552.502 3678.6828,-527.3487 3678.6828,-512.6035"/>
<polygon fill="#000000" stroke="#000000" points="3682.1829,-512.5185 3678.6828,-502.5185 3675.1829,-512.5185 3682.1829,-512.5185"/>
</g>
</g>
</svg>
