<?xml version="1.0" encoding="UTF-8" standalone="no"?>
<!DOCTYPE svg PUBLIC "-//W3C//DTD SVG 1.1//EN"
 "http://www.w3.org/Graphics/SVG/1.1/DTD/svg11.dtd">
<!-- Generated by graphviz version 2.40.1 (0)
 -->
<!-- Title: flowchart Pages: 1 -->
<svg width="2528pt" height="672pt"
 viewBox="0.00 0.00 2528.44 672.20" xmlns="http://www.w3.org/2000/svg" xmlns:xlink="http://www.w3.org/1999/xlink">
<g id="graph0" class="graph" transform="scale(1 1) rotate(0) translate(4 668.2)">
<title>flowchart</title>
<polygon fill="#ffffff" stroke="transparent" points="-4,4 -4,-668.2 2524.44,-668.2 2524.44,4 -4,4"/>
<!-- p0 -->
<g id="node1" class="node">
<title>p0</title>
<ellipse fill="none" stroke="#000000" cx="1148" cy="-558.6" rx="131.8766" ry="18"/>
<text text-anchor="middle" x="1148" y="-554.9" font-family="Times,serif" font-size="14.00" fill="#000000">GET_GENE_ID_DICT:dl_human</text>
</g>
<!-- p1 -->
<g id="node2" class="node">
<title>p1</title>
<ellipse fill="none" stroke="#000000" cx="1133" cy="-471.6" rx="178.9686" ry="18"/>
<text text-anchor="middle" x="1133" y="-467.9" font-family="Times,serif" font-size="14.00" fill="#000000">GET_GENE_ID_DICT:uniprotac_to_ensp_dict</text>
</g>
<!-- p0&#45;&gt;p1 -->
<g id="edge1" class="edge">
<title>p0&#45;&gt;p1</title>
<path fill="none" stroke="#000000" d="M1144.892,-540.5735C1142.8607,-528.7918 1140.1656,-513.1607 1137.8548,-499.7581"/>
<polygon fill="#000000" stroke="#000000" points="1141.2523,-498.8633 1136.104,-489.6034 1134.3541,-500.0527 1141.2523,-498.8633"/>
<text text-anchor="middle" x="1184" y="-511.4" font-family="Times,serif" font-size="14.00" fill="#000000">uniprot_id_dict</text>
</g>
<!-- p4 -->
<g id="node4" class="node">
<title>p4</title>
<ellipse fill="none" stroke="#000000" cx="1579" cy="-471.6" rx="196.8651" ry="18"/>
<text text-anchor="middle" x="1579" y="-467.9" font-family="Times,serif" font-size="14.00" fill="#000000">Gene_Synonym__2__Gene_Name:IDa2uniprot2IDb</text>
</g>
<!-- p0&#45;&gt;p4 -->
<g id="edge3" class="edge">
<title>p0&#45;&gt;p4</title>
<path fill="none" stroke="#000000" d="M1222.0915,-543.6442C1295.6047,-528.8051 1408.4246,-506.0317 1487.4921,-490.0714"/>
<polygon fill="#000000" stroke="#000000" points="1488.3366,-493.4717 1497.4463,-488.0621 1486.9515,-486.61 1488.3366,-493.4717"/>
<text text-anchor="middle" x="1432" y="-511.4" font-family="Times,serif" font-size="14.00" fill="#000000">uniprot_id_dict</text>
</g>
<!-- p21 -->
<g id="node3" class="node">
<title>p21</title>
<ellipse fill="none" stroke="#000000" cx="1205" cy="-384.6" rx="273.7515" ry="18"/>
<text text-anchor="middle" x="1205" y="-380.9" font-family="Times,serif" font-size="14.00" fill="#000000">HERNANDEZ2017_DATASET:hernandez2017_rnk_translate1col_w_dict</text>
</g>
<!-- p1&#45;&gt;p21 -->
<g id="edge2" class="edge">
<title>p1&#45;&gt;p21</title>
<path fill="none" stroke="#000000" d="M1132.973,-453.1538C1133.7973,-442.7551 1136.2973,-430.0051 1143,-420.6 1146.2055,-416.1021 1150.1626,-412.0818 1154.5145,-408.5088"/>
<polygon fill="#000000" stroke="#000000" points="1156.6712,-411.268 1162.697,-402.5537 1152.5521,-405.6082 1156.6712,-411.268"/>
<text text-anchor="middle" x="1202" y="-424.4" font-family="Times,serif" font-size="14.00" fill="#000000">uniprotac2ENSP_dict</text>
</g>
<!-- p22 -->
<g id="node27" class="node">
<title>p22</title>
<ellipse fill="none" stroke="#000000" cx="891" cy="-276.6" rx="231.259" ry="18"/>
<text text-anchor="middle" x="891" y="-272.9" font-family="Times,serif" font-size="14.00" fill="#000000">HERNANDEZ2017_DATASET:hernandez2017_make_seqrnk</text>
</g>
<!-- p21&#45;&gt;p22 -->
<g id="edge26" class="edge">
<title>p21&#45;&gt;p22</title>
<path fill="none" stroke="#000000" d="M1153.5009,-366.8869C1098.2067,-347.8686 1010.4176,-317.6736 951.7782,-297.5046"/>
<polygon fill="#000000" stroke="#000000" points="952.8611,-294.1759 942.2664,-294.233 950.5843,-300.7953 952.8611,-294.1759"/>
</g>
<!-- p23 -->
<g id="node28" class="node">
<title>p23</title>
<ellipse fill="none" stroke="#000000" cx="1360" cy="-276.6" rx="219.8612" ry="18"/>
<text text-anchor="middle" x="1360" y="-272.9" font-family="Times,serif" font-size="14.00" fill="#000000">HERNANDEZ2017_DATASET:hernandez2017_make_rnk</text>
</g>
<!-- p21&#45;&gt;p23 -->
<g id="edge28" class="edge">
<title>p21&#45;&gt;p23</title>
<path fill="none" stroke="#000000" d="M1230.9435,-366.5232C1256.9513,-348.4016 1297.136,-320.402 1325.75,-300.4645"/>
<polygon fill="#000000" stroke="#000000" points="1328.0264,-303.1443 1334.2302,-294.5557 1324.0246,-297.4009 1328.0264,-303.1443"/>
</g>
<!-- p6 -->
<g id="node7" class="node">
<title>p6</title>
<ellipse fill="none" stroke="#000000" cx="615" cy="-384.6" rx="207.9631" ry="18"/>
<text text-anchor="middle" x="615" y="-380.9" font-family="Times,serif" font-size="14.00" fill="#000000">SER_THR_KINASES_PSSM:get_ser_thr_kinase_pssm</text>
</g>
<!-- p4&#45;&gt;p6 -->
<g id="edge6" class="edge">
<title>p4&#45;&gt;p6</title>
<path fill="none" stroke="#000000" d="M1428.756,-459.8893C1369.9145,-453.9346 1310.0738,-445.7821 1283,-435.6 1271.9232,-431.4342 1272.212,-424.387 1261,-420.6 1189.5274,-396.4591 997.322,-406.8078 922,-402.6 881.3716,-400.3303 837.7236,-397.8167 796.455,-395.4054"/>
<polygon fill="#000000" stroke="#000000" points="796.4859,-391.9013 786.2985,-394.8113 796.077,-398.8894 796.4859,-391.9013"/>
<text text-anchor="middle" x="1293.5" y="-424.4" font-family="Times,serif" font-size="14.00" fill="#000000">dict</text>
</g>
<!-- p12 -->
<g id="node15" class="node">
<title>p12</title>
<ellipse fill="none" stroke="#000000" cx="2042" cy="-276.6" rx="124.5782" ry="18"/>
<text text-anchor="middle" x="2042" y="-272.9" font-family="Times,serif" font-size="14.00" fill="#000000">PSP:translate_kin_phos_clusters</text>
</g>
<!-- p4&#45;&gt;p12 -->
<g id="edge14" class="edge">
<title>p4&#45;&gt;p12</title>
<path fill="none" stroke="#000000" d="M1681.932,-456.2073C1799.4195,-436.5184 1981.3887,-398.8619 2028,-348.6 2038.7999,-336.9542 2042.3994,-319.5652 2043.2511,-304.7939"/>
<polygon fill="#000000" stroke="#000000" points="2046.7537,-304.6865 2043.4493,-294.6202 2039.7551,-304.5501 2046.7537,-304.6865"/>
<text text-anchor="middle" x="2013.5" y="-380.9" font-family="Times,serif" font-size="14.00" fill="#000000">dict</text>
</g>
<!-- p17 -->
<g id="node21" class="node">
<title>p17</title>
<ellipse fill="none" stroke="#000000" cx="1816" cy="-330.6" rx="210.6627" ry="18"/>
<text text-anchor="middle" x="1816" y="-326.9" font-family="Times,serif" font-size="14.00" fill="#000000">KINEX_SCORING_MATRIX:dl_kinex_scoring_matrix</text>
</g>
<!-- p4&#45;&gt;p17 -->
<g id="edge20" class="edge">
<title>p4&#45;&gt;p17</title>
<path fill="none" stroke="#000000" d="M1609.0162,-453.7423C1651.727,-428.332 1730.068,-381.7241 1777.1569,-353.7092"/>
<polygon fill="#000000" stroke="#000000" points="1779.0496,-356.6558 1785.8541,-348.5349 1775.4705,-350.6399 1779.0496,-356.6558"/>
<text text-anchor="middle" x="1673.5" y="-424.4" font-family="Times,serif" font-size="14.00" fill="#000000">dict</text>
</g>
<!-- p27 -->
<g id="node22" class="node">
<title>p27</title>
<ellipse fill="none" stroke="#000000" cx="1182" cy="-189.6" rx="150.5735" ry="18"/>
<text text-anchor="middle" x="1182" y="-185.9" font-family="Times,serif" font-size="14.00" fill="#000000">KINEX_HERNANDEZ2017:run_kinex</text>
</g>
<!-- p4&#45;&gt;p27 -->
<g id="edge35" class="edge">
<title>p4&#45;&gt;p27</title>
<path fill="none" stroke="#000000" d="M1574.5276,-453.3337C1567.9962,-423.1022 1558.3318,-361.18 1575,-312.6 1578.2891,-303.0137 1585.7109,-304.1863 1589,-294.6 1594.1926,-279.466 1599.325,-270.8227 1589,-258.6 1570.678,-236.9103 1419.0861,-215.6338 1306.2364,-202.57"/>
<polygon fill="#000000" stroke="#000000" points="1306.4632,-199.0731 1296.1293,-201.4098 1305.6649,-206.0274 1306.4632,-199.0731"/>
<text text-anchor="middle" x="1585.5" y="-326.9" font-family="Times,serif" font-size="14.00" fill="#000000">dict</text>
</g>
<!-- p2 -->
<g id="node5" class="node">
<title>p2</title>
<ellipse fill="#000000" stroke="#000000" cx="1602" cy="-558.6" rx="3.6" ry="3.6"/>
</g>
<!-- p2&#45;&gt;p4 -->
<g id="edge4" class="edge">
<title>p2&#45;&gt;p4</title>
<path fill="none" stroke="#000000" d="M1601.0117,-554.8617C1598.5108,-545.4018 1591.7477,-519.8197 1586.3721,-499.4859"/>
<polygon fill="#000000" stroke="#000000" points="1589.7333,-498.5054 1583.7936,-489.7322 1582.9657,-500.2946 1589.7333,-498.5054"/>
<text text-anchor="middle" x="1602.5" y="-511.4" font-family="Times,serif" font-size="14.00" fill="#000000">IDa</text>
</g>
<!-- p3 -->
<g id="node6" class="node">
<title>p3</title>
<ellipse fill="#000000" stroke="#000000" cx="1557" cy="-558.6" rx="3.6" ry="3.6"/>
</g>
<!-- p3&#45;&gt;p4 -->
<g id="edge5" class="edge">
<title>p3&#45;&gt;p4</title>
<path fill="none" stroke="#000000" d="M1556.435,-554.7943C1555.2941,-546.1881 1553.2102,-524.6518 1558,-507.6 1558.8341,-504.6307 1559.9726,-501.6522 1561.291,-498.7498"/>
<polygon fill="#000000" stroke="#000000" points="1564.4174,-500.3243 1565.9631,-489.8428 1558.2184,-497.0727 1564.4174,-500.3243"/>
<text text-anchor="middle" x="1569" y="-511.4" font-family="Times,serif" font-size="14.00" fill="#000000">IDb</text>
</g>
<!-- p15 -->
<g id="node9" class="node">
<title>p15</title>
<ellipse fill="none" stroke="#000000" cx="257" cy="-276.6" rx="228.5596" ry="18"/>
<text text-anchor="middle" x="257" y="-272.9" font-family="Times,serif" font-size="14.00" fill="#000000">PSSM_BACKGROUND_SCORES:pssm_background_scores</text>
</g>
<!-- p6&#45;&gt;p15 -->
<g id="edge8" class="edge">
<title>p6&#45;&gt;p15</title>
<path fill="none" stroke="#000000" d="M507.7968,-369.1455C475.9663,-363.3354 445.8925,-356.2636 432,-348.6 412.7297,-337.9697 416.9666,-323.7631 398,-312.6 386.8089,-306.0133 374.4279,-300.6203 361.7857,-296.2072"/>
<polygon fill="#000000" stroke="#000000" points="362.6756,-292.8156 352.0827,-293.02 360.491,-299.466 362.6756,-292.8156"/>
<text text-anchor="middle" x="470" y="-326.9" font-family="Times,serif" font-size="14.00" fill="#000000">pssm_dict_h5</text>
</g>
<!-- p8 -->
<g id="node10" class="node">
<title>p8</title>
<ellipse fill="#000000" stroke="#000000" cx="640" cy="-276.6" rx="1.8" ry="1.8"/>
</g>
<!-- p6&#45;&gt;p8 -->
<g id="edge9" class="edge">
<title>p6&#45;&gt;p8</title>
<path fill="none" stroke="#000000" d="M620.9687,-366.3892C622.7161,-360.7241 624.5457,-354.4339 626,-348.6 631.2284,-327.6257 635.6786,-302.8097 638.0838,-288.4689"/>
<polygon fill="#000000" stroke="#000000" points="641.5712,-288.8285 639.7218,-278.3964 634.662,-287.7049 641.5712,-288.8285"/>
</g>
<!-- p7 -->
<g id="node11" class="node">
<title>p7</title>
<ellipse fill="#000000" stroke="#000000" cx="618" cy="-276.6" rx="1.8" ry="1.8"/>
</g>
<!-- p6&#45;&gt;p7 -->
<g id="edge10" class="edge">
<title>p6&#45;&gt;p7</title>
<path fill="none" stroke="#000000" d="M615.5089,-366.2793C616.1223,-344.1965 617.136,-307.7047 617.6611,-288.7993"/>
<polygon fill="#000000" stroke="#000000" points="621.1654,-288.6923 617.9445,-278.5989 614.1681,-288.4978 621.1654,-288.6923"/>
</g>
<!-- p24 -->
<g id="node19" class="node">
<title>p24</title>
<ellipse fill="none" stroke="#000000" cx="545" cy="-189.6" rx="154.0727" ry="18"/>
<text text-anchor="middle" x="545" y="-185.9" font-family="Times,serif" font-size="14.00" fill="#000000">PHOSX_HERNANDEZ2017:run_phosx</text>
</g>
<!-- p6&#45;&gt;p24 -->
<g id="edge30" class="edge">
<title>p6&#45;&gt;p24</title>
<path fill="none" stroke="#000000" d="M589.7684,-366.4284C569.575,-350.1991 542.7565,-324.4264 531,-294.6 521.161,-269.6384 527.0836,-239.0254 533.9982,-217.3098"/>
<polygon fill="#000000" stroke="#000000" points="537.3539,-218.3143 537.2994,-207.7196 530.735,-216.0359 537.3539,-218.3143"/>
<text text-anchor="middle" x="569" y="-272.9" font-family="Times,serif" font-size="14.00" fill="#000000">pssm_dict_h5</text>
</g>
<!-- p5 -->
<g id="node8" class="node">
<title>p5</title>
<ellipse fill="none" stroke="#000000" cx="615" cy="-471.6" rx="265.3531" ry="18"/>
<text text-anchor="middle" x="615" y="-467.9" font-family="Times,serif" font-size="14.00" fill="#000000">SER_THR_KINASES_PSSM:get_ser_thr_kinome_2023_suppl_table_2</text>
</g>
<!-- p5&#45;&gt;p6 -->
<g id="edge7" class="edge">
<title>p5&#45;&gt;p6</title>
<path fill="none" stroke="#000000" d="M615,-453.5735C615,-441.7918 615,-426.1607 615,-412.7581"/>
<polygon fill="#000000" stroke="#000000" points="618.5001,-412.6033 615,-402.6034 611.5001,-412.6034 618.5001,-412.6033"/>
</g>
<!-- p15&#45;&gt;p24 -->
<g id="edge18" class="edge">
<title>p15&#45;&gt;p24</title>
<path fill="none" stroke="#000000" d="M310.9067,-259.0712C342.1177,-249.0359 382.1937,-236.3434 418,-225.6 436.4205,-220.0731 456.4112,-214.3013 474.9633,-209.039"/>
<polygon fill="#000000" stroke="#000000" points="476.1386,-212.344 484.8092,-206.2555 474.2342,-205.608 476.1386,-212.344"/>
<text text-anchor="middle" x="463" y="-229.4" font-family="Times,serif" font-size="14.00" fill="#000000">pssm_bg_scores</text>
</g>
<!-- p16 -->
<g id="node20" class="node">
<title>p16</title>
<ellipse fill="#000000" stroke="#000000" cx="257" cy="-189.6" rx="1.8" ry="1.8"/>
</g>
<!-- p15&#45;&gt;p16 -->
<g id="edge19" class="edge">
<title>p15&#45;&gt;p16</title>
<path fill="none" stroke="#000000" d="M257,-258.5735C257,-241.502 257,-216.3487 257,-201.6035"/>
<polygon fill="#000000" stroke="#000000" points="260.5001,-201.5185 257,-191.5185 253.5001,-201.5185 260.5001,-201.5185"/>
<text text-anchor="middle" x="264" y="-229.4" font-family="Times,serif" font-size="14.00" fill="#000000">h5</text>
</g>
<!-- p9 -->
<g id="node12" class="node">
<title>p9</title>
<ellipse fill="#000000" stroke="#000000" cx="2172" cy="-558.6" rx="3.6" ry="3.6"/>
</g>
<!-- p10 -->
<g id="node13" class="node">
<title>p10</title>
<ellipse fill="none" stroke="#000000" cx="2172" cy="-471.6" rx="105.8812" ry="18"/>
<text text-anchor="middle" x="2172" y="-467.9" font-family="Times,serif" font-size="14.00" fill="#000000">PSP:psp_kinase_substrates</text>
</g>
<!-- p9&#45;&gt;p10 -->
<g id="edge11" class="edge">
<title>p9&#45;&gt;p10</title>
<path fill="none" stroke="#000000" d="M2172,-554.8617C2172,-545.445 2172,-520.053 2172,-499.7647"/>
<polygon fill="#000000" stroke="#000000" points="2175.5001,-499.7321 2172,-489.7322 2168.5001,-499.7322 2175.5001,-499.7321"/>
<text text-anchor="middle" x="2256.5" y="-511.4" font-family="Times,serif" font-size="14.00" fill="#000000">input/psp_kinase_substrates.gz</text>
</g>
<!-- p11 -->
<g id="node14" class="node">
<title>p11</title>
<ellipse fill="none" stroke="#000000" cx="2172" cy="-384.6" rx="90.9839" ry="18"/>
<text text-anchor="middle" x="2172" y="-380.9" font-family="Times,serif" font-size="14.00" fill="#000000">PSP:kin_phos_clusters</text>
</g>
<!-- p10&#45;&gt;p11 -->
<g id="edge12" class="edge">
<title>p10&#45;&gt;p11</title>
<path fill="none" stroke="#000000" d="M2172,-453.5735C2172,-441.7918 2172,-426.1607 2172,-412.7581"/>
<polygon fill="#000000" stroke="#000000" points="2175.5001,-412.6033 2172,-402.6034 2168.5001,-412.6034 2175.5001,-412.6033"/>
</g>
<!-- p11&#45;&gt;p12 -->
<g id="edge13" class="edge">
<title>p11&#45;&gt;p12</title>
<path fill="none" stroke="#000000" d="M2150.8239,-367.0076C2129.2341,-349.0714 2095.5702,-321.1045 2071.4014,-301.0258"/>
<polygon fill="#000000" stroke="#000000" points="2073.5287,-298.2429 2063.6002,-294.5448 2069.0556,-303.6272 2073.5287,-298.2429"/>
</g>
<!-- p29 -->
<g id="node16" class="node">
<title>p29</title>
<ellipse fill="none" stroke="#000000" cx="1687" cy="-189.6" rx="142.9746" ry="18"/>
<text text-anchor="middle" x="1687" y="-185.9" font-family="Times,serif" font-size="14.00" fill="#000000">GSEA_HERNANDEZ2017:run_gsea</text>
</g>
<!-- p12&#45;&gt;p29 -->
<g id="edge15" class="edge">
<title>p12&#45;&gt;p29</title>
<path fill="none" stroke="#000000" d="M1978.5331,-261.0461C1918.0495,-246.2234 1826.9315,-223.8931 1762.6921,-208.1499"/>
<polygon fill="#000000" stroke="#000000" points="1763.1674,-204.6629 1752.6217,-205.6819 1761.5011,-211.4617 1763.1674,-204.6629"/>
<text text-anchor="middle" x="1944" y="-229.4" font-family="Times,serif" font-size="14.00" fill="#000000">psp_kin_sub_clusters</text>
</g>
<!-- p31 -->
<g id="node32" class="node">
<title>p31</title>
<ellipse fill="none" stroke="#000000" cx="1062" cy="-131.1" rx="3.5" ry="3.5"/>
<text text-anchor="middle" x="1040" y="-138.4" font-family="Times,serif" font-size="14.00" fill="#000000">collect</text>
</g>
<!-- p29&#45;&gt;p31 -->
<g id="edge38" class="edge">
<title>p29&#45;&gt;p31</title>
<path fill="none" stroke="#000000" d="M1572.0014,-178.8361C1413.6792,-164.0172 1140.7538,-138.4714 1076.0475,-132.4149"/>
<polygon fill="#000000" stroke="#000000" points="1076.0271,-128.8977 1065.7444,-131.4505 1075.3747,-135.8673 1076.0271,-128.8977"/>
</g>
<!-- p30 -->
<g id="node33" class="node">
<title>p30</title>
<ellipse fill="#000000" stroke="#000000" cx="1687" cy="-131.1" rx="1.8" ry="1.8"/>
</g>
<!-- p29&#45;&gt;p30 -->
<g id="edge39" class="edge">
<title>p29&#45;&gt;p30</title>
<path fill="none" stroke="#000000" d="M1687,-171.4109C1687,-162.1893 1687,-151.2476 1687,-143.0923"/>
<polygon fill="#000000" stroke="#000000" points="1690.5001,-143.0028 1687,-133.0028 1683.5001,-143.0028 1690.5001,-143.0028"/>
</g>
<!-- p13 -->
<g id="node17" class="node">
<title>p13</title>
<ellipse fill="#000000" stroke="#000000" cx="257" cy="-471.6" rx="3.6" ry="3.6"/>
</g>
<!-- p14 -->
<g id="node18" class="node">
<title>p14</title>
<ellipse fill="none" stroke="#000000" cx="257" cy="-384.6" rx="103.1819" ry="18"/>
<text text-anchor="middle" x="257" y="-380.9" font-family="Times,serif" font-size="14.00" fill="#000000">PSP:hs_phosphoproteome</text>
</g>
<!-- p13&#45;&gt;p14 -->
<g id="edge16" class="edge">
<title>p13&#45;&gt;p14</title>
<path fill="none" stroke="#000000" d="M257,-467.8617C257,-458.445 257,-433.053 257,-412.7647"/>
<polygon fill="#000000" stroke="#000000" points="260.5001,-412.7321 257,-402.7322 253.5001,-412.7322 260.5001,-412.7321"/>
<text text-anchor="middle" x="360" y="-424.4" font-family="Times,serif" font-size="14.00" fill="#000000">input/Phosphorylation_site_dataset.gz</text>
</g>
<!-- p14&#45;&gt;p15 -->
<g id="edge17" class="edge">
<title>p14&#45;&gt;p15</title>
<path fill="none" stroke="#000000" d="M257,-366.2793C257,-349.421 257,-324.1651 257,-304.747"/>
<polygon fill="#000000" stroke="#000000" points="260.5001,-304.6501 257,-294.6502 253.5001,-304.6502 260.5001,-304.6501"/>
<text text-anchor="middle" x="325.5" y="-326.9" font-family="Times,serif" font-size="14.00" fill="#000000">human_phosphosites_tsv</text>
</g>
<!-- p26 -->
<g id="node29" class="node">
<title>p26</title>
<ellipse fill="none" stroke="#000000" cx="675" cy="-131.1" rx="3.5" ry="3.5"/>
<text text-anchor="middle" x="653" y="-138.4" font-family="Times,serif" font-size="14.00" fill="#000000">collect</text>
</g>
<!-- p24&#45;&gt;p26 -->
<g id="edge31" class="edge">
<title>p24&#45;&gt;p26</title>
<path fill="none" stroke="#000000" d="M584.0043,-172.0481C610.7533,-160.011 644.5344,-144.8095 662.4705,-136.7383"/>
<polygon fill="#000000" stroke="#000000" points="664.0528,-139.8643 671.7358,-132.5689 661.1802,-133.4809 664.0528,-139.8643"/>
</g>
<!-- p25 -->
<g id="node30" class="node">
<title>p25</title>
<ellipse fill="#000000" stroke="#000000" cx="545" cy="-131.1" rx="1.8" ry="1.8"/>
</g>
<!-- p24&#45;&gt;p25 -->
<g id="edge32" class="edge">
<title>p24&#45;&gt;p25</title>
<path fill="none" stroke="#000000" d="M545,-171.4109C545,-162.1893 545,-151.2476 545,-143.0923"/>
<polygon fill="#000000" stroke="#000000" points="548.5001,-143.0028 545,-133.0028 541.5001,-143.0028 548.5001,-143.0028"/>
</g>
<!-- p17&#45;&gt;p27 -->
<g id="edge21" class="edge">
<title>p17&#45;&gt;p27</title>
<path fill="none" stroke="#000000" d="M1791.1439,-312.7053C1755.6106,-288.1966 1687.3448,-245.0189 1622,-225.6 1569.9994,-210.1467 1440.9696,-200.776 1335.9993,-195.486"/>
<polygon fill="#000000" stroke="#000000" points="1336.0803,-191.9858 1325.9194,-194.9868 1335.734,-198.9773 1336.0803,-191.9858"/>
<text text-anchor="middle" x="1805.5" y="-272.9" font-family="Times,serif" font-size="14.00" fill="#000000">scoring_matrix</text>
</g>
<!-- p28 -->
<g id="node31" class="node">
<title>p28</title>
<ellipse fill="none" stroke="#000000" cx="873" cy="-131.1" rx="3.5" ry="3.5"/>
<text text-anchor="middle" x="851" y="-138.4" font-family="Times,serif" font-size="14.00" fill="#000000">collect</text>
</g>
<!-- p27&#45;&gt;p28 -->
<g id="edge36" class="edge">
<title>p27&#45;&gt;p28</title>
<path fill="none" stroke="#000000" d="M1101.2175,-174.3062C1026.9976,-160.2549 923.1323,-140.5911 886.463,-133.6488"/>
<polygon fill="#000000" stroke="#000000" points="886.9302,-130.1752 876.4537,-131.7538 885.628,-137.053 886.9302,-130.1752"/>
</g>
<!-- p18 -->
<g id="node23" class="node">
<title>p18</title>
<ellipse fill="none" stroke="#000000" cx="349" cy="-645.6" rx="231.259" ry="18"/>
<text text-anchor="middle" x="349" y="-641.9" font-family="Times,serif" font-size="14.00" fill="#000000">HERNANDEZ2017_DATASET:parse_hernandez2017_dataset</text>
</g>
<!-- p19 -->
<g id="node24" class="node">
<title>p19</title>
<ellipse fill="none" stroke="#000000" cx="1324" cy="-558.6" rx="3.5" ry="3.5"/>
<text text-anchor="middle" x="1342" y="-565.9" font-family="Times,serif" font-size="14.00" fill="#000000">flatMap</text>
</g>
<!-- p18&#45;&gt;p19 -->
<g id="edge22" class="edge">
<title>p18&#45;&gt;p19</title>
<path fill="none" stroke="#000000" d="M567.3735,-639.6452C801.8276,-631.4651 1158.2558,-613.3682 1289,-576.6 1297.0906,-574.3247 1305.4864,-570.0806 1312.0264,-566.2847"/>
<polygon fill="#000000" stroke="#000000" points="1314.2693,-569.0106 1320.8992,-560.7466 1310.5628,-563.0724 1314.2693,-569.0106"/>
</g>
<!-- p32 -->
<g id="node25" class="node">
<title>p32</title>
<ellipse fill="none" stroke="#000000" cx="776" cy="-58.6" rx="300.8466" ry="18"/>
<text text-anchor="middle" x="776" y="-54.9" font-family="Times,serif" font-size="14.00" fill="#000000">BENCHMARK_PHOSX_HERNANDEZ2017:benchmark_phosx_hernandez2017</text>
</g>
<!-- p18&#45;&gt;p32 -->
<g id="edge23" class="edge">
<title>p18&#45;&gt;p32</title>
<path fill="none" stroke="#000000" d="M182.1663,-633.0813C92.4372,-621.5733 0,-599.7353 0,-558.6 0,-558.6 0,-558.6 0,-131.1 0,-104.1117 301.4804,-82.6005 528.6144,-70.2237"/>
<polygon fill="#000000" stroke="#000000" points="528.8977,-73.7136 538.6937,-69.6778 528.519,-66.7238 528.8977,-73.7136"/>
<text text-anchor="middle" x="25" y="-326.9" font-family="Times,serif" font-size="14.00" fill="#000000">metadata</text>
</g>
<!-- p20 -->
<g id="node26" class="node">
<title>p20</title>
<ellipse fill="none" stroke="#000000" cx="1333" cy="-471.6" rx="3.5" ry="3.5"/>
<text text-anchor="middle" x="1342" y="-478.9" font-family="Times,serif" font-size="14.00" fill="#000000">map</text>
</g>
<!-- p19&#45;&gt;p20 -->
<g id="edge24" class="edge">
<title>p19&#45;&gt;p20</title>
<path fill="none" stroke="#000000" d="M1324.3867,-554.8617C1325.6127,-543.0107 1329.4561,-505.8578 1331.5705,-485.4184"/>
<polygon fill="#000000" stroke="#000000" points="1335.0771,-485.5346 1332.6247,-475.2275 1328.1142,-484.8143 1335.0771,-485.5346"/>
</g>
<!-- p36 -->
<g id="node34" class="node">
<title>p36</title>
<ellipse fill="#000000" stroke="#000000" cx="739" cy="-1.8" rx="1.8" ry="1.8"/>
</g>
<!-- p32&#45;&gt;p36 -->
<g id="edge41" class="edge">
<title>p32&#45;&gt;p36</title>
<path fill="none" stroke="#000000" d="M764.0893,-40.3155C758.0012,-30.9694 750.8179,-19.9421 745.7012,-12.0872"/>
<polygon fill="#000000" stroke="#000000" points="748.5658,-10.0723 740.1749,-3.6036 742.7005,-13.8931 748.5658,-10.0723"/>
</g>
<!-- p35 -->
<g id="node35" class="node">
<title>p35</title>
<ellipse fill="#000000" stroke="#000000" cx="764" cy="-1.8" rx="1.8" ry="1.8"/>
</g>
<!-- p32&#45;&gt;p35 -->
<g id="edge42" class="edge">
<title>p32&#45;&gt;p35</title>
<path fill="none" stroke="#000000" d="M772.1371,-40.3155C770.276,-31.5065 768.0994,-21.204 766.4659,-13.472"/>
<polygon fill="#000000" stroke="#000000" points="769.8726,-12.6642 764.381,-3.6036 763.0238,-14.1112 769.8726,-12.6642"/>
</g>
<!-- p34 -->
<g id="node36" class="node">
<title>p34</title>
<ellipse fill="#000000" stroke="#000000" cx="789" cy="-1.8" rx="1.8" ry="1.8"/>
</g>
<!-- p32&#45;&gt;p34 -->
<g id="edge43" class="edge">
<title>p32&#45;&gt;p34</title>
<path fill="none" stroke="#000000" d="M780.1848,-40.3155C782.201,-31.5065 784.5589,-21.204 786.3286,-13.472"/>
<polygon fill="#000000" stroke="#000000" points="789.7679,-14.1325 788.5872,-3.6036 782.9443,-12.5707 789.7679,-14.1325"/>
</g>
<!-- p33 -->
<g id="node37" class="node">
<title>p33</title>
<ellipse fill="#000000" stroke="#000000" cx="814" cy="-1.8" rx="1.8" ry="1.8"/>
</g>
<!-- p32&#45;&gt;p33 -->
<g id="edge44" class="edge">
<title>p32&#45;&gt;p33</title>
<path fill="none" stroke="#000000" d="M788.2326,-40.3155C794.6032,-30.793 802.1415,-19.5254 807.4129,-11.646"/>
<polygon fill="#000000" stroke="#000000" points="810.3443,-13.5587 812.9958,-3.301 804.5262,-9.6663 810.3443,-13.5587"/>
</g>
<!-- p20&#45;&gt;p21 -->
<g id="edge25" class="edge">
<title>p20&#45;&gt;p21</title>
<path fill="none" stroke="#000000" d="M1332.2505,-468.0661C1330.1239,-458.8892 1323.1958,-434.08 1308,-420.6 1301.7361,-415.0434 1294.5645,-410.3324 1286.9854,-406.3406"/>
<polygon fill="#000000" stroke="#000000" points="1288.459,-403.1656 1277.9309,-401.9775 1285.4202,-409.4716 1288.459,-403.1656"/>
<text text-anchor="middle" x="1365.5" y="-424.4" font-family="Times,serif" font-size="14.00" fill="#000000">untranslated_rnk</text>
</g>
<!-- p22&#45;&gt;p24 -->
<g id="edge27" class="edge">
<title>p22&#45;&gt;p24</title>
<path fill="none" stroke="#000000" d="M822.2279,-259.3076C763.7953,-244.615 680.0711,-223.563 619.9426,-208.444"/>
<polygon fill="#000000" stroke="#000000" points="620.68,-205.0205 610.1284,-205.9762 618.973,-211.8092 620.68,-205.0205"/>
<text text-anchor="middle" x="757.5" y="-229.4" font-family="Times,serif" font-size="14.00" fill="#000000">seqrnk</text>
</g>
<!-- p22&#45;&gt;p27 -->
<g id="edge34" class="edge">
<title>p22&#45;&gt;p27</title>
<path fill="none" stroke="#000000" d="M949.5381,-259.0989C997.7732,-244.6781 1066.1486,-224.236 1116.2585,-209.2547"/>
<polygon fill="#000000" stroke="#000000" points="1117.4471,-212.5525 1126.0255,-206.3346 1115.442,-205.8458 1117.4471,-212.5525"/>
<text text-anchor="middle" x="1072.5" y="-229.4" font-family="Times,serif" font-size="14.00" fill="#000000">seqrnk</text>
</g>
<!-- p23&#45;&gt;p29 -->
<g id="edge29" class="edge">
<title>p23&#45;&gt;p29</title>
<path fill="none" stroke="#000000" d="M1424.9956,-259.3076C1480.0796,-244.6522 1558.9454,-223.6696 1615.7405,-208.559"/>
<polygon fill="#000000" stroke="#000000" points="1616.9581,-211.8568 1625.722,-205.9033 1615.1583,-205.0922 1616.9581,-211.8568"/>
<text text-anchor="middle" x="1553.5" y="-229.4" font-family="Times,serif" font-size="14.00" fill="#000000">rnk</text>
</g>
<!-- p26&#45;&gt;p32 -->
<g id="edge33" class="edge">
<title>p26&#45;&gt;p32</title>
<path fill="none" stroke="#000000" d="M677.9138,-129.0084C687.3458,-122.2379 717.8531,-100.3391 742.3684,-82.7415"/>
<polygon fill="#000000" stroke="#000000" points="744.6628,-85.403 750.7455,-76.7282 740.5808,-79.7163 744.6628,-85.403"/>
<text text-anchor="middle" x="763" y="-98.4" font-family="Times,serif" font-size="14.00" fill="#000000">phosx_output</text>
</g>
<!-- p28&#45;&gt;p32 -->
<g id="edge37" class="edge">
<title>p28&#45;&gt;p32</title>
<path fill="none" stroke="#000000" d="M869.7726,-128.6878C860.2867,-121.5978 831.707,-100.2367 808.5692,-82.9429"/>
<polygon fill="#000000" stroke="#000000" points="810.4417,-79.9729 800.3364,-76.7895 806.2509,-85.5798 810.4417,-79.9729"/>
<text text-anchor="middle" x="877.5" y="-98.4" font-family="Times,serif" font-size="14.00" fill="#000000">kinex_output</text>
</g>
<!-- p31&#45;&gt;p32 -->
<g id="edge40" class="edge">
<title>p31&#45;&gt;p32</title>
<path fill="none" stroke="#000000" d="M1058.3839,-130.1833C1037.56,-124.9045 931.2142,-97.9463 855.1691,-78.6691"/>
<polygon fill="#000000" stroke="#000000" points="855.6735,-75.1863 845.1201,-76.1217 853.9534,-81.9717 855.6735,-75.1863"/>
<text text-anchor="middle" x="1003" y="-98.4" font-family="Times,serif" font-size="14.00" fill="#000000">gsea_output</text>
</g>
<!-- p37 -->
<g id="node38" class="node">
<title>p37</title>
<ellipse fill="#000000" stroke="#000000" cx="2369" cy="-645.6" rx="3.6" ry="3.6"/>
<text text-anchor="middle" x="2315.4" y="-653" font-family="Times,serif" font-size="14.00" fill="#000000">Channel.fromPath</text>
</g>
<!-- p39 -->
<g id="node39" class="node">
<title>p39</title>
<ellipse fill="none" stroke="#000000" cx="2408" cy="-558.6" rx="3.5" ry="3.5"/>
<text text-anchor="middle" x="2380.5" y="-565.9" font-family="Times,serif" font-size="14.00" fill="#000000">combine</text>
</g>
<!-- p37&#45;&gt;p39 -->
<g id="edge45" class="edge">
<title>p37&#45;&gt;p39</title>
<path fill="none" stroke="#000000" d="M2367.7431,-642.1768C2364.8335,-633.6636 2358.4394,-611.0384 2366,-594.6 2372.0709,-581.4006 2385.6336,-571.2297 2395.7137,-565.1174"/>
<polygon fill="#000000" stroke="#000000" points="2397.6982,-568.02 2404.7654,-560.1265 2394.3183,-561.89 2397.6982,-568.02"/>
<text text-anchor="middle" x="2393" y="-598.4" font-family="Times,serif" font-size="14.00" fill="#000000">config_ch</text>
</g>
<!-- p40 -->
<g id="node41" class="node">
<title>p40</title>
<ellipse fill="none" stroke="#000000" cx="2408" cy="-471.6" rx="112.3801" ry="18"/>
<text text-anchor="middle" x="2408" y="-467.9" font-family="Times,serif" font-size="14.00" fill="#000000">PUBLISH_CONFIG:publish</text>
</g>
<!-- p39&#45;&gt;p40 -->
<g id="edge47" class="edge">
<title>p39&#45;&gt;p40</title>
<path fill="none" stroke="#000000" d="M2408,-554.8617C2408,-545.445 2408,-520.053 2408,-499.7647"/>
<polygon fill="#000000" stroke="#000000" points="2411.5001,-499.7321 2408,-489.7322 2404.5001,-499.7322 2411.5001,-499.7321"/>
</g>
<!-- p38 -->
<g id="node40" class="node">
<title>p38</title>
<ellipse fill="#000000" stroke="#000000" cx="2446" cy="-645.6" rx="3.6" ry="3.6"/>
<text text-anchor="middle" x="2411.9" y="-653" font-family="Times,serif" font-size="14.00" fill="#000000">Channel.of</text>
</g>
<!-- p38&#45;&gt;p39 -->
<g id="edge46" class="edge">
<title>p38&#45;&gt;p39</title>
<path fill="none" stroke="#000000" d="M2444.4129,-641.8825C2440.8122,-633.4569 2431.7359,-612.2662 2424,-594.6 2420.6255,-586.8939 2416.8001,-578.2822 2413.7361,-571.4142"/>
<polygon fill="#000000" stroke="#000000" points="2416.7899,-569.6694 2409.5124,-561.9695 2410.3998,-572.5272 2416.7899,-569.6694"/>
<text text-anchor="middle" x="2449" y="-598.4" font-family="Times,serif" font-size="14.00" fill="#000000">val_ch</text>
</g>
<!-- p41 -->
<g id="node42" class="node">
<title>p41</title>
<ellipse fill="#000000" stroke="#000000" cx="2408" cy="-384.6" rx="1.8" ry="1.8"/>
</g>
<!-- p40&#45;&gt;p41 -->
<g id="edge48" class="edge">
<title>p40&#45;&gt;p41</title>
<path fill="none" stroke="#000000" d="M2408,-453.5735C2408,-436.502 2408,-411.3487 2408,-396.6035"/>
<polygon fill="#000000" stroke="#000000" points="2411.5001,-396.5185 2408,-386.5185 2404.5001,-396.5185 2411.5001,-396.5185"/>
</g>
</g>
</svg>
