<?xml version="1.0" encoding="UTF-8" standalone="no"?>
<!DOCTYPE svg PUBLIC "-//W3C//DTD SVG 1.1//EN"
 "http://www.w3.org/Graphics/SVG/1.1/DTD/svg11.dtd">
<!-- Generated by graphviz version 2.40.1 (0)
 -->
<!-- Title: flowchart Pages: 1 -->
<svg width="2735pt" height="774pt"
 viewBox="0.00 0.00 2735.25 774.20" xmlns="http://www.w3.org/2000/svg" xmlns:xlink="http://www.w3.org/1999/xlink">
<g id="graph0" class="graph" transform="scale(1 1) rotate(0) translate(4 770.2)">
<title>flowchart</title>
<polygon fill="#ffffff" stroke="transparent" points="-4,4 -4,-770.2 2731.2478,-770.2 2731.2478,4 -4,4"/>
<!-- v0 -->
<g id="node1" class="node">
<title>v0</title>
<ellipse fill="none" stroke="#000000" cx="688.8077" cy="-660.6" rx="131.8766" ry="18"/>
<text text-anchor="middle" x="688.8077" y="-656.9" font-family="Times,serif" font-size="14.00" fill="#000000">GET_GENE_ID_DICT:dl_human</text>
</g>
<!-- v1 -->
<g id="node2" class="node">
<title>v1</title>
<ellipse fill="none" stroke="#000000" cx="688.8077" cy="-587.6" rx="178.9686" ry="18"/>
<text text-anchor="middle" x="688.8077" y="-583.9" font-family="Times,serif" font-size="14.00" fill="#000000">GET_GENE_ID_DICT:uniprotac_to_ensp_dict</text>
</g>
<!-- v0&#45;&gt;v1 -->
<g id="edge1" class="edge">
<title>v0&#45;&gt;v1</title>
<path fill="none" stroke="#000000" d="M688.8077,-642.5551C688.8077,-634.4828 688.8077,-624.7764 688.8077,-615.7817"/>
<polygon fill="#000000" stroke="#000000" points="692.3078,-615.6903 688.8077,-605.6904 685.3078,-615.6904 692.3078,-615.6903"/>
</g>
<!-- v15 -->
<g id="node3" class="node">
<title>v15</title>
<ellipse fill="none" stroke="#000000" cx="688.8077" cy="-500.6" rx="273.7515" ry="18"/>
<text text-anchor="middle" x="688.8077" y="-496.9" font-family="Times,serif" font-size="14.00" fill="#000000">HERNANDEZ2017_DATASET:hernandez2017_rnk_translate1col_w_dict</text>
</g>
<!-- v1&#45;&gt;v15 -->
<g id="edge2" class="edge">
<title>v1&#45;&gt;v15</title>
<path fill="none" stroke="#000000" d="M688.8077,-569.5735C688.8077,-557.7918 688.8077,-542.1607 688.8077,-528.7581"/>
<polygon fill="#000000" stroke="#000000" points="692.3078,-528.6033 688.8077,-518.6034 685.3078,-528.6034 692.3078,-528.6033"/>
<text text-anchor="middle" x="747.8077" y="-540.4" font-family="Times,serif" font-size="14.00" fill="#000000">uniprotac2ENSP_dict</text>
</g>
<!-- v16 -->
<g id="node20" class="node">
<title>v16</title>
<ellipse fill="none" stroke="#000000" cx="536.8077" cy="-319.6" rx="231.259" ry="18"/>
<text text-anchor="middle" x="536.8077" y="-315.9" font-family="Times,serif" font-size="14.00" fill="#000000">HERNANDEZ2017_DATASET:hernandez2017_make_seqrnk</text>
</g>
<!-- v15&#45;&gt;v16 -->
<g id="edge18" class="edge">
<title>v15&#45;&gt;v16</title>
<path fill="none" stroke="#000000" d="M690.387,-482.381C691.9633,-452.0253 690.4838,-390.9495 657.8077,-355.6 652.4075,-349.758 640.3393,-344.3342 625.8192,-339.5614"/>
<polygon fill="#000000" stroke="#000000" points="626.5563,-336.126 615.9688,-336.521 624.4918,-342.8146 626.5563,-336.126"/>
</g>
<!-- v17 -->
<g id="node22" class="node">
<title>v17</title>
<ellipse fill="none" stroke="#000000" cx="1327.8077" cy="-427.6" rx="261.0538" ry="18"/>
<text text-anchor="middle" x="1327.8077" y="-423.9" font-family="Times,serif" font-size="14.00" fill="#000000">HERNANDEZ2017_DATASET:hernandez2017_make_uniprot_seqrnk</text>
</g>
<!-- v15&#45;&gt;v17 -->
<g id="edge20" class="edge">
<title>v15&#45;&gt;v17</title>
<path fill="none" stroke="#000000" d="M825.4972,-484.9845C930.539,-472.9844 1075.3126,-456.4453 1182.4589,-444.2048"/>
<polygon fill="#000000" stroke="#000000" points="1183.1697,-447.6464 1192.7078,-443.0339 1182.3752,-440.6917 1183.1697,-447.6464"/>
</g>
<!-- v18 -->
<g id="node24" class="node">
<title>v18</title>
<ellipse fill="none" stroke="#000000" cx="428.8077" cy="-373.6" rx="219.8612" ry="18"/>
<text text-anchor="middle" x="428.8077" y="-369.9" font-family="Times,serif" font-size="14.00" fill="#000000">HERNANDEZ2017_DATASET:hernandez2017_make_rnk</text>
</g>
<!-- v15&#45;&gt;v18 -->
<g id="edge22" class="edge">
<title>v15&#45;&gt;v18</title>
<path fill="none" stroke="#000000" d="M652.1075,-482.6734C605.4585,-459.8871 524.9327,-420.5534 474.394,-395.8672"/>
<polygon fill="#000000" stroke="#000000" points="475.8428,-392.6796 465.3212,-391.4354 472.7704,-398.9694 475.8428,-392.6796"/>
</g>
<!-- v2 -->
<g id="node4" class="node">
<title>v2</title>
<ellipse fill="none" stroke="#000000" cx="885.8077" cy="-427.6" rx="163.2712" ry="18"/>
<text text-anchor="middle" x="885.8077" y="-423.9" font-family="Times,serif" font-size="14.00" fill="#000000">GET_STRING_ID_DICT:dl_string_aliases</text>
</g>
<!-- v6 -->
<g id="node5" class="node">
<title>v6</title>
<ellipse fill="none" stroke="#000000" cx="162.8077" cy="-319.6" rx="124.5782" ry="18"/>
<text text-anchor="middle" x="162.8077" y="-315.9" font-family="Times,serif" font-size="14.00" fill="#000000">PSP:translate_kin_phos_clusters</text>
</g>
<!-- v2&#45;&gt;v6 -->
<g id="edge3" class="edge">
<title>v2&#45;&gt;v6</title>
<path fill="none" stroke="#000000" d="M842.0915,-410.098C796.806,-392.8528 723.5849,-367.4234 657.8077,-355.6 499.6979,-327.18 456.7769,-352.3063 296.8077,-337.6 285.1206,-336.5256 272.8871,-335.1842 260.7664,-333.7211"/>
<polygon fill="#000000" stroke="#000000" points="260.9801,-330.221 250.626,-332.4667 260.1207,-337.168 260.9801,-330.221"/>
<text text-anchor="middle" x="827.8077" y="-369.9" font-family="Times,serif" font-size="14.00" fill="#000000">string_id_dict</text>
</g>
<!-- v10 -->
<g id="node13" class="node">
<title>v10</title>
<ellipse fill="none" stroke="#000000" cx="999.8077" cy="-319.6" rx="213.6622" ry="18"/>
<text text-anchor="middle" x="999.8077" y="-315.9" font-family="Times,serif" font-size="14.00" fill="#000000">KINEX_SCORING_MATRIX:get_kinex_scoring_matrix</text>
</g>
<!-- v2&#45;&gt;v10 -->
<g id="edge10" class="edge">
<title>v2&#45;&gt;v10</title>
<path fill="none" stroke="#000000" d="M904.8888,-409.5232C923.6309,-391.7676 952.383,-364.5287 973.3323,-344.682"/>
<polygon fill="#000000" stroke="#000000" points="975.812,-347.1541 980.6644,-337.7357 970.9978,-342.0724 975.812,-347.1541"/>
<text text-anchor="middle" x="997.8077" y="-369.9" font-family="Times,serif" font-size="14.00" fill="#000000">string_id_dict</text>
</g>
<!-- v26 -->
<g id="node14" class="node">
<title>v26</title>
<ellipse fill="none" stroke="#000000" cx="999.8077" cy="-232.6" rx="150.5735" ry="18"/>
<text text-anchor="middle" x="999.8077" y="-228.9" font-family="Times,serif" font-size="14.00" fill="#000000">KINEX_HERNANDEZ2017:run_kinex</text>
</g>
<!-- v2&#45;&gt;v26 -->
<g id="edge31" class="edge">
<title>v2&#45;&gt;v26</title>
<path fill="none" stroke="#000000" d="M991.2377,-413.7728C1079.3613,-399.7678 1194.9795,-374.8261 1222.8077,-337.6 1259.2076,-288.9075 1186.5292,-261.922 1114.629,-247.5467"/>
<polygon fill="#000000" stroke="#000000" points="1114.9809,-244.0503 1104.5001,-245.601 1113.6603,-250.9247 1114.9809,-244.0503"/>
<text text-anchor="middle" x="1270.8077" y="-315.9" font-family="Times,serif" font-size="14.00" fill="#000000">string_id_dict</text>
</g>
<!-- v14 -->
<g id="node17" class="node">
<title>v14</title>
<ellipse fill="none" stroke="#000000" cx="2022.8077" cy="-319.6" rx="250.7555" ry="18"/>
<text text-anchor="middle" x="2022.8077" y="-315.9" font-family="Times,serif" font-size="14.00" fill="#000000">HERNANDEZ2017_DATASET:translate_hernandez2017_metadata</text>
</g>
<!-- v2&#45;&gt;v14 -->
<g id="edge16" class="edge">
<title>v2&#45;&gt;v14</title>
<path fill="none" stroke="#000000" d="M999.0473,-414.6201C1018.6218,-412.6997 1038.7884,-410.9247 1057.8077,-409.6 1287.1691,-393.6252 1345.9732,-413.8846 1574.8077,-391.6 1697.2343,-379.6777 1836.9853,-355.5128 1927.3798,-338.4755"/>
<polygon fill="#000000" stroke="#000000" points="1928.1599,-341.89 1937.3341,-336.5905 1926.8575,-335.0123 1928.1599,-341.89"/>
<text text-anchor="middle" x="1868.8077" y="-369.9" font-family="Times,serif" font-size="14.00" fill="#000000">string_id_dict</text>
</g>
<!-- v33 -->
<g id="node35" class="node">
<title>v33</title>
<ellipse fill="none" stroke="#000000" cx="1362.8077" cy="-232.6" rx="194.1657" ry="18"/>
<text text-anchor="middle" x="1362.8077" y="-228.9" font-family="Times,serif" font-size="14.00" fill="#000000">KSTAR_HERNANDEZ2017:translate_kstar_output</text>
</g>
<!-- v2&#45;&gt;v33 -->
<g id="edge40" class="edge">
<title>v2&#45;&gt;v33</title>
<path fill="none" stroke="#000000" d="M1004.1151,-415.1474C1066.537,-408.0376 1136.3582,-399.0786 1166.8077,-391.6 1233.9959,-375.0981 1261.7316,-384.2669 1312.8077,-337.6 1335.4003,-316.9578 1348.7675,-283.9513 1355.9136,-260.4577"/>
<polygon fill="#000000" stroke="#000000" points="1359.3129,-261.3 1358.6872,-250.7236 1352.5808,-259.3818 1359.3129,-261.3"/>
<text text-anchor="middle" x="1377.8077" y="-315.9" font-family="Times,serif" font-size="14.00" fill="#000000">string_id_dict</text>
</g>
<!-- v28 -->
<g id="node9" class="node">
<title>v28</title>
<ellipse fill="none" stroke="#000000" cx="162.8077" cy="-232.6" rx="142.9746" ry="18"/>
<text text-anchor="middle" x="162.8077" y="-228.9" font-family="Times,serif" font-size="14.00" fill="#000000">GSEA_HERNANDEZ2017:run_gsea</text>
</g>
<!-- v6&#45;&gt;v28 -->
<g id="edge7" class="edge">
<title>v6&#45;&gt;v28</title>
<path fill="none" stroke="#000000" d="M162.8077,-301.5735C162.8077,-289.7918 162.8077,-274.1607 162.8077,-260.7581"/>
<polygon fill="#000000" stroke="#000000" points="166.3078,-260.6033 162.8077,-250.6034 159.3078,-260.6034 166.3078,-260.6033"/>
<text text-anchor="middle" x="220.8077" y="-272.4" font-family="Times,serif" font-size="14.00" fill="#000000">psp_kin_sub_clusters</text>
</g>
<!-- v3 -->
<g id="node6" class="node">
<title>v3</title>
<ellipse fill="#000000" stroke="#000000" cx="162.8077" cy="-587.6" rx="3.6" ry="3.6"/>
</g>
<!-- v4 -->
<g id="node7" class="node">
<title>v4</title>
<ellipse fill="none" stroke="#000000" cx="162.8077" cy="-500.6" rx="105.8812" ry="18"/>
<text text-anchor="middle" x="162.8077" y="-496.9" font-family="Times,serif" font-size="14.00" fill="#000000">PSP:psp_kinase_substrates</text>
</g>
<!-- v3&#45;&gt;v4 -->
<g id="edge4" class="edge">
<title>v3&#45;&gt;v4</title>
<path fill="none" stroke="#000000" d="M162.8077,-583.8617C162.8077,-574.445 162.8077,-549.053 162.8077,-528.7647"/>
<polygon fill="#000000" stroke="#000000" points="166.3078,-528.7321 162.8077,-518.7322 159.3078,-528.7322 166.3078,-528.7321"/>
<text text-anchor="middle" x="247.3077" y="-540.4" font-family="Times,serif" font-size="14.00" fill="#000000">input/psp_kinase_substrates.gz</text>
</g>
<!-- v5 -->
<g id="node8" class="node">
<title>v5</title>
<ellipse fill="none" stroke="#000000" cx="162.8077" cy="-427.6" rx="90.9839" ry="18"/>
<text text-anchor="middle" x="162.8077" y="-423.9" font-family="Times,serif" font-size="14.00" fill="#000000">PSP:kin_phos_clusters</text>
</g>
<!-- v4&#45;&gt;v5 -->
<g id="edge5" class="edge">
<title>v4&#45;&gt;v5</title>
<path fill="none" stroke="#000000" d="M162.8077,-482.5551C162.8077,-474.4828 162.8077,-464.7764 162.8077,-455.7817"/>
<polygon fill="#000000" stroke="#000000" points="166.3078,-455.6903 162.8077,-445.6904 159.3078,-455.6904 166.3078,-455.6903"/>
</g>
<!-- v5&#45;&gt;v6 -->
<g id="edge6" class="edge">
<title>v5&#45;&gt;v6</title>
<path fill="none" stroke="#000000" d="M162.8077,-409.2793C162.8077,-392.421 162.8077,-367.1651 162.8077,-347.747"/>
<polygon fill="#000000" stroke="#000000" points="166.3078,-347.6501 162.8077,-337.6502 159.3078,-347.6502 166.3078,-347.6501"/>
</g>
<!-- v30 -->
<g id="node32" class="node">
<title>v30</title>
<ellipse fill="none" stroke="#000000" cx="478.8077" cy="-145.6" rx="3.5" ry="3.5"/>
<text text-anchor="middle" x="456.8077" y="-152.9" font-family="Times,serif" font-size="14.00" fill="#000000">collect</text>
</g>
<!-- v28&#45;&gt;v30 -->
<g id="edge34" class="edge">
<title>v28&#45;&gt;v30</title>
<path fill="none" stroke="#000000" d="M222.6164,-216.1337C298.5047,-195.2404 424.4633,-160.5619 465.4646,-149.2736"/>
<polygon fill="#000000" stroke="#000000" points="466.5999,-152.5913 475.3121,-146.5624 464.7418,-145.8424 466.5999,-152.5913"/>
</g>
<!-- v29 -->
<g id="node33" class="node">
<title>v29</title>
<ellipse fill="#000000" stroke="#000000" cx="162.8077" cy="-145.6" rx="1.8" ry="1.8"/>
</g>
<!-- v28&#45;&gt;v29 -->
<g id="edge35" class="edge">
<title>v28&#45;&gt;v29</title>
<path fill="none" stroke="#000000" d="M162.8077,-214.5735C162.8077,-197.502 162.8077,-172.3487 162.8077,-157.6035"/>
<polygon fill="#000000" stroke="#000000" points="166.3078,-157.5185 162.8077,-147.5185 159.3078,-157.5185 166.3078,-157.5185"/>
</g>
<!-- v7 -->
<g id="node10" class="node">
<title>v7</title>
<ellipse fill="#000000" stroke="#000000" cx="2347.8077" cy="-747.6" rx="3.6" ry="3.6"/>
</g>
<!-- v8 -->
<g id="node11" class="node">
<title>v8</title>
<ellipse fill="none" stroke="#000000" cx="2347.8077" cy="-660.6" rx="103.1819" ry="18"/>
<text text-anchor="middle" x="2347.8077" y="-656.9" font-family="Times,serif" font-size="14.00" fill="#000000">PSP:hs_phosphoproteome</text>
</g>
<!-- v7&#45;&gt;v8 -->
<g id="edge8" class="edge">
<title>v7&#45;&gt;v8</title>
<path fill="none" stroke="#000000" d="M2347.8077,-743.8617C2347.8077,-734.445 2347.8077,-709.053 2347.8077,-688.7647"/>
<polygon fill="#000000" stroke="#000000" points="2351.3078,-688.7321 2347.8077,-678.7322 2344.3078,-688.7322 2351.3078,-688.7321"/>
<text text-anchor="middle" x="2450.8077" y="-700.4" font-family="Times,serif" font-size="14.00" fill="#000000">input/Phosphorylation_site_dataset.gz</text>
</g>
<!-- v9 -->
<g id="node12" class="node">
<title>v9</title>
<ellipse fill="#000000" stroke="#000000" cx="2347.8077" cy="-587.6" rx="1.8" ry="1.8"/>
</g>
<!-- v8&#45;&gt;v9 -->
<g id="edge9" class="edge">
<title>v8&#45;&gt;v9</title>
<path fill="none" stroke="#000000" d="M2347.8077,-642.5551C2347.8077,-629.2025 2347.8077,-611.3784 2347.8077,-599.701"/>
<polygon fill="#000000" stroke="#000000" points="2351.3078,-599.4525 2347.8077,-589.4525 2344.3078,-599.4525 2351.3078,-599.4525"/>
</g>
<!-- v10&#45;&gt;v26 -->
<g id="edge11" class="edge">
<title>v10&#45;&gt;v26</title>
<path fill="none" stroke="#000000" d="M999.8077,-301.5735C999.8077,-289.7918 999.8077,-274.1607 999.8077,-260.7581"/>
<polygon fill="#000000" stroke="#000000" points="1003.3078,-260.6033 999.8077,-250.6034 996.3078,-260.6034 1003.3078,-260.6033"/>
<text text-anchor="middle" x="1041.3077" y="-272.4" font-family="Times,serif" font-size="14.00" fill="#000000">scoring_matrix</text>
</g>
<!-- v27 -->
<g id="node31" class="node">
<title>v27</title>
<ellipse fill="none" stroke="#000000" cx="999.8077" cy="-145.6" rx="3.5" ry="3.5"/>
<text text-anchor="middle" x="977.8077" y="-152.9" font-family="Times,serif" font-size="14.00" fill="#000000">collect</text>
</g>
<!-- v26&#45;&gt;v27 -->
<g id="edge32" class="edge">
<title>v26&#45;&gt;v27</title>
<path fill="none" stroke="#000000" d="M999.8077,-214.5735C999.8077,-198.0868 999.8077,-174.0625 999.8077,-159.1548"/>
<polygon fill="#000000" stroke="#000000" points="1003.3078,-159.142 999.8077,-149.142 996.3078,-159.1421 1003.3078,-159.142"/>
</g>
<!-- v11 -->
<g id="node15" class="node">
<title>v11</title>
<ellipse fill="none" stroke="#000000" cx="1827.8077" cy="-747.6" rx="231.259" ry="18"/>
<text text-anchor="middle" x="1827.8077" y="-743.9" font-family="Times,serif" font-size="14.00" fill="#000000">HERNANDEZ2017_DATASET:parse_hernandez2017_dataset</text>
</g>
<!-- v12 -->
<g id="node16" class="node">
<title>v12</title>
<ellipse fill="none" stroke="#000000" cx="1160.8077" cy="-660.6" rx="3.5" ry="3.5"/>
<text text-anchor="middle" x="1135.8077" y="-667.9" font-family="Times,serif" font-size="14.00" fill="#000000">flatMap</text>
</g>
<!-- v11&#45;&gt;v12 -->
<g id="edge12" class="edge">
<title>v11&#45;&gt;v12</title>
<path fill="none" stroke="#000000" d="M1708.946,-732.0963C1539.7035,-710.0212 1242.2375,-671.2213 1174.7075,-662.413"/>
<polygon fill="#000000" stroke="#000000" points="1174.7422,-658.888 1164.3735,-661.0651 1173.8368,-665.8292 1174.7422,-658.888"/>
</g>
<!-- v11&#45;&gt;v14 -->
<g id="edge13" class="edge">
<title>v11&#45;&gt;v14</title>
<path fill="none" stroke="#000000" d="M1897.3813,-730.3762C1953.3825,-714.4126 2022.8077,-688.9128 2022.8077,-660.6 2022.8077,-660.6 2022.8077,-660.6 2022.8077,-427.6 2022.8077,-400.6527 2022.8077,-369.9234 2022.8077,-348.1515"/>
<polygon fill="#000000" stroke="#000000" points="2026.3078,-347.9449 2022.8077,-337.945 2019.3078,-347.945 2026.3078,-347.9449"/>
</g>
<!-- v13 -->
<g id="node18" class="node">
<title>v13</title>
<ellipse fill="none" stroke="#000000" cx="955.8077" cy="-587.6" rx="3.5" ry="3.5"/>
<text text-anchor="middle" x="939.8077" y="-594.9" font-family="Times,serif" font-size="14.00" fill="#000000">map</text>
</g>
<!-- v12&#45;&gt;v13 -->
<g id="edge14" class="edge">
<title>v12&#45;&gt;v13</title>
<path fill="none" stroke="#000000" d="M1157.2496,-659.3329C1134.5546,-651.2513 1009.6873,-606.7864 968.7846,-592.221"/>
<polygon fill="#000000" stroke="#000000" points="969.7421,-588.8468 959.1475,-588.7893 967.3939,-595.4412 969.7421,-588.8468"/>
</g>
<!-- v20 -->
<g id="node19" class="node">
<title>v20</title>
<ellipse fill="none" stroke="#000000" cx="2188.8077" cy="-232.6" rx="3.5" ry="3.5"/>
<text text-anchor="middle" x="2161.3077" y="-239.9" font-family="Times,serif" font-size="14.00" fill="#000000">combine</text>
</g>
<!-- v14&#45;&gt;v20 -->
<g id="edge17" class="edge">
<title>v14&#45;&gt;v20</title>
<path fill="none" stroke="#000000" d="M2057.203,-301.5735C2094.4266,-282.0648 2151.7881,-252.0019 2176.6375,-238.9784"/>
<polygon fill="#000000" stroke="#000000" points="2178.3453,-242.035 2185.5778,-234.2928 2175.0958,-235.8349 2178.3453,-242.035"/>
<text text-anchor="middle" x="2140.8077" y="-272.4" font-family="Times,serif" font-size="14.00" fill="#000000">metadata</text>
</g>
<!-- v35 -->
<g id="node30" class="node">
<title>v35</title>
<ellipse fill="none" stroke="#000000" cx="999.8077" cy="-58.6" rx="300.8466" ry="18"/>
<text text-anchor="middle" x="999.8077" y="-54.9" font-family="Times,serif" font-size="14.00" fill="#000000">BENCHMARK_PHOSX_HERNANDEZ2017:benchmark_phosx_hernandez2017</text>
</g>
<!-- v14&#45;&gt;v35 -->
<g id="edge43" class="edge">
<title>v14&#45;&gt;v35</title>
<path fill="none" stroke="#000000" d="M1967.7777,-301.934C1838.3347,-260.8799 1503.968,-157.7384 1218.8077,-94.6 1188.9799,-87.9957 1156.6211,-82.0291 1126.1603,-76.9386"/>
<polygon fill="#000000" stroke="#000000" points="1126.3458,-73.4219 1115.9092,-75.2462 1125.2055,-80.3285 1126.3458,-73.4219"/>
<text text-anchor="middle" x="1635.8077" y="-185.4" font-family="Times,serif" font-size="14.00" fill="#000000">metadata</text>
</g>
<!-- v13&#45;&gt;v15 -->
<g id="edge15" class="edge">
<title>v13&#45;&gt;v15</title>
<path fill="none" stroke="#000000" d="M952.2435,-586.2702C936.043,-580.2422 867.6865,-554.9814 810.8077,-536.6 794.5593,-531.349 776.9961,-525.9857 760.3947,-521.0571"/>
<polygon fill="#000000" stroke="#000000" points="761.3302,-517.684 750.7484,-518.2095 759.3483,-524.3976 761.3302,-517.684"/>
<text text-anchor="middle" x="901.3077" y="-540.4" font-family="Times,serif" font-size="14.00" fill="#000000">untranslated_rnk</text>
</g>
<!-- v21 -->
<g id="node26" class="node">
<title>v21</title>
<ellipse fill="none" stroke="#000000" cx="2188.8077" cy="-145.6" rx="152.1731" ry="18"/>
<text text-anchor="middle" x="2188.8077" y="-141.9" font-family="Times,serif" font-size="14.00" fill="#000000">HERNANDEZ2017_DATASET:publish</text>
</g>
<!-- v20&#45;&gt;v21 -->
<g id="edge25" class="edge">
<title>v20&#45;&gt;v21</title>
<path fill="none" stroke="#000000" d="M2188.8077,-228.8617C2188.8077,-219.445 2188.8077,-194.053 2188.8077,-173.7647"/>
<polygon fill="#000000" stroke="#000000" points="2192.3078,-173.7321 2188.8077,-163.7322 2185.3078,-173.7322 2192.3078,-173.7321"/>
</g>
<!-- v16&#45;&gt;v26 -->
<g id="edge30" class="edge">
<title>v16&#45;&gt;v26</title>
<path fill="none" stroke="#000000" d="M625.531,-302.9285C706.8217,-287.6535 826.6475,-265.1377 908.6856,-249.7223"/>
<polygon fill="#000000" stroke="#000000" points="909.5664,-253.1181 918.7481,-247.8315 908.2737,-246.2385 909.5664,-253.1181"/>
<text text-anchor="middle" x="815.3077" y="-272.4" font-family="Times,serif" font-size="14.00" fill="#000000">seqrnk</text>
</g>
<!-- v23 -->
<g id="node21" class="node">
<title>v23</title>
<ellipse fill="none" stroke="#000000" cx="618.8077" cy="-232.6" rx="154.0727" ry="18"/>
<text text-anchor="middle" x="618.8077" y="-228.9" font-family="Times,serif" font-size="14.00" fill="#000000">PHOSX_HERNANDEZ2017:run_phosx</text>
</g>
<!-- v16&#45;&gt;v23 -->
<g id="edge19" class="edge">
<title>v16&#45;&gt;v23</title>
<path fill="none" stroke="#000000" d="M553.7982,-301.5735C565.6725,-288.9752 581.6952,-271.9755 594.8623,-258.0055"/>
<polygon fill="#000000" stroke="#000000" points="597.5271,-260.2811 601.839,-250.6034 592.4332,-255.4799 597.5271,-260.2811"/>
<text text-anchor="middle" x="601.3077" y="-272.4" font-family="Times,serif" font-size="14.00" fill="#000000">seqrnk</text>
</g>
<!-- v25 -->
<g id="node28" class="node">
<title>v25</title>
<ellipse fill="none" stroke="#000000" cx="619.8077" cy="-145.6" rx="3.5" ry="3.5"/>
<text text-anchor="middle" x="597.8077" y="-152.9" font-family="Times,serif" font-size="14.00" fill="#000000">collect</text>
</g>
<!-- v23&#45;&gt;v25 -->
<g id="edge27" class="edge">
<title>v23&#45;&gt;v25</title>
<path fill="none" stroke="#000000" d="M619.0149,-214.5735C619.2044,-198.0868 619.4806,-174.0625 619.6519,-159.1548"/>
<polygon fill="#000000" stroke="#000000" points="623.1518,-159.1816 619.767,-149.142 616.1522,-159.1011 623.1518,-159.1816"/>
</g>
<!-- v24 -->
<g id="node29" class="node">
<title>v24</title>
<ellipse fill="#000000" stroke="#000000" cx="643.8077" cy="-145.6" rx="1.8" ry="1.8"/>
</g>
<!-- v23&#45;&gt;v24 -->
<g id="edge28" class="edge">
<title>v23&#45;&gt;v24</title>
<path fill="none" stroke="#000000" d="M624.5053,-214.3161C626.2417,-208.6481 628.1333,-202.3746 629.8077,-196.6 633.6913,-183.207 637.8943,-167.7551 640.671,-157.4011"/>
<polygon fill="#000000" stroke="#000000" points="644.1027,-158.115 643.2937,-147.5511 637.3384,-156.3139 644.1027,-158.115"/>
</g>
<!-- v32 -->
<g id="node23" class="node">
<title>v32</title>
<ellipse fill="none" stroke="#000000" cx="1604.8077" cy="-319.6" rx="149.4735" ry="18"/>
<text text-anchor="middle" x="1604.8077" y="-315.9" font-family="Times,serif" font-size="14.00" fill="#000000">KSTAR_HERNANDEZ2017:run_kstar</text>
</g>
<!-- v17&#45;&gt;v32 -->
<g id="edge21" class="edge">
<title>v17&#45;&gt;v32</title>
<path fill="none" stroke="#000000" d="M1372.8862,-409.7324C1409.8995,-395.0933 1463.7033,-373.886 1510.8077,-355.6 1523.4001,-350.7116 1536.9579,-345.4932 1549.7502,-340.5897"/>
<polygon fill="#000000" stroke="#000000" points="1551.2675,-343.7566 1559.3547,-336.912 1548.7643,-337.2195 1551.2675,-343.7566"/>
<text text-anchor="middle" x="1542.8077" y="-369.9" font-family="Times,serif" font-size="14.00" fill="#000000">uniprot_rnk</text>
</g>
<!-- v32&#45;&gt;v33 -->
<g id="edge39" class="edge">
<title>v32&#45;&gt;v33</title>
<path fill="none" stroke="#000000" d="M1557.2851,-302.5154C1518.208,-288.4671 1462.6761,-268.5031 1420.9502,-253.5024"/>
<polygon fill="#000000" stroke="#000000" points="1422.0595,-250.182 1411.4651,-250.0925 1419.6913,-256.7693 1422.0595,-250.182"/>
</g>
<!-- v18&#45;&gt;v28 -->
<g id="edge23" class="edge">
<title>v18&#45;&gt;v28</title>
<path fill="none" stroke="#000000" d="M219.9224,-367.969C122.7034,-363.1338 25.0191,-354.1743 9.8077,-337.6 -23.5852,-301.215 37.8762,-270.7551 92.566,-252.171"/>
<polygon fill="#000000" stroke="#000000" points="93.9212,-255.4095 102.3217,-248.9533 91.7286,-248.7618 93.9212,-255.4095"/>
<text text-anchor="middle" x="19.3077" y="-315.9" font-family="Times,serif" font-size="14.00" fill="#000000">rnk</text>
</g>
<!-- v19 -->
<g id="node25" class="node">
<title>v19</title>
<ellipse fill="#000000" stroke="#000000" cx="2294.8077" cy="-319.6" rx="3.6" ry="3.6"/>
<text text-anchor="middle" x="2321.7077" y="-327" font-family="Times,serif" font-size="14.00" fill="#000000">Channel.of</text>
</g>
<!-- v19&#45;&gt;v20 -->
<g id="edge24" class="edge">
<title>v19&#45;&gt;v20</title>
<path fill="none" stroke="#000000" d="M2293.0741,-316.2984C2290.973,-312.4879 2287.1674,-306.1613 2282.8077,-301.6 2257.0837,-274.686 2219.8081,-250.832 2200.8533,-239.5311"/>
<polygon fill="#000000" stroke="#000000" points="2202.4394,-236.4046 2192.036,-234.3997 2198.9184,-242.4546 2202.4394,-236.4046"/>
</g>
<!-- v22 -->
<g id="node27" class="node">
<title>v22</title>
<ellipse fill="#000000" stroke="#000000" cx="2188.8077" cy="-58.6" rx="1.8" ry="1.8"/>
</g>
<!-- v21&#45;&gt;v22 -->
<g id="edge26" class="edge">
<title>v21&#45;&gt;v22</title>
<path fill="none" stroke="#000000" d="M2188.8077,-127.5735C2188.8077,-110.502 2188.8077,-85.3487 2188.8077,-70.6035"/>
<polygon fill="#000000" stroke="#000000" points="2192.3078,-70.5185 2188.8077,-60.5185 2185.3078,-70.5185 2192.3078,-70.5185"/>
</g>
<!-- v25&#45;&gt;v35 -->
<g id="edge29" class="edge">
<title>v25&#45;&gt;v35</title>
<path fill="none" stroke="#000000" d="M621.2529,-142.1616C623.2106,-137.9679 627.1259,-131.0171 632.8077,-127.6 682.7935,-97.5385 705.3673,-119.7425 762.8077,-109.6 813.8738,-100.5831 870.683,-88.4321 915.8784,-78.2525"/>
<polygon fill="#000000" stroke="#000000" points="916.6515,-81.6661 925.6326,-76.0456 915.1067,-74.8387 916.6515,-81.6661"/>
<text text-anchor="middle" x="871.8077" y="-98.4" font-family="Times,serif" font-size="14.00" fill="#000000">phosx_output</text>
</g>
<!-- v39 -->
<g id="node37" class="node">
<title>v39</title>
<ellipse fill="#000000" stroke="#000000" cx="962.8077" cy="-1.8" rx="1.8" ry="1.8"/>
</g>
<!-- v35&#45;&gt;v39 -->
<g id="edge44" class="edge">
<title>v35&#45;&gt;v39</title>
<path fill="none" stroke="#000000" d="M987.897,-40.3155C981.8089,-30.9694 974.6256,-19.9421 969.5089,-12.0872"/>
<polygon fill="#000000" stroke="#000000" points="972.3735,-10.0723 963.9826,-3.6036 966.5082,-13.8931 972.3735,-10.0723"/>
</g>
<!-- v38 -->
<g id="node38" class="node">
<title>v38</title>
<ellipse fill="#000000" stroke="#000000" cx="987.8077" cy="-1.8" rx="1.8" ry="1.8"/>
</g>
<!-- v35&#45;&gt;v38 -->
<g id="edge45" class="edge">
<title>v35&#45;&gt;v38</title>
<path fill="none" stroke="#000000" d="M995.9448,-40.3155C994.0838,-31.5065 991.9072,-21.204 990.2736,-13.472"/>
<polygon fill="#000000" stroke="#000000" points="993.6803,-12.6642 988.1888,-3.6036 986.8315,-14.1112 993.6803,-12.6642"/>
</g>
<!-- v37 -->
<g id="node39" class="node">
<title>v37</title>
<ellipse fill="#000000" stroke="#000000" cx="1012.8077" cy="-1.8" rx="1.8" ry="1.8"/>
</g>
<!-- v35&#45;&gt;v37 -->
<g id="edge46" class="edge">
<title>v35&#45;&gt;v37</title>
<path fill="none" stroke="#000000" d="M1003.9926,-40.3155C1006.0087,-31.5065 1008.3667,-21.204 1010.1363,-13.472"/>
<polygon fill="#000000" stroke="#000000" points="1013.5756,-14.1325 1012.3949,-3.6036 1006.752,-12.5707 1013.5756,-14.1325"/>
</g>
<!-- v36 -->
<g id="node40" class="node">
<title>v36</title>
<ellipse fill="#000000" stroke="#000000" cx="1037.8077" cy="-1.8" rx="1.8" ry="1.8"/>
</g>
<!-- v35&#45;&gt;v36 -->
<g id="edge47" class="edge">
<title>v35&#45;&gt;v36</title>
<path fill="none" stroke="#000000" d="M1012.0403,-40.3155C1018.411,-30.793 1025.9492,-19.5254 1031.2206,-11.646"/>
<polygon fill="#000000" stroke="#000000" points="1034.152,-13.5587 1036.8035,-3.301 1028.334,-9.6663 1034.152,-13.5587"/>
</g>
<!-- v27&#45;&gt;v35 -->
<g id="edge33" class="edge">
<title>v27&#45;&gt;v35</title>
<path fill="none" stroke="#000000" d="M999.8077,-141.8617C999.8077,-132.445 999.8077,-107.053 999.8077,-86.7647"/>
<polygon fill="#000000" stroke="#000000" points="1003.3078,-86.7321 999.8077,-76.7322 996.3078,-86.7322 1003.3078,-86.7321"/>
<text text-anchor="middle" x="1035.3077" y="-98.4" font-family="Times,serif" font-size="14.00" fill="#000000">kinex_output</text>
</g>
<!-- v30&#45;&gt;v35 -->
<g id="edge36" class="edge">
<title>v30&#45;&gt;v35</title>
<path fill="none" stroke="#000000" d="M482.3049,-144.6029C502.4993,-138.8794 606.3102,-109.924 692.8077,-94.6 736.7751,-86.8107 784.5937,-80.2817 829.115,-75.0166"/>
<polygon fill="#000000" stroke="#000000" points="829.6305,-78.4803 839.1569,-73.8437 828.8183,-71.5276 829.6305,-78.4803"/>
<text text-anchor="middle" x="725.8077" y="-98.4" font-family="Times,serif" font-size="14.00" fill="#000000">gsea_output</text>
</g>
<!-- v31 -->
<g id="node34" class="node">
<title>v31</title>
<ellipse fill="none" stroke="#000000" cx="1800.8077" cy="-427.6" rx="193.8658" ry="18"/>
<text text-anchor="middle" x="1800.8077" y="-423.9" font-family="Times,serif" font-size="14.00" fill="#000000">KSTAR_HERNANDEZ2017:make_kstar_networks</text>
</g>
<!-- v31&#45;&gt;v32 -->
<g id="edge37" class="edge">
<title>v31&#45;&gt;v32</title>
<path fill="none" stroke="#000000" d="M1764.347,-409.9108C1737.5928,-395.0046 1700.6688,-373.3332 1667.8077,-355.6 1659.408,-351.0671 1650.3655,-346.3906 1641.7921,-341.9697"/>
<polygon fill="#000000" stroke="#000000" points="1643.2173,-338.7666 1632.7256,-337.2917 1640.0076,-344.9874 1643.2173,-338.7666"/>
</g>
<!-- v31&#45;&gt;v32 -->
<g id="edge38" class="edge">
<title>v31&#45;&gt;v32</title>
<path fill="none" stroke="#000000" d="M1778.2616,-409.6118C1755.1006,-394.7158 1718.4497,-373.215 1685.8077,-355.6 1677.0448,-350.8711 1667.5824,-345.9859 1658.2946,-341.3977"/>
<polygon fill="#000000" stroke="#000000" points="1659.6211,-338.1509 1649.0974,-336.9252 1656.5598,-344.446 1659.6211,-338.1509"/>
</g>
<!-- v34 -->
<g id="node36" class="node">
<title>v34</title>
<ellipse fill="none" stroke="#000000" cx="1261.8077" cy="-145.6" rx="3.5" ry="3.5"/>
<text text-anchor="middle" x="1239.8077" y="-152.9" font-family="Times,serif" font-size="14.00" fill="#000000">collect</text>
</g>
<!-- v33&#45;&gt;v34 -->
<g id="edge41" class="edge">
<title>v33&#45;&gt;v34</title>
<path fill="none" stroke="#000000" d="M1341.8805,-214.5735C1320.6281,-196.2671 1288.5869,-168.6672 1272.2257,-154.5739"/>
<polygon fill="#000000" stroke="#000000" points="1274.4655,-151.8837 1264.6045,-148.0091 1269.8969,-157.1874 1274.4655,-151.8837"/>
</g>
<!-- v34&#45;&gt;v35 -->
<g id="edge42" class="edge">
<title>v34&#45;&gt;v35</title>
<path fill="none" stroke="#000000" d="M1258.104,-144.3701C1237.1942,-137.4268 1132.3807,-102.6223 1062.8638,-79.5385"/>
<polygon fill="#000000" stroke="#000000" points="1063.8947,-76.1929 1053.3013,-76.3631 1061.6887,-82.8363 1063.8947,-76.1929"/>
<text text-anchor="middle" x="1180.8077" y="-98.4" font-family="Times,serif" font-size="14.00" fill="#000000">kstar_output</text>
</g>
<!-- v40 -->
<g id="node41" class="node">
<title>v40</title>
<ellipse fill="#000000" stroke="#000000" cx="2576.8077" cy="-747.6" rx="3.6" ry="3.6"/>
<text text-anchor="middle" x="2523.2077" y="-755" font-family="Times,serif" font-size="14.00" fill="#000000">Channel.fromPath</text>
</g>
<!-- v42 -->
<g id="node42" class="node">
<title>v42</title>
<ellipse fill="none" stroke="#000000" cx="2614.8077" cy="-660.6" rx="3.5" ry="3.5"/>
<text text-anchor="middle" x="2587.3077" y="-667.9" font-family="Times,serif" font-size="14.00" fill="#000000">combine</text>
</g>
<!-- v40&#45;&gt;v42 -->
<g id="edge48" class="edge">
<title>v40&#45;&gt;v42</title>
<path fill="none" stroke="#000000" d="M2575.972,-743.9402C2574.1814,-735.2769 2570.6877,-713.0109 2577.8077,-696.6 2583.0381,-684.5446 2594.4148,-674.489 2603.1813,-668.0972"/>
<polygon fill="#000000" stroke="#000000" points="2605.376,-670.8404 2611.7488,-662.3765 2601.4888,-665.0189 2605.376,-670.8404"/>
<text text-anchor="middle" x="2604.8077" y="-700.4" font-family="Times,serif" font-size="14.00" fill="#000000">config_ch</text>
</g>
<!-- v43 -->
<g id="node44" class="node">
<title>v43</title>
<ellipse fill="none" stroke="#000000" cx="2614.8077" cy="-587.6" rx="112.3801" ry="18"/>
<text text-anchor="middle" x="2614.8077" y="-583.9" font-family="Times,serif" font-size="14.00" fill="#000000">PUBLISH_CONFIG:publish</text>
</g>
<!-- v42&#45;&gt;v43 -->
<g id="edge50" class="edge">
<title>v42&#45;&gt;v43</title>
<path fill="none" stroke="#000000" d="M2614.8077,-657.0791C2614.8077,-649.6741 2614.8077,-631.873 2614.8077,-616.1439"/>
<polygon fill="#000000" stroke="#000000" points="2618.3078,-615.7387 2614.8077,-605.7387 2611.3078,-615.7388 2618.3078,-615.7387"/>
</g>
<!-- v41 -->
<g id="node43" class="node">
<title>v41</title>
<ellipse fill="#000000" stroke="#000000" cx="2653.8077" cy="-747.6" rx="3.6" ry="3.6"/>
<text text-anchor="middle" x="2619.7077" y="-755" font-family="Times,serif" font-size="14.00" fill="#000000">Channel.of</text>
</g>
<!-- v41&#45;&gt;v42 -->
<g id="edge49" class="edge">
<title>v41&#45;&gt;v42</title>
<path fill="none" stroke="#000000" d="M2652.2497,-743.8695C2648.7084,-735.4175 2639.7459,-714.1762 2631.8077,-696.6 2628.3084,-688.852 2624.2473,-680.2388 2620.972,-673.3803"/>
<polygon fill="#000000" stroke="#000000" points="2623.9284,-671.4521 2616.4398,-663.9573 2617.6201,-674.4862 2623.9284,-671.4521"/>
<text text-anchor="middle" x="2655.8077" y="-700.4" font-family="Times,serif" font-size="14.00" fill="#000000">val_ch</text>
</g>
<!-- v44 -->
<g id="node45" class="node">
<title>v44</title>
<ellipse fill="#000000" stroke="#000000" cx="2614.8077" cy="-500.6" rx="1.8" ry="1.8"/>
</g>
<!-- v43&#45;&gt;v44 -->
<g id="edge51" class="edge">
<title>v43&#45;&gt;v44</title>
<path fill="none" stroke="#000000" d="M2614.8077,-569.5735C2614.8077,-552.502 2614.8077,-527.3487 2614.8077,-512.6035"/>
<polygon fill="#000000" stroke="#000000" points="2618.3078,-512.5185 2614.8077,-502.5185 2611.3078,-512.5185 2618.3078,-512.5185"/>
</g>
</g>
</svg>
