<?xml version="1.0" encoding="UTF-8" standalone="no"?>
<!DOCTYPE svg PUBLIC "-//W3C//DTD SVG 1.1//EN"
 "http://www.w3.org/Graphics/SVG/1.1/DTD/svg11.dtd">
<!-- Generated by graphviz version 2.40.1 (0)
 -->
<!-- Title: flowchart Pages: 1 -->
<svg width="4045pt" height="802pt"
 viewBox="0.00 0.00 4045.12 802.20" xmlns="http://www.w3.org/2000/svg" xmlns:xlink="http://www.w3.org/1999/xlink">
<g id="graph0" class="graph" transform="scale(1 1) rotate(0) translate(4 798.2)">
<title>flowchart</title>
<polygon fill="#ffffff" stroke="transparent" points="-4,4 -4,-798.2 4041.1228,-798.2 4041.1228,4 -4,4"/>
<!-- v0 -->
<g id="node1" class="node">
<title>v0</title>
<ellipse fill="none" stroke="#000000" cx="1936.6828" cy="-688.6" rx="131.8766" ry="18"/>
<text text-anchor="middle" x="1936.6828" y="-684.9" font-family="Times,serif" font-size="14.00" fill="#000000">GET_GENE_ID_DICT:dl_human</text>
</g>
<!-- v1 -->
<g id="node2" class="node">
<title>v1</title>
<ellipse fill="none" stroke="#000000" cx="1354.6828" cy="-601.6" rx="178.9686" ry="18"/>
<text text-anchor="middle" x="1354.6828" y="-597.9" font-family="Times,serif" font-size="14.00" fill="#000000">GET_GENE_ID_DICT:uniprotac_to_ensp_dict</text>
</g>
<!-- v0&#45;&gt;v1 -->
<g id="edge1" class="edge">
<title>v0&#45;&gt;v1</title>
<path fill="none" stroke="#000000" d="M1847.656,-675.2919C1744.9837,-659.9439 1576.1197,-634.7014 1465.1518,-618.1134"/>
<polygon fill="#000000" stroke="#000000" points="1465.3396,-614.6027 1454.932,-616.5857 1464.3047,-621.5257 1465.3396,-614.6027"/>
<text text-anchor="middle" x="1722.6828" y="-641.4" font-family="Times,serif" font-size="14.00" fill="#000000">uniprot_id_dict</text>
</g>
<!-- v4 -->
<g id="node4" class="node">
<title>v4</title>
<ellipse fill="none" stroke="#000000" cx="2053.6828" cy="-427.6" rx="196.8651" ry="18"/>
<text text-anchor="middle" x="2053.6828" y="-423.9" font-family="Times,serif" font-size="14.00" fill="#000000">Gene_Synonym__2__Gene_Name:IDa2uniprot2IDb</text>
</g>
<!-- v0&#45;&gt;v4 -->
<g id="edge3" class="edge">
<title>v0&#45;&gt;v4</title>
<path fill="none" stroke="#000000" d="M1954.637,-670.7561C1967.6599,-657.3254 1985.2687,-638.1213 1998.6828,-619.6 2024.8423,-583.4805 2033.2914,-574.4574 2048.6828,-532.6 2059.377,-503.5168 2060.8193,-494.5133 2058.6828,-463.6 2058.5077,-461.0663 2058.2641,-458.4394 2057.9777,-455.8112"/>
<polygon fill="#000000" stroke="#000000" points="2061.4466,-455.3437 2056.7169,-445.8632 2054.5021,-456.2239 2061.4466,-455.3437"/>
<text text-anchor="middle" x="2083.6828" y="-554.4" font-family="Times,serif" font-size="14.00" fill="#000000">uniprot_id_dict</text>
</g>
<!-- v14 -->
<g id="node3" class="node">
<title>v14</title>
<ellipse fill="none" stroke="#000000" cx="1154.6828" cy="-514.6" rx="273.7515" ry="18"/>
<text text-anchor="middle" x="1154.6828" y="-510.9" font-family="Times,serif" font-size="14.00" fill="#000000">HERNANDEZ2017_DATASET:hernandez2017_rnk_translate1col_w_dict</text>
</g>
<!-- v1&#45;&gt;v14 -->
<g id="edge2" class="edge">
<title>v1&#45;&gt;v14</title>
<path fill="none" stroke="#000000" d="M1320.0472,-583.8048C1299.752,-573.6231 1273.502,-560.8731 1249.6828,-550.6 1238.1815,-545.6395 1225.7507,-540.6609 1213.7911,-536.0558"/>
<polygon fill="#000000" stroke="#000000" points="1214.9184,-532.7399 1204.3275,-532.4502 1212.4261,-539.2813 1214.9184,-532.7399"/>
<text text-anchor="middle" x="1341.6828" y="-554.4" font-family="Times,serif" font-size="14.00" fill="#000000">uniprotac2ENSP_dict</text>
</g>
<!-- v15 -->
<g id="node19" class="node">
<title>v15</title>
<ellipse fill="none" stroke="#000000" cx="1214.6828" cy="-427.6" rx="231.259" ry="18"/>
<text text-anchor="middle" x="1214.6828" y="-423.9" font-family="Times,serif" font-size="14.00" fill="#000000">HERNANDEZ2017_DATASET:hernandez2017_make_seqrnk</text>
</g>
<!-- v14&#45;&gt;v15 -->
<g id="edge19" class="edge">
<title>v14&#45;&gt;v15</title>
<path fill="none" stroke="#000000" d="M1167.1149,-496.5735C1175.562,-484.3252 1186.8783,-467.9165 1196.3542,-454.1766"/>
<polygon fill="#000000" stroke="#000000" points="1199.4706,-455.8226 1202.2667,-445.6034 1193.7081,-451.8484 1199.4706,-455.8226"/>
</g>
<!-- v16 -->
<g id="node21" class="node">
<title>v16</title>
<ellipse fill="none" stroke="#000000" cx="666.6828" cy="-427.6" rx="261.0538" ry="18"/>
<text text-anchor="middle" x="666.6828" y="-423.9" font-family="Times,serif" font-size="14.00" fill="#000000">HERNANDEZ2017_DATASET:hernandez2017_make_uniprot_seqrnk</text>
</g>
<!-- v14&#45;&gt;v16 -->
<g id="edge21" class="edge">
<title>v14&#45;&gt;v16</title>
<path fill="none" stroke="#000000" d="M1053.5908,-497.8529C1018.1763,-491.8962 978.1494,-485.0627 941.6828,-478.6 883.4027,-468.2714 818.2753,-456.2161 766.0343,-446.4202"/>
<polygon fill="#000000" stroke="#000000" points="766.5736,-442.9603 756.0995,-444.5553 765.2822,-449.8402 766.5736,-442.9603"/>
</g>
<!-- v17 -->
<g id="node23" class="node">
<title>v17</title>
<ellipse fill="none" stroke="#000000" cx="935.6828" cy="-373.6" rx="219.8612" ry="18"/>
<text text-anchor="middle" x="935.6828" y="-369.9" font-family="Times,serif" font-size="14.00" fill="#000000">HERNANDEZ2017_DATASET:hernandez2017_make_rnk</text>
</g>
<!-- v14&#45;&gt;v17 -->
<g id="edge23" class="edge">
<title>v14&#45;&gt;v17</title>
<path fill="none" stroke="#000000" d="M1075.0924,-497.272C1041.172,-486.7647 1002.9835,-470.4324 974.6828,-445.6 961.3124,-433.8682 951.6952,-416.4042 945.3564,-401.6141"/>
<polygon fill="#000000" stroke="#000000" points="948.4403,-399.8983 941.4859,-391.9053 941.9379,-402.4905 948.4403,-399.8983"/>
</g>
<!-- v8 -->
<g id="node7" class="node">
<title>v8</title>
<ellipse fill="none" stroke="#000000" cx="1474.6828" cy="-319.6" rx="124.5782" ry="18"/>
<text text-anchor="middle" x="1474.6828" y="-315.9" font-family="Times,serif" font-size="14.00" fill="#000000">PSP:translate_kin_phos_clusters</text>
</g>
<!-- v4&#45;&gt;v8 -->
<g id="edge6" class="edge">
<title>v4&#45;&gt;v8</title>
<path fill="none" stroke="#000000" d="M1905.0418,-415.7746C1856.4426,-410.3136 1802.4374,-402.5327 1753.6828,-391.6 1704.3124,-380.5292 1694.518,-368.8333 1645.6828,-355.6 1618.5602,-348.2504 1588.6785,-341.5063 1561.5851,-335.8919"/>
<polygon fill="#000000" stroke="#000000" points="1562.2387,-332.4532 1551.7397,-333.8755 1560.8341,-339.3108 1562.2387,-332.4532"/>
<text text-anchor="middle" x="1848.6828" y="-369.9" font-family="Times,serif" font-size="14.00" fill="#000000">gene_synonym_2_gene_name_dict</text>
</g>
<!-- v9 -->
<g id="node12" class="node">
<title>v9</title>
<ellipse fill="none" stroke="#000000" cx="2568.6828" cy="-319.6" rx="213.6622" ry="18"/>
<text text-anchor="middle" x="2568.6828" y="-315.9" font-family="Times,serif" font-size="14.00" fill="#000000">KINEX_SCORING_MATRIX:get_kinex_scoring_matrix</text>
</g>
<!-- v4&#45;&gt;v9 -->
<g id="edge11" class="edge">
<title>v4&#45;&gt;v9</title>
<path fill="none" stroke="#000000" d="M2144.1304,-411.5361C2176.8117,-405.5418 2213.9564,-398.5092 2247.6828,-391.6 2329.2422,-374.8918 2421.9957,-353.8672 2486.7523,-338.8588"/>
<polygon fill="#000000" stroke="#000000" points="2487.5489,-342.2671 2496.4985,-336.5965 2485.966,-335.4484 2487.5489,-342.2671"/>
<text text-anchor="middle" x="2501.6828" y="-369.9" font-family="Times,serif" font-size="14.00" fill="#000000">gene_synonym_2_gene_name_dict</text>
</g>
<!-- v26 -->
<g id="node13" class="node">
<title>v26</title>
<ellipse fill="none" stroke="#000000" cx="2584.6828" cy="-232.6" rx="150.5735" ry="18"/>
<text text-anchor="middle" x="2584.6828" y="-228.9" font-family="Times,serif" font-size="14.00" fill="#000000">KINEX_HERNANDEZ2017:run_kinex</text>
</g>
<!-- v4&#45;&gt;v26 -->
<g id="edge34" class="edge">
<title>v4&#45;&gt;v26</title>
<path fill="none" stroke="#000000" d="M2231.9489,-419.906C2363.9298,-413.447 2532.217,-403.3967 2600.6828,-391.6 2687.6182,-376.621 2738.4619,-407.9538 2791.6828,-337.6 2826.6135,-291.4244 2757.125,-264.0054 2689.4269,-248.8343"/>
<polygon fill="#000000" stroke="#000000" points="2689.9776,-245.3726 2679.4643,-246.684 2688.5008,-252.2151 2689.9776,-245.3726"/>
<text text-anchor="middle" x="2896.6828" y="-315.9" font-family="Times,serif" font-size="14.00" fill="#000000">gene_synonym_2_gene_name_dict</text>
</g>
<!-- v13 -->
<g id="node16" class="node">
<title>v13</title>
<ellipse fill="none" stroke="#000000" cx="3197.6828" cy="-319.6" rx="170.8697" ry="18"/>
<text text-anchor="middle" x="3197.6828" y="-315.9" font-family="Times,serif" font-size="14.00" fill="#000000">HERNANDEZ2017_DATASET:translate2col</text>
</g>
<!-- v4&#45;&gt;v13 -->
<g id="edge17" class="edge">
<title>v4&#45;&gt;v13</title>
<path fill="none" stroke="#000000" d="M2244.7827,-423.115C2466.3794,-417.2626 2804.7093,-406.0424 2829.6828,-391.6 2846.119,-382.0949 2836.5273,-365.5746 2852.6828,-355.6 2855.022,-354.1558 2967.0285,-342.6377 3062.7826,-333.0128"/>
<polygon fill="#000000" stroke="#000000" points="3063.2817,-336.4803 3072.8819,-331.9986 3062.5822,-329.5154 3063.2817,-336.4803"/>
<text text-anchor="middle" x="2947.6828" y="-369.9" font-family="Times,serif" font-size="14.00" fill="#000000">gene_synonym_2_gene_name_dict</text>
</g>
<!-- v24 -->
<g id="node27" class="node">
<title>v24</title>
<ellipse fill="none" stroke="#000000" cx="1635.6828" cy="-232.6" rx="198.7648" ry="18"/>
<text text-anchor="middle" x="1635.6828" y="-228.9" font-family="Times,serif" font-size="14.00" fill="#000000">PHOSX_HERNANDEZ2017:translate_phosx_output</text>
</g>
<!-- v4&#45;&gt;v24 -->
<g id="edge30" class="edge">
<title>v4&#45;&gt;v24</title>
<path fill="none" stroke="#000000" d="M2033.5032,-409.6629C2012.6518,-392.3368 1978.3498,-367.0823 1943.6828,-355.6 1912.0884,-345.1353 1668.5137,-360.8337 1644.6828,-337.6 1624.7125,-318.1301 1625.3345,-284.616 1629.1057,-260.6874"/>
<polygon fill="#000000" stroke="#000000" points="1632.5629,-261.2389 1630.9302,-250.7706 1625.6784,-259.9722 1632.5629,-261.2389"/>
<text text-anchor="middle" x="1739.6828" y="-315.9" font-family="Times,serif" font-size="14.00" fill="#000000">gene_synonym_2_gene_name_dict</text>
</g>
<!-- v33 -->
<g id="node35" class="node">
<title>v33</title>
<ellipse fill="none" stroke="#000000" cx="815.6828" cy="-232.6" rx="194.1657" ry="18"/>
<text text-anchor="middle" x="815.6828" y="-228.9" font-family="Times,serif" font-size="14.00" fill="#000000">KSTAR_HERNANDEZ2017:translate_kstar_output</text>
</g>
<!-- v4&#45;&gt;v33 -->
<g id="edge43" class="edge">
<title>v4&#45;&gt;v33</title>
<path fill="none" stroke="#000000" d="M1881.3698,-418.8231C1779.6904,-412.5177 1666.8154,-403.1141 1645.6828,-391.6 1627.8835,-381.9021 1635.7892,-364.7116 1617.6828,-355.6 1578.3191,-335.7912 856.8059,-367.7662 824.6828,-337.6 804.3516,-318.5073 805.0425,-284.9211 808.9285,-260.8725"/>
<polygon fill="#000000" stroke="#000000" points="812.3952,-261.3756 810.8058,-250.9007 805.516,-260.0805 812.3952,-261.3756"/>
<text text-anchor="middle" x="919.6828" y="-315.9" font-family="Times,serif" font-size="14.00" fill="#000000">gene_synonym_2_gene_name_dict</text>
</g>
<!-- v38 -->
<g id="node40" class="node">
<title>v38</title>
<ellipse fill="none" stroke="#000000" cx="2053.6828" cy="-319.6" rx="209.8628" ry="18"/>
<text text-anchor="middle" x="2053.6828" y="-315.9" font-family="Times,serif" font-size="14.00" fill="#000000">PTMSEA_HERNANDEZ2017:translate_ptmsea_output</text>
</g>
<!-- v4&#45;&gt;v38 -->
<g id="edge49" class="edge">
<title>v4&#45;&gt;v38</title>
<path fill="none" stroke="#000000" d="M2053.6828,-409.2793C2053.6828,-392.421 2053.6828,-367.1651 2053.6828,-347.747"/>
<polygon fill="#000000" stroke="#000000" points="2057.1829,-347.6501 2053.6828,-337.6502 2050.1829,-347.6502 2057.1829,-347.6501"/>
<text text-anchor="middle" x="2148.6828" y="-369.9" font-family="Times,serif" font-size="14.00" fill="#000000">gene_synonym_2_gene_name_dict</text>
</g>
<!-- v43 -->
<g id="node45" class="node">
<title>v43</title>
<ellipse fill="none" stroke="#000000" cx="3591.6828" cy="-319.6" rx="205.2636" ry="18"/>
<text text-anchor="middle" x="3591.6828" y="-315.9" font-family="Times,serif" font-size="14.00" fill="#000000">ZSCORE_HERNANDEZ2017:translate_zscore_output</text>
</g>
<!-- v4&#45;&gt;v43 -->
<g id="edge55" class="edge">
<title>v4&#45;&gt;v43</title>
<path fill="none" stroke="#000000" d="M2243.5868,-422.8157C2486.2989,-416.3299 2892.9741,-404.1138 3042.6828,-391.6 3195.9589,-378.788 3372.1002,-353.8648 3482.6473,-336.9748"/>
<polygon fill="#000000" stroke="#000000" points="3483.4522,-340.3924 3492.8061,-335.4171 3482.3912,-333.4733 3483.4522,-340.3924"/>
<text text-anchor="middle" x="3437.6828" y="-369.9" font-family="Times,serif" font-size="14.00" fill="#000000">gene_synonym_2_gene_name_dict</text>
</g>
<!-- v2 -->
<g id="node5" class="node">
<title>v2</title>
<ellipse fill="#000000" stroke="#000000" cx="1991.6828" cy="-514.6" rx="3.6" ry="3.6"/>
</g>
<!-- v2&#45;&gt;v4 -->
<g id="edge4" class="edge">
<title>v2&#45;&gt;v4</title>
<path fill="none" stroke="#000000" d="M1992.2928,-510.8216C1993.8775,-501.9021 1998.7835,-479.1223 2009.6828,-463.6 2012.4443,-459.6673 2015.7468,-455.9283 2019.2848,-452.4516"/>
<polygon fill="#000000" stroke="#000000" points="2021.6885,-454.9971 2026.7797,-445.7056 2017.0055,-449.7942 2021.6885,-454.9971"/>
<text text-anchor="middle" x="2020.1828" y="-467.4" font-family="Times,serif" font-size="14.00" fill="#000000">IDa</text>
</g>
<!-- v3 -->
<g id="node6" class="node">
<title>v3</title>
<ellipse fill="#000000" stroke="#000000" cx="2035.6828" cy="-514.6" rx="3.6" ry="3.6"/>
</g>
<!-- v3&#45;&gt;v4 -->
<g id="edge5" class="edge">
<title>v3&#45;&gt;v4</title>
<path fill="none" stroke="#000000" d="M2035.2248,-510.8218C2034.3029,-502.2721 2032.6382,-480.8437 2036.6828,-463.6 2037.3487,-460.7611 2038.2568,-457.8803 2039.3092,-455.0483"/>
<polygon fill="#000000" stroke="#000000" points="2042.576,-456.3107 2043.3007,-445.7407 2036.1426,-453.5517 2042.576,-456.3107"/>
<text text-anchor="middle" x="2047.6828" y="-467.4" font-family="Times,serif" font-size="14.00" fill="#000000">IDb</text>
</g>
<!-- v28 -->
<g id="node11" class="node">
<title>v28</title>
<ellipse fill="none" stroke="#000000" cx="1232.6828" cy="-232.6" rx="142.9746" ry="18"/>
<text text-anchor="middle" x="1232.6828" y="-228.9" font-family="Times,serif" font-size="14.00" fill="#000000">GSEA_HERNANDEZ2017:run_gsea</text>
</g>
<!-- v8&#45;&gt;v28 -->
<g id="edge10" class="edge">
<title>v8&#45;&gt;v28</title>
<path fill="none" stroke="#000000" d="M1428.0228,-302.8255C1388.5217,-288.6247 1331.763,-268.2197 1289.5979,-253.0612"/>
<polygon fill="#000000" stroke="#000000" points="1290.6198,-249.7093 1280.0253,-249.6198 1288.2516,-256.2966 1290.6198,-249.7093"/>
<text text-anchor="middle" x="1426.6828" y="-272.4" font-family="Times,serif" font-size="14.00" fill="#000000">psp_kin_sub_clusters</text>
</g>
<!-- v5 -->
<g id="node8" class="node">
<title>v5</title>
<ellipse fill="#000000" stroke="#000000" cx="1554.6828" cy="-601.6" rx="3.6" ry="3.6"/>
</g>
<!-- v6 -->
<g id="node9" class="node">
<title>v6</title>
<ellipse fill="none" stroke="#000000" cx="1554.6828" cy="-514.6" rx="105.8812" ry="18"/>
<text text-anchor="middle" x="1554.6828" y="-510.9" font-family="Times,serif" font-size="14.00" fill="#000000">PSP:psp_kinase_substrates</text>
</g>
<!-- v5&#45;&gt;v6 -->
<g id="edge7" class="edge">
<title>v5&#45;&gt;v6</title>
<path fill="none" stroke="#000000" d="M1554.6828,-597.8617C1554.6828,-588.445 1554.6828,-563.053 1554.6828,-542.7647"/>
<polygon fill="#000000" stroke="#000000" points="1558.1829,-542.7321 1554.6828,-532.7322 1551.1829,-542.7322 1558.1829,-542.7321"/>
<text text-anchor="middle" x="1639.1828" y="-554.4" font-family="Times,serif" font-size="14.00" fill="#000000">input/psp_kinase_substrates.gz</text>
</g>
<!-- v7 -->
<g id="node10" class="node">
<title>v7</title>
<ellipse fill="none" stroke="#000000" cx="1554.6828" cy="-427.6" rx="90.9839" ry="18"/>
<text text-anchor="middle" x="1554.6828" y="-423.9" font-family="Times,serif" font-size="14.00" fill="#000000">PSP:kin_phos_clusters</text>
</g>
<!-- v6&#45;&gt;v7 -->
<g id="edge8" class="edge">
<title>v6&#45;&gt;v7</title>
<path fill="none" stroke="#000000" d="M1554.6828,-496.5735C1554.6828,-484.7918 1554.6828,-469.1607 1554.6828,-455.7581"/>
<polygon fill="#000000" stroke="#000000" points="1558.1829,-455.6033 1554.6828,-445.6034 1551.1829,-455.6034 1558.1829,-455.6033"/>
</g>
<!-- v7&#45;&gt;v8 -->
<g id="edge9" class="edge">
<title>v7&#45;&gt;v8</title>
<path fill="none" stroke="#000000" d="M1512.0503,-411.5054C1503.1706,-406.367 1494.695,-399.8157 1488.6828,-391.6 1479.574,-379.1527 1475.9506,-362.3659 1474.661,-348.1324"/>
<polygon fill="#000000" stroke="#000000" points="1478.1391,-347.6453 1474.0776,-337.8599 1471.1503,-348.0423 1478.1391,-347.6453"/>
</g>
<!-- v30 -->
<g id="node32" class="node">
<title>v30</title>
<ellipse fill="none" stroke="#000000" cx="1939.6828" cy="-145.6" rx="3.5" ry="3.5"/>
<text text-anchor="middle" x="1917.6828" y="-152.9" font-family="Times,serif" font-size="14.00" fill="#000000">collect</text>
</g>
<!-- v28&#45;&gt;v30 -->
<g id="edge37" class="edge">
<title>v28&#45;&gt;v30</title>
<path fill="none" stroke="#000000" d="M1336.9248,-220.1785C1352.9182,-218.295 1369.2403,-216.3855 1384.6828,-214.6 1585.5084,-191.3794 1636.5736,-192.3476 1836.6828,-163.6 1868.9685,-158.9618 1906.6738,-151.9672 1926.2861,-148.2089"/>
<polygon fill="#000000" stroke="#000000" points="1926.9858,-151.6385 1936.1374,-146.3001 1925.6542,-144.7663 1926.9858,-151.6385"/>
</g>
<!-- v29 -->
<g id="node33" class="node">
<title>v29</title>
<ellipse fill="#000000" stroke="#000000" cx="1962.6828" cy="-145.6" rx="1.8" ry="1.8"/>
</g>
<!-- v28&#45;&gt;v29 -->
<g id="edge38" class="edge">
<title>v28&#45;&gt;v29</title>
<path fill="none" stroke="#000000" d="M1334.4044,-219.8709C1351.1869,-217.9672 1368.4122,-216.1323 1384.6828,-214.6 1510.6342,-202.7385 1844.7775,-231.2439 1951.6828,-163.6 1954.2825,-161.9551 1956.3604,-159.4517 1957.9792,-156.8302"/>
<polygon fill="#000000" stroke="#000000" points="1961.1722,-158.2636 1962.0782,-147.7075 1954.7871,-155.3946 1961.1722,-158.2636"/>
</g>
<!-- v9&#45;&gt;v26 -->
<g id="edge12" class="edge">
<title>v9&#45;&gt;v26</title>
<path fill="none" stroke="#000000" d="M2571.998,-301.5735C2574.1648,-289.7918 2577.0395,-274.1607 2579.5043,-260.7581"/>
<polygon fill="#000000" stroke="#000000" points="2583.0053,-261.0715 2581.3719,-250.6034 2576.1208,-259.8053 2583.0053,-261.0715"/>
<text text-anchor="middle" x="2619.1828" y="-272.4" font-family="Times,serif" font-size="14.00" fill="#000000">scoring_matrix</text>
</g>
<!-- v27 -->
<g id="node31" class="node">
<title>v27</title>
<ellipse fill="none" stroke="#000000" cx="2611.6828" cy="-145.6" rx="3.5" ry="3.5"/>
<text text-anchor="middle" x="2589.6828" y="-152.9" font-family="Times,serif" font-size="14.00" fill="#000000">collect</text>
</g>
<!-- v26&#45;&gt;v27 -->
<g id="edge35" class="edge">
<title>v26&#45;&gt;v27</title>
<path fill="none" stroke="#000000" d="M2590.2772,-214.5735C2595.445,-197.922 2602.999,-173.5813 2607.6141,-158.7103"/>
<polygon fill="#000000" stroke="#000000" points="2610.9622,-159.7301 2610.5836,-149.142 2604.2768,-157.6553 2610.9622,-159.7301"/>
</g>
<!-- v10 -->
<g id="node14" class="node">
<title>v10</title>
<ellipse fill="none" stroke="#000000" cx="3257.6828" cy="-775.6" rx="231.259" ry="18"/>
<text text-anchor="middle" x="3257.6828" y="-771.9" font-family="Times,serif" font-size="14.00" fill="#000000">HERNANDEZ2017_DATASET:parse_hernandez2017_dataset</text>
</g>
<!-- v11 -->
<g id="node15" class="node">
<title>v11</title>
<ellipse fill="none" stroke="#000000" cx="1512.6828" cy="-688.6" rx="3.5" ry="3.5"/>
<text text-anchor="middle" x="1487.6828" y="-695.9" font-family="Times,serif" font-size="14.00" fill="#000000">flatMap</text>
</g>
<!-- v10&#45;&gt;v11 -->
<g id="edge13" class="edge">
<title>v10&#45;&gt;v11</title>
<path fill="none" stroke="#000000" d="M3053.9286,-767.0371C2771.3705,-754.9221 2244.5962,-731.4681 1795.6828,-706.6 1692.1108,-700.8625 1567.3209,-692.3761 1526.401,-689.5524"/>
<polygon fill="#000000" stroke="#000000" points="1526.5699,-686.0558 1516.3519,-688.8561 1526.086,-693.0391 1526.5699,-686.0558"/>
</g>
<!-- v10&#45;&gt;v13 -->
<g id="edge14" class="edge">
<title>v10&#45;&gt;v13</title>
<path fill="none" stroke="#000000" d="M3261.6786,-757.3702C3265.1694,-739.8365 3269.6828,-712.5381 3269.6828,-688.6 3269.6828,-688.6 3269.6828,-688.6 3269.6828,-427.6 3269.6828,-395.0007 3274.1885,-382.4376 3255.6828,-355.6 3252.5292,-351.0265 3248.5859,-346.9209 3244.2478,-343.2652"/>
<polygon fill="#000000" stroke="#000000" points="3246.2016,-340.3558 3236.0981,-337.1668 3242.0077,-345.9604 3246.2016,-340.3558"/>
</g>
<!-- v12 -->
<g id="node17" class="node">
<title>v12</title>
<ellipse fill="none" stroke="#000000" cx="1154.6828" cy="-601.6" rx="3.5" ry="3.5"/>
<text text-anchor="middle" x="1138.6828" y="-608.9" font-family="Times,serif" font-size="14.00" fill="#000000">map</text>
</g>
<!-- v11&#45;&gt;v12 -->
<g id="edge15" class="edge">
<title>v11&#45;&gt;v12</title>
<path fill="none" stroke="#000000" d="M1509.1128,-688.2662C1476.3344,-685.1473 1227.5122,-660.3125 1166.6828,-619.6 1164.5019,-618.1403 1162.6175,-616.1364 1161.0302,-613.9942"/>
<polygon fill="#000000" stroke="#000000" points="1163.9205,-611.9923 1155.9769,-604.9816 1157.8147,-615.4158 1163.9205,-611.9923"/>
</g>
<!-- v19 -->
<g id="node18" class="node">
<title>v19</title>
<ellipse fill="none" stroke="#000000" cx="3720.6828" cy="-232.6" rx="3.5" ry="3.5"/>
<text text-anchor="middle" x="3693.1828" y="-239.9" font-family="Times,serif" font-size="14.00" fill="#000000">combine</text>
</g>
<!-- v13&#45;&gt;v19 -->
<g id="edge18" class="edge">
<title>v13&#45;&gt;v19</title>
<path fill="none" stroke="#000000" d="M3289.3809,-304.3462C3419.5684,-282.6898 3648.6794,-244.5776 3706.9173,-234.8899"/>
<polygon fill="#000000" stroke="#000000" points="3707.792,-238.2925 3717.0821,-233.199 3706.6433,-231.3874 3707.792,-238.2925"/>
<text text-anchor="middle" x="3515.6828" y="-272.4" font-family="Times,serif" font-size="14.00" fill="#000000">metadata</text>
</g>
<!-- v45 -->
<g id="node30" class="node">
<title>v45</title>
<ellipse fill="none" stroke="#000000" cx="1985.6828" cy="-58.6" rx="300.8466" ry="18"/>
<text text-anchor="middle" x="1985.6828" y="-54.9" font-family="Times,serif" font-size="14.00" fill="#000000">BENCHMARK_PHOSX_HERNANDEZ2017:benchmark_phosx_hernandez2017</text>
</g>
<!-- v13&#45;&gt;v45 -->
<g id="edge58" class="edge">
<title>v13&#45;&gt;v45</title>
<path fill="none" stroke="#000000" d="M3138.9166,-302.6849C3053.0951,-278.7379 2888.0736,-235.541 2744.6828,-214.6 2654.5733,-201.4403 1989.0401,-229.9662 1926.6828,-163.6 1905.6485,-141.2134 1914.4719,-120.6923 1930.6828,-94.6 1933.2932,-90.3984 1936.5963,-86.5876 1940.2828,-83.1556"/>
<polygon fill="#000000" stroke="#000000" points="1942.7424,-85.6665 1948.2889,-76.6395 1938.3237,-80.2374 1942.7424,-85.6665"/>
<text text-anchor="middle" x="2077.6828" y="-185.4" font-family="Times,serif" font-size="14.00" fill="#000000">metadata</text>
</g>
<!-- v47 -->
<g id="node48" class="node">
<title>v47</title>
<ellipse fill="none" stroke="#000000" cx="2647.6828" cy="-58.6" rx="343.3392" ry="18"/>
<text text-anchor="middle" x="2647.6828" y="-54.9" font-family="Times,serif" font-size="14.00" fill="#000000">BENCHMARK_PHOSX_HERNANDEZ2017:benchmark_phosx_per_kinase_hernandez2017</text>
</g>
<!-- v13&#45;&gt;v47 -->
<g id="edge66" class="edge">
<title>v13&#45;&gt;v47</title>
<path fill="none" stroke="#000000" d="M3150.3689,-302.2208C3089.6322,-278.1709 2983.4261,-230.0661 2910.6828,-163.6 2883.4736,-138.7388 2895.6408,-114.6006 2864.6828,-94.6 2853.5681,-87.4193 2832.5689,-81.4882 2807.8513,-76.6563"/>
<polygon fill="#000000" stroke="#000000" points="2808.2976,-73.1793 2797.8259,-74.7899 2807.0163,-80.0611 2808.2976,-73.1793"/>
<text text-anchor="middle" x="2975.6828" y="-185.4" font-family="Times,serif" font-size="14.00" fill="#000000">metadata</text>
</g>
<!-- v12&#45;&gt;v14 -->
<g id="edge16" class="edge">
<title>v12&#45;&gt;v14</title>
<path fill="none" stroke="#000000" d="M1154.6828,-597.8617C1154.6828,-588.445 1154.6828,-563.053 1154.6828,-542.7647"/>
<polygon fill="#000000" stroke="#000000" points="1158.1829,-542.7321 1154.6828,-532.7322 1151.1829,-542.7322 1158.1829,-542.7321"/>
<text text-anchor="middle" x="1200.1828" y="-554.4" font-family="Times,serif" font-size="14.00" fill="#000000">untranslated_rnk</text>
</g>
<!-- v20 -->
<g id="node25" class="node">
<title>v20</title>
<ellipse fill="none" stroke="#000000" cx="3720.6828" cy="-145.6" rx="152.1731" ry="18"/>
<text text-anchor="middle" x="3720.6828" y="-141.9" font-family="Times,serif" font-size="14.00" fill="#000000">HERNANDEZ2017_DATASET:publish</text>
</g>
<!-- v19&#45;&gt;v20 -->
<g id="edge26" class="edge">
<title>v19&#45;&gt;v20</title>
<path fill="none" stroke="#000000" d="M3720.6828,-228.8617C3720.6828,-219.445 3720.6828,-194.053 3720.6828,-173.7647"/>
<polygon fill="#000000" stroke="#000000" points="3724.1829,-173.7321 3720.6828,-163.7322 3717.1829,-173.7322 3724.1829,-173.7321"/>
</g>
<!-- v15&#45;&gt;v26 -->
<g id="edge33" class="edge">
<title>v15&#45;&gt;v26</title>
<path fill="none" stroke="#000000" d="M1380.9036,-415.0625C1405.6363,-413.2176 1430.8258,-411.3501 1454.6828,-409.6 1510.454,-405.5088 1656.3596,-417.951 1705.6828,-391.6 1723.5611,-382.0485 1715.6253,-364.8082 1733.6828,-355.6 1787.065,-328.3783 2217.7123,-361.4521 2272.6828,-337.6 2293.4404,-328.5932 2288.9924,-312.7485 2308.6828,-301.6 2357.4393,-273.9945 2417.18,-257.3056 2468.5967,-247.2791"/>
<polygon fill="#000000" stroke="#000000" points="2469.2522,-250.7172 2478.4291,-245.4223 2467.9533,-243.8388 2469.2522,-250.7172"/>
<text text-anchor="middle" x="2327.1828" y="-315.9" font-family="Times,serif" font-size="14.00" fill="#000000">seqrnk</text>
</g>
<!-- v22 -->
<g id="node20" class="node">
<title>v22</title>
<ellipse fill="none" stroke="#000000" cx="1177.6828" cy="-319.6" rx="154.0727" ry="18"/>
<text text-anchor="middle" x="1177.6828" y="-315.9" font-family="Times,serif" font-size="14.00" fill="#000000">PHOSX_HERNANDEZ2017:run_phosx</text>
</g>
<!-- v15&#45;&gt;v22 -->
<g id="edge20" class="edge">
<title>v15&#45;&gt;v22</title>
<path fill="none" stroke="#000000" d="M1208.4063,-409.2793C1202.5773,-392.2649 1193.8178,-366.6967 1187.1415,-347.2091"/>
<polygon fill="#000000" stroke="#000000" points="1190.4188,-345.976 1183.8667,-337.6502 1183.7967,-348.2448 1190.4188,-345.976"/>
<text text-anchor="middle" x="1220.1828" y="-369.9" font-family="Times,serif" font-size="14.00" fill="#000000">seqrnk</text>
</g>
<!-- v22&#45;&gt;v24 -->
<g id="edge28" class="edge">
<title>v22&#45;&gt;v24</title>
<path fill="none" stroke="#000000" d="M1289.6586,-307.2193C1374.73,-297.7198 1478.7972,-285.8584 1488.6828,-283.6 1520.8384,-276.2541 1555.7618,-264.3134 1583.4974,-253.8321"/>
<polygon fill="#000000" stroke="#000000" points="1584.9052,-257.0409 1592.9917,-250.1955 1582.4014,-250.504 1584.9052,-257.0409"/>
<text text-anchor="middle" x="1575.6828" y="-272.4" font-family="Times,serif" font-size="14.00" fill="#000000">phosx_output</text>
</g>
<!-- v23 -->
<g id="node28" class="node">
<title>v23</title>
<ellipse fill="#000000" stroke="#000000" cx="1395.6828" cy="-232.6" rx="1.8" ry="1.8"/>
</g>
<!-- v22&#45;&gt;v23 -->
<g id="edge29" class="edge">
<title>v22&#45;&gt;v23</title>
<path fill="none" stroke="#000000" d="M1265.0979,-304.7418C1304.7658,-294.6162 1350.3685,-277.8975 1384.6828,-250.6 1387.0043,-248.7532 1388.958,-246.2731 1390.5442,-243.7452"/>
<polygon fill="#000000" stroke="#000000" points="1393.7698,-245.1154 1394.9958,-234.5917 1387.4747,-242.0539 1393.7698,-245.1154"/>
</g>
<!-- v32 -->
<g id="node22" class="node">
<title>v32</title>
<ellipse fill="none" stroke="#000000" cx="470.6828" cy="-319.6" rx="149.4735" ry="18"/>
<text text-anchor="middle" x="470.6828" y="-315.9" font-family="Times,serif" font-size="14.00" fill="#000000">KSTAR_HERNANDEZ2017:run_kstar</text>
</g>
<!-- v16&#45;&gt;v32 -->
<g id="edge22" class="edge">
<title>v16&#45;&gt;v32</title>
<path fill="none" stroke="#000000" d="M633.8768,-409.5232C600.2215,-390.9785 547.7924,-362.089 511.4821,-342.0813"/>
<polygon fill="#000000" stroke="#000000" points="513.0667,-338.9583 502.6192,-337.1976 509.6885,-345.0891 513.0667,-338.9583"/>
<text text-anchor="middle" x="630.6828" y="-369.9" font-family="Times,serif" font-size="14.00" fill="#000000">uniprot_rnk</text>
</g>
<!-- v32&#45;&gt;v33 -->
<g id="edge42" class="edge">
<title>v32&#45;&gt;v33</title>
<path fill="none" stroke="#000000" d="M535.17,-303.338C592.8106,-288.8026 677.3748,-267.4777 738.5737,-252.0449"/>
<polygon fill="#000000" stroke="#000000" points="739.728,-255.3635 748.5686,-249.5244 738.0163,-248.576 739.728,-255.3635"/>
</g>
<!-- v17&#45;&gt;v28 -->
<g id="edge24" class="edge">
<title>v17&#45;&gt;v28</title>
<path fill="none" stroke="#000000" d="M820.5431,-358.2337C799.341,-353.0653 781.6666,-346.3178 774.6828,-337.6 764.6794,-325.1128 764.2458,-313.7272 774.6828,-301.6 796.0206,-276.8068 975.2701,-255.6549 1103.0673,-243.532"/>
<polygon fill="#000000" stroke="#000000" points="1103.7041,-246.9877 1113.3327,-242.5671 1103.049,-240.0184 1103.7041,-246.9877"/>
<text text-anchor="middle" x="784.1828" y="-315.9" font-family="Times,serif" font-size="14.00" fill="#000000">rnk</text>
</g>
<!-- v18 -->
<g id="node24" class="node">
<title>v18</title>
<ellipse fill="#000000" stroke="#000000" cx="3818.6828" cy="-319.6" rx="3.6" ry="3.6"/>
<text text-anchor="middle" x="3845.5828" y="-327" font-family="Times,serif" font-size="14.00" fill="#000000">Channel.of</text>
</g>
<!-- v18&#45;&gt;v19 -->
<g id="edge25" class="edge">
<title>v18&#45;&gt;v19</title>
<path fill="none" stroke="#000000" d="M3816.7074,-316.3498C3814.3397,-312.5877 3810.1312,-306.3065 3805.6828,-301.6 3782.113,-276.6622 3749.515,-252.5825 3732.3435,-240.5524"/>
<polygon fill="#000000" stroke="#000000" points="3734.0865,-237.5032 3723.8641,-234.7191 3730.1191,-243.2704 3734.0865,-237.5032"/>
</g>
<!-- v21 -->
<g id="node26" class="node">
<title>v21</title>
<ellipse fill="#000000" stroke="#000000" cx="3720.6828" cy="-58.6" rx="1.8" ry="1.8"/>
</g>
<!-- v20&#45;&gt;v21 -->
<g id="edge27" class="edge">
<title>v20&#45;&gt;v21</title>
<path fill="none" stroke="#000000" d="M3720.6828,-127.5735C3720.6828,-110.502 3720.6828,-85.3487 3720.6828,-70.6035"/>
<polygon fill="#000000" stroke="#000000" points="3724.1829,-70.5185 3720.6828,-60.5185 3717.1829,-70.5185 3724.1829,-70.5185"/>
</g>
<!-- v25 -->
<g id="node29" class="node">
<title>v25</title>
<ellipse fill="none" stroke="#000000" cx="2029.6828" cy="-145.6" rx="3.5" ry="3.5"/>
<text text-anchor="middle" x="2007.6828" y="-152.9" font-family="Times,serif" font-size="14.00" fill="#000000">collect</text>
</g>
<!-- v24&#45;&gt;v25 -->
<g id="edge31" class="edge">
<title>v24&#45;&gt;v25</title>
<path fill="none" stroke="#000000" d="M1812.4904,-224.3472C1879.5608,-219.0466 1946.9322,-210.4492 1976.6828,-196.6 1995.8567,-187.6744 2012.405,-168.9508 2021.6995,-156.8433"/>
<polygon fill="#000000" stroke="#000000" points="2024.6505,-158.7362 2027.699,-148.5894 2018.9882,-154.6204 2024.6505,-158.7362"/>
</g>
<!-- v25&#45;&gt;v45 -->
<g id="edge32" class="edge">
<title>v25&#45;&gt;v45</title>
<path fill="none" stroke="#000000" d="M2028.4483,-142.3042C2025.3285,-134.0816 2016.73,-112.0674 2007.6828,-94.6 2006.1332,-91.6082 2004.4301,-88.5291 2002.6788,-85.4909"/>
<polygon fill="#000000" stroke="#000000" points="2005.5173,-83.4176 1997.3853,-76.6264 1999.5074,-87.0065 2005.5173,-83.4176"/>
<text text-anchor="middle" x="2051.6828" y="-98.4" font-family="Times,serif" font-size="14.00" fill="#000000">phosx_output</text>
</g>
<!-- v25&#45;&gt;v47 -->
<g id="edge60" class="edge">
<title>v25&#45;&gt;v47</title>
<path fill="none" stroke="#000000" d="M2033.2219,-145.4521C2065.7315,-144.0625 2312.8285,-132.8285 2382.6828,-109.6 2394.9785,-105.5113 2395.4872,-98.978 2407.6828,-94.6 2425.2923,-88.2785 2459.5695,-82.0103 2496.8299,-76.5192"/>
<polygon fill="#000000" stroke="#000000" points="2497.4843,-79.9611 2506.8806,-75.0663 2496.4827,-73.0331 2497.4843,-79.9611"/>
<text text-anchor="middle" x="2444.6828" y="-98.4" font-family="Times,serif" font-size="14.00" fill="#000000">phosx_output</text>
</g>
<!-- v46 -->
<g id="node47" class="node">
<title>v46</title>
<ellipse fill="#000000" stroke="#000000" cx="1985.6828" cy="-1.8" rx="1.8" ry="1.8"/>
</g>
<!-- v45&#45;&gt;v46 -->
<g id="edge59" class="edge">
<title>v45&#45;&gt;v46</title>
<path fill="none" stroke="#000000" d="M1985.6828,-40.3155C1985.6828,-31.6139 1985.6828,-21.4551 1985.6828,-13.756"/>
<polygon fill="#000000" stroke="#000000" points="1989.1829,-13.6036 1985.6828,-3.6036 1982.1829,-13.6037 1989.1829,-13.6036"/>
</g>
<!-- v27&#45;&gt;v45 -->
<g id="edge36" class="edge">
<title>v27&#45;&gt;v45</title>
<path fill="none" stroke="#000000" d="M2611.3846,-142.108C2610.3645,-132.5862 2606.1049,-106.1153 2589.6828,-94.6 2588.6781,-93.8955 2382.801,-81.7331 2211.7132,-71.7375"/>
<polygon fill="#000000" stroke="#000000" points="2211.7193,-68.2319 2201.5322,-71.1428 2211.311,-75.22 2211.7193,-68.2319"/>
<text text-anchor="middle" x="2638.1828" y="-98.4" font-family="Times,serif" font-size="14.00" fill="#000000">kinex_output</text>
</g>
<!-- v27&#45;&gt;v47 -->
<g id="edge62" class="edge">
<title>v27&#45;&gt;v47</title>
<path fill="none" stroke="#000000" d="M2615.3251,-145.4307C2638.0848,-144.2904 2760.509,-136.9281 2782.6828,-109.6 2793.0079,-96.8749 2789.2446,-87.3231 2777.918,-80.1536"/>
<polygon fill="#000000" stroke="#000000" points="2779.4445,-77.0032 2768.9483,-75.5611 2776.2543,-83.234 2779.4445,-77.0032"/>
<text text-anchor="middle" x="2825.1828" y="-98.4" font-family="Times,serif" font-size="14.00" fill="#000000">kinex_output</text>
</g>
<!-- v30&#45;&gt;v45 -->
<g id="edge39" class="edge">
<title>v30&#45;&gt;v45</title>
<path fill="none" stroke="#000000" d="M1938.4681,-142.1434C1935.6687,-133.5538 1929.5988,-110.768 1937.6828,-94.6 1939.6219,-90.7218 1942.1994,-87.153 1945.1565,-83.8956"/>
<polygon fill="#000000" stroke="#000000" points="1947.745,-86.2656 1952.6234,-76.8607 1942.9448,-81.1706 1947.745,-86.2656"/>
<text text-anchor="middle" x="1970.6828" y="-98.4" font-family="Times,serif" font-size="14.00" fill="#000000">gsea_output</text>
</g>
<!-- v30&#45;&gt;v47 -->
<g id="edge61" class="edge">
<title>v30&#45;&gt;v47</title>
<path fill="none" stroke="#000000" d="M1940.9088,-142.1094C1942.6043,-137.8621 1946.1033,-130.8558 1951.6828,-127.6 1998.6422,-100.1981 2145.0115,-129.3097 2195.6828,-109.6 2205.7098,-105.6998 2204.6741,-98.5469 2214.6828,-94.6 2243.5571,-83.2136 2298.6122,-75.4277 2360.0322,-70.104"/>
<polygon fill="#000000" stroke="#000000" points="2360.6739,-73.5625 2370.3458,-69.2376 2360.0878,-66.5871 2360.6739,-73.5625"/>
<text text-anchor="middle" x="2247.6828" y="-98.4" font-family="Times,serif" font-size="14.00" fill="#000000">gsea_output</text>
</g>
<!-- v31 -->
<g id="node34" class="node">
<title>v31</title>
<ellipse fill="none" stroke="#000000" cx="193.6828" cy="-427.6" rx="193.8658" ry="18"/>
<text text-anchor="middle" x="193.6828" y="-423.9" font-family="Times,serif" font-size="14.00" fill="#000000">KSTAR_HERNANDEZ2017:make_kstar_networks</text>
</g>
<!-- v31&#45;&gt;v32 -->
<g id="edge40" class="edge">
<title>v31&#45;&gt;v32</title>
<path fill="none" stroke="#000000" d="M233.96,-409.8869C280.8737,-390.8059 358.5706,-360.4743 412.1299,-340.3054"/>
<polygon fill="#000000" stroke="#000000" points="413.3719,-343.5778 421.5043,-336.7871 410.9121,-337.0241 413.3719,-343.5778"/>
</g>
<!-- v31&#45;&gt;v32 -->
<g id="edge41" class="edge">
<title>v31&#45;&gt;v32</title>
<path fill="none" stroke="#000000" d="M243.6233,-410.1279C294.133,-391.2272 371.5594,-361.087 421.7162,-340.834"/>
<polygon fill="#000000" stroke="#000000" points="423.1066,-344.0471 431.0596,-337.047 420.4772,-337.5597 423.1066,-344.0471"/>
</g>
<!-- v34 -->
<g id="node36" class="node">
<title>v34</title>
<ellipse fill="none" stroke="#000000" cx="1824.6828" cy="-145.6" rx="3.5" ry="3.5"/>
<text text-anchor="middle" x="1802.6828" y="-152.9" font-family="Times,serif" font-size="14.00" fill="#000000">collect</text>
</g>
<!-- v33&#45;&gt;v34 -->
<g id="edge44" class="edge">
<title>v33&#45;&gt;v34</title>
<path fill="none" stroke="#000000" d="M958.1078,-220.3195C1211.0345,-198.5112 1720.5794,-154.5762 1810.8542,-146.7924"/>
<polygon fill="#000000" stroke="#000000" points="1811.2342,-150.2727 1820.8965,-145.9265 1810.6327,-143.2986 1811.2342,-150.2727"/>
</g>
<!-- v34&#45;&gt;v45 -->
<g id="edge45" class="edge">
<title>v34&#45;&gt;v45</title>
<path fill="none" stroke="#000000" d="M1823.4622,-142.1409C1820.5293,-133.1443 1814.1474,-108.7331 1825.6828,-94.6 1831.0364,-88.0409 1842.5378,-82.5864 1857.0416,-78.0773"/>
<polygon fill="#000000" stroke="#000000" points="1858.3133,-81.3543 1866.9718,-75.2486 1856.3955,-74.6221 1858.3133,-81.3543"/>
<text text-anchor="middle" x="1859.6828" y="-98.4" font-family="Times,serif" font-size="14.00" fill="#000000">kstar_output</text>
</g>
<!-- v34&#45;&gt;v47 -->
<g id="edge63" class="edge">
<title>v34&#45;&gt;v47</title>
<path fill="none" stroke="#000000" d="M1828.1926,-144.893C1841.195,-142.2923 1887.8731,-133.1223 1926.6828,-127.6 2000.153,-117.1459 2021.3491,-130.0611 2092.6828,-109.6 2107.3955,-105.3799 2108.8899,-98.5294 2123.6828,-94.6 2150.792,-87.3992 2272.8885,-78.804 2392.4026,-71.8183"/>
<polygon fill="#000000" stroke="#000000" points="2392.6938,-75.3074 2402.4738,-71.233 2392.2876,-68.3192 2392.6938,-75.3074"/>
<text text-anchor="middle" x="2157.6828" y="-98.4" font-family="Times,serif" font-size="14.00" fill="#000000">kstar_output</text>
</g>
<!-- v35 -->
<g id="node37" class="node">
<title>v35</title>
<ellipse fill="none" stroke="#000000" cx="1782.6828" cy="-601.6" rx="206.8635" ry="18"/>
<text text-anchor="middle" x="1782.6828" y="-597.9" font-family="Times,serif" font-size="14.00" fill="#000000">PTMSEA_HERNANDEZ2017:ptmsea_hernandez2017</text>
</g>
<!-- v36 -->
<g id="node38" class="node">
<title>v36</title>
<ellipse fill="none" stroke="#000000" cx="1732.6828" cy="-514.6" rx="3.5" ry="3.5"/>
<text text-anchor="middle" x="1707.6828" y="-521.9" font-family="Times,serif" font-size="14.00" fill="#000000">flatMap</text>
</g>
<!-- v35&#45;&gt;v36 -->
<g id="edge46" class="edge">
<title>v35&#45;&gt;v36</title>
<path fill="none" stroke="#000000" d="M1772.3228,-583.5735C1762.567,-566.5985 1748.2188,-541.6326 1739.7256,-526.8544"/>
<polygon fill="#000000" stroke="#000000" points="1742.5625,-524.7664 1734.545,-517.8403 1736.4934,-528.2544 1742.5625,-524.7664"/>
</g>
<!-- v37 -->
<g id="node39" class="node">
<title>v37</title>
<ellipse fill="none" stroke="#000000" cx="1682.6828" cy="-427.6" rx="3.5" ry="3.5"/>
<text text-anchor="middle" x="1666.6828" y="-434.9" font-family="Times,serif" font-size="14.00" fill="#000000">map</text>
</g>
<!-- v36&#45;&gt;v37 -->
<g id="edge47" class="edge">
<title>v36&#45;&gt;v37</title>
<path fill="none" stroke="#000000" d="M1730.7838,-511.2957C1724.0703,-499.6142 1701.2359,-459.8823 1689.6083,-439.6504"/>
<polygon fill="#000000" stroke="#000000" points="1692.6012,-437.8337 1684.5837,-430.9076 1686.532,-441.3217 1692.6012,-437.8337"/>
</g>
<!-- v37&#45;&gt;v38 -->
<g id="edge48" class="edge">
<title>v37&#45;&gt;v38</title>
<path fill="none" stroke="#000000" d="M1679.7835,-425.6378C1674.7476,-422.2519 1664.0272,-415.1423 1654.6828,-409.6 1640.3135,-401.0774 1630.2109,-405.966 1621.6828,-391.6 1613.5154,-377.8416 1610.8491,-367.3741 1621.6828,-355.6 1622.2767,-354.9545 1768.879,-342.8363 1891.1184,-332.8357"/>
<polygon fill="#000000" stroke="#000000" points="1891.6848,-336.3012 1901.3662,-331.9976 1891.1142,-329.3245 1891.6848,-336.3012"/>
<text text-anchor="middle" x="1676.1828" y="-369.9" font-family="Times,serif" font-size="14.00" fill="#000000">ptmsea_output_untr</text>
</g>
<!-- v39 -->
<g id="node41" class="node">
<title>v39</title>
<ellipse fill="none" stroke="#000000" cx="2306.6828" cy="-145.6" rx="3.5" ry="3.5"/>
<text text-anchor="middle" x="2284.6828" y="-152.9" font-family="Times,serif" font-size="14.00" fill="#000000">collect</text>
</g>
<!-- v38&#45;&gt;v39 -->
<g id="edge50" class="edge">
<title>v38&#45;&gt;v39</title>
<path fill="none" stroke="#000000" d="M2079.8053,-301.6343C2134.0444,-264.3315 2256.9961,-179.7719 2295.1622,-153.5233"/>
<polygon fill="#000000" stroke="#000000" points="2297.295,-156.3044 2303.5511,-147.7538 2293.3283,-150.5367 2297.295,-156.3044"/>
</g>
<!-- v39&#45;&gt;v45 -->
<g id="edge51" class="edge">
<title>v39&#45;&gt;v45</title>
<path fill="none" stroke="#000000" d="M2306.314,-141.8841C2305.1443,-132.268 2300.5959,-106.4896 2284.6828,-94.6 2274.4555,-86.9586 2228.5089,-79.9077 2175.5875,-74.1091"/>
<polygon fill="#000000" stroke="#000000" points="2175.9481,-70.6277 2165.6318,-73.041 2175.2014,-77.5878 2175.9481,-70.6277"/>
<text text-anchor="middle" x="2338.1828" y="-98.4" font-family="Times,serif" font-size="14.00" fill="#000000">ptmsea_output</text>
</g>
<!-- v39&#45;&gt;v47 -->
<g id="edge64" class="edge">
<title>v39&#45;&gt;v47</title>
<path fill="none" stroke="#000000" d="M2310.2377,-145.384C2329.0643,-144.1398 2418.7872,-136.956 2485.6828,-109.6 2496.9788,-104.9807 2497.518,-99.5279 2508.6828,-94.6 2522.4329,-88.531 2537.4164,-83.3238 2552.2897,-78.9091"/>
<polygon fill="#000000" stroke="#000000" points="2553.382,-82.2371 2562.0335,-76.1214 2551.4565,-75.5071 2553.382,-82.2371"/>
<text text-anchor="middle" x="2549.1828" y="-98.4" font-family="Times,serif" font-size="14.00" fill="#000000">ptmsea_output</text>
</g>
<!-- v40 -->
<g id="node42" class="node">
<title>v40</title>
<ellipse fill="none" stroke="#000000" cx="3591.6828" cy="-601.6" rx="202.2642" ry="18"/>
<text text-anchor="middle" x="3591.6828" y="-597.9" font-family="Times,serif" font-size="14.00" fill="#000000">ZSCORE_HERNANDEZ2017:zscore_hernandez2017</text>
</g>
<!-- v41 -->
<g id="node43" class="node">
<title>v41</title>
<ellipse fill="none" stroke="#000000" cx="3591.6828" cy="-514.6" rx="3.5" ry="3.5"/>
<text text-anchor="middle" x="3566.6828" y="-521.9" font-family="Times,serif" font-size="14.00" fill="#000000">flatMap</text>
</g>
<!-- v40&#45;&gt;v41 -->
<g id="edge52" class="edge">
<title>v40&#45;&gt;v41</title>
<path fill="none" stroke="#000000" d="M3591.6828,-583.5735C3591.6828,-567.0868 3591.6828,-543.0625 3591.6828,-528.1548"/>
<polygon fill="#000000" stroke="#000000" points="3595.1829,-528.142 3591.6828,-518.142 3588.1829,-528.1421 3595.1829,-528.142"/>
</g>
<!-- v42 -->
<g id="node44" class="node">
<title>v42</title>
<ellipse fill="none" stroke="#000000" cx="3591.6828" cy="-427.6" rx="3.5" ry="3.5"/>
<text text-anchor="middle" x="3575.6828" y="-434.9" font-family="Times,serif" font-size="14.00" fill="#000000">map</text>
</g>
<!-- v41&#45;&gt;v42 -->
<g id="edge53" class="edge">
<title>v41&#45;&gt;v42</title>
<path fill="none" stroke="#000000" d="M3591.6828,-510.8617C3591.6828,-499.0107 3591.6828,-461.8578 3591.6828,-441.4184"/>
<polygon fill="#000000" stroke="#000000" points="3595.1829,-441.2275 3591.6828,-431.2275 3588.1829,-441.2276 3595.1829,-441.2275"/>
</g>
<!-- v42&#45;&gt;v43 -->
<g id="edge54" class="edge">
<title>v42&#45;&gt;v43</title>
<path fill="none" stroke="#000000" d="M3591.6828,-424.0066C3591.6828,-412.3616 3591.6828,-374.8721 3591.6828,-348.1552"/>
<polygon fill="#000000" stroke="#000000" points="3595.1829,-347.8214 3591.6828,-337.8215 3588.1829,-347.8215 3595.1829,-347.8214"/>
<text text-anchor="middle" x="3644.1828" y="-369.9" font-family="Times,serif" font-size="14.00" fill="#000000">zscore_output_untr</text>
</g>
<!-- v44 -->
<g id="node46" class="node">
<title>v44</title>
<ellipse fill="none" stroke="#000000" cx="2923.6828" cy="-145.6" rx="3.5" ry="3.5"/>
<text text-anchor="middle" x="2901.6828" y="-152.9" font-family="Times,serif" font-size="14.00" fill="#000000">collect</text>
</g>
<!-- v43&#45;&gt;v44 -->
<g id="edge56" class="edge">
<title>v43&#45;&gt;v44</title>
<path fill="none" stroke="#000000" d="M3562.4968,-301.5715C3543.722,-290.6604 3518.4697,-277.232 3494.6828,-268.6 3280.652,-190.9305 3002.8155,-154.8859 2937.7436,-147.198"/>
<polygon fill="#000000" stroke="#000000" points="2937.7492,-143.6756 2927.4144,-146.0085 2936.9483,-150.6296 2937.7492,-143.6756"/>
</g>
<!-- v44&#45;&gt;v45 -->
<g id="edge57" class="edge">
<title>v44&#45;&gt;v45</title>
<path fill="none" stroke="#000000" d="M2919.9052,-145.5126C2898.1261,-144.9025 2786.6427,-140.338 2702.6828,-109.6 2690.515,-105.1453 2690.0854,-98.3518 2677.6828,-94.6 2596.3401,-69.9935 2380.5486,-81.0632 2295.6828,-76.6 2267.7513,-75.1311 2238.4085,-73.5182 2209.3737,-71.8801"/>
<polygon fill="#000000" stroke="#000000" points="2209.3012,-68.3705 2199.1194,-71.2998 2208.9056,-75.3593 2209.3012,-68.3705"/>
<text text-anchor="middle" x="2740.6828" y="-98.4" font-family="Times,serif" font-size="14.00" fill="#000000">zscore_output</text>
</g>
<!-- v44&#45;&gt;v47 -->
<g id="edge65" class="edge">
<title>v44&#45;&gt;v47</title>
<path fill="none" stroke="#000000" d="M2923.2997,-141.9032C2922.0953,-132.3329 2917.4703,-106.6558 2901.6828,-94.6 2891.1828,-86.5819 2871.9085,-80.3467 2848.4904,-75.4987"/>
<polygon fill="#000000" stroke="#000000" points="2849.0713,-72.0462 2838.587,-73.5728 2847.735,-78.9174 2849.0713,-72.0462"/>
<text text-anchor="middle" x="2952.6828" y="-98.4" font-family="Times,serif" font-size="14.00" fill="#000000">zscore_output</text>
</g>
<!-- v48 -->
<g id="node49" class="node">
<title>v48</title>
<ellipse fill="#000000" stroke="#000000" cx="2647.6828" cy="-1.8" rx="1.8" ry="1.8"/>
</g>
<!-- v47&#45;&gt;v48 -->
<g id="edge67" class="edge">
<title>v47&#45;&gt;v48</title>
<path fill="none" stroke="#000000" d="M2647.6828,-40.3155C2647.6828,-31.6139 2647.6828,-21.4551 2647.6828,-13.756"/>
<polygon fill="#000000" stroke="#000000" points="2651.1829,-13.6036 2647.6828,-3.6036 2644.1829,-13.6037 2651.1829,-13.6036"/>
</g>
<!-- v49 -->
<g id="node50" class="node">
<title>v49</title>
<ellipse fill="#000000" stroke="#000000" cx="3885.6828" cy="-775.6" rx="3.6" ry="3.6"/>
<text text-anchor="middle" x="3832.0828" y="-783" font-family="Times,serif" font-size="14.00" fill="#000000">Channel.fromPath</text>
</g>
<!-- v51 -->
<g id="node51" class="node">
<title>v51</title>
<ellipse fill="none" stroke="#000000" cx="3924.6828" cy="-688.6" rx="3.5" ry="3.5"/>
<text text-anchor="middle" x="3897.1828" y="-695.9" font-family="Times,serif" font-size="14.00" fill="#000000">combine</text>
</g>
<!-- v49&#45;&gt;v51 -->
<g id="edge68" class="edge">
<title>v49&#45;&gt;v51</title>
<path fill="none" stroke="#000000" d="M3884.4259,-772.1768C3881.5164,-763.6636 3875.1222,-741.0384 3882.6828,-724.6 3888.7537,-711.4006 3902.3164,-701.2297 3912.3965,-695.1174"/>
<polygon fill="#000000" stroke="#000000" points="3914.3811,-698.02 3921.4482,-690.1265 3911.0011,-691.89 3914.3811,-698.02"/>
<text text-anchor="middle" x="3909.6828" y="-728.4" font-family="Times,serif" font-size="14.00" fill="#000000">config_ch</text>
</g>
<!-- v52 -->
<g id="node53" class="node">
<title>v52</title>
<ellipse fill="none" stroke="#000000" cx="3924.6828" cy="-601.6" rx="112.3801" ry="18"/>
<text text-anchor="middle" x="3924.6828" y="-597.9" font-family="Times,serif" font-size="14.00" fill="#000000">PUBLISH_CONFIG:publish</text>
</g>
<!-- v51&#45;&gt;v52 -->
<g id="edge70" class="edge">
<title>v51&#45;&gt;v52</title>
<path fill="none" stroke="#000000" d="M3924.6828,-684.8617C3924.6828,-675.445 3924.6828,-650.053 3924.6828,-629.7647"/>
<polygon fill="#000000" stroke="#000000" points="3928.1829,-629.7321 3924.6828,-619.7322 3921.1829,-629.7322 3928.1829,-629.7321"/>
</g>
<!-- v50 -->
<g id="node52" class="node">
<title>v50</title>
<ellipse fill="#000000" stroke="#000000" cx="3962.6828" cy="-775.6" rx="3.6" ry="3.6"/>
<text text-anchor="middle" x="3928.5828" y="-783" font-family="Times,serif" font-size="14.00" fill="#000000">Channel.of</text>
</g>
<!-- v50&#45;&gt;v51 -->
<g id="edge69" class="edge">
<title>v50&#45;&gt;v51</title>
<path fill="none" stroke="#000000" d="M3961.0957,-771.8825C3957.495,-763.4569 3948.4187,-742.2662 3940.6828,-724.6 3937.3084,-716.8939 3933.4829,-708.2822 3930.4189,-701.4142"/>
<polygon fill="#000000" stroke="#000000" points="3933.4727,-699.6694 3926.1952,-691.9695 3927.0826,-702.5272 3933.4727,-699.6694"/>
<text text-anchor="middle" x="3965.6828" y="-728.4" font-family="Times,serif" font-size="14.00" fill="#000000">val_ch</text>
</g>
<!-- v53 -->
<g id="node54" class="node">
<title>v53</title>
<ellipse fill="#000000" stroke="#000000" cx="3924.6828" cy="-514.6" rx="1.8" ry="1.8"/>
</g>
<!-- v52&#45;&gt;v53 -->
<g id="edge71" class="edge">
<title>v52&#45;&gt;v53</title>
<path fill="none" stroke="#000000" d="M3924.6828,-583.5735C3924.6828,-566.502 3924.6828,-541.3487 3924.6828,-526.6035"/>
<polygon fill="#000000" stroke="#000000" points="3928.1829,-526.5185 3924.6828,-516.5185 3921.1829,-526.5185 3928.1829,-526.5185"/>
</g>
</g>
</svg>
