<?xml version="1.0" encoding="UTF-8" standalone="no"?>
<!DOCTYPE svg PUBLIC "-//W3C//DTD SVG 1.1//EN"
 "http://www.w3.org/Graphics/SVG/1.1/DTD/svg11.dtd">
<!-- Generated by graphviz version 2.40.1 (0)
 -->
<!-- Title: flowchart Pages: 1 -->
<svg width="3508pt" height="694pt"
 viewBox="0.00 0.00 3507.72 694.20" xmlns="http://www.w3.org/2000/svg" xmlns:xlink="http://www.w3.org/1999/xlink">
<g id="graph0" class="graph" transform="scale(1 1) rotate(0) translate(4 690.2)">
<title>flowchart</title>
<polygon fill="#ffffff" stroke="transparent" points="-4,4 -4,-690.2 3503.7168,-690.2 3503.7168,4 -4,4"/>
<!-- v0 -->
<g id="node1" class="node">
<title>v0</title>
<ellipse fill="none" stroke="#000000" cx="1165.2768" cy="-580.6" rx="131.8766" ry="18"/>
<text text-anchor="middle" x="1165.2768" y="-576.9" font-family="Times,serif" font-size="14.00" fill="#000000">GET_GENE_ID_DICT:dl_human</text>
</g>
<!-- v1 -->
<g id="node2" class="node">
<title>v1</title>
<ellipse fill="none" stroke="#000000" cx="1165.2768" cy="-493.6" rx="178.9686" ry="18"/>
<text text-anchor="middle" x="1165.2768" y="-489.9" font-family="Times,serif" font-size="14.00" fill="#000000">GET_GENE_ID_DICT:uniprotac_to_ensp_dict</text>
</g>
<!-- v0&#45;&gt;v1 -->
<g id="edge1" class="edge">
<title>v0&#45;&gt;v1</title>
<path fill="none" stroke="#000000" d="M1165.2768,-562.5735C1165.2768,-550.7918 1165.2768,-535.1607 1165.2768,-521.7581"/>
<polygon fill="#000000" stroke="#000000" points="1168.7769,-521.6033 1165.2768,-511.6034 1161.7769,-521.6034 1168.7769,-521.6033"/>
</g>
<!-- v15 -->
<g id="node3" class="node">
<title>v15</title>
<ellipse fill="none" stroke="#000000" cx="1165.2768" cy="-406.6" rx="273.7515" ry="18"/>
<text text-anchor="middle" x="1165.2768" y="-402.9" font-family="Times,serif" font-size="14.00" fill="#000000">HERNANDEZ2017_DATASET:hernandez2017_rnk_translate1col_w_dict</text>
</g>
<!-- v1&#45;&gt;v15 -->
<g id="edge2" class="edge">
<title>v1&#45;&gt;v15</title>
<path fill="none" stroke="#000000" d="M1165.2768,-475.5735C1165.2768,-463.7918 1165.2768,-448.1607 1165.2768,-434.7581"/>
<polygon fill="#000000" stroke="#000000" points="1168.7769,-434.6033 1165.2768,-424.6034 1161.7769,-434.6034 1168.7769,-434.6033"/>
<text text-anchor="middle" x="1224.2768" y="-446.4" font-family="Times,serif" font-size="14.00" fill="#000000">uniprotac2ENSP_dict</text>
</g>
<!-- v16 -->
<g id="node20" class="node">
<title>v16</title>
<ellipse fill="none" stroke="#000000" cx="1939.2768" cy="-319.6" rx="231.259" ry="18"/>
<text text-anchor="middle" x="1939.2768" y="-315.9" font-family="Times,serif" font-size="14.00" fill="#000000">HERNANDEZ2017_DATASET:hernandez2017_make_seqrnk</text>
</g>
<!-- v15&#45;&gt;v16 -->
<g id="edge18" class="edge">
<title>v15&#45;&gt;v16</title>
<path fill="none" stroke="#000000" d="M1357.7201,-393.7915C1464.3989,-386.3325 1585.9813,-377.1397 1639.2768,-370.6 1707.9307,-362.1757 1784.8293,-349.0287 1843.5823,-338.1931"/>
<polygon fill="#000000" stroke="#000000" points="1844.3976,-341.6017 1853.5918,-336.3371 1843.1213,-334.719 1844.3976,-341.6017"/>
</g>
<!-- v17 -->
<g id="node22" class="node">
<title>v17</title>
<ellipse fill="none" stroke="#000000" cx="261.2768" cy="-319.6" rx="261.0538" ry="18"/>
<text text-anchor="middle" x="261.2768" y="-315.9" font-family="Times,serif" font-size="14.00" fill="#000000">HERNANDEZ2017_DATASET:hernandez2017_make_uniprot_seqrnk</text>
</g>
<!-- v15&#45;&gt;v17 -->
<g id="edge20" class="edge">
<title>v15&#45;&gt;v17</title>
<path fill="none" stroke="#000000" d="M1010.6443,-391.7183C847.106,-375.9796 590.2031,-351.2555 423.7523,-335.2365"/>
<polygon fill="#000000" stroke="#000000" points="423.7073,-331.716 413.4179,-334.2419 423.0366,-338.6839 423.7073,-331.716"/>
</g>
<!-- v18 -->
<g id="node24" class="node">
<title>v18</title>
<ellipse fill="none" stroke="#000000" cx="1165.2768" cy="-319.6" rx="219.8612" ry="18"/>
<text text-anchor="middle" x="1165.2768" y="-315.9" font-family="Times,serif" font-size="14.00" fill="#000000">HERNANDEZ2017_DATASET:hernandez2017_make_rnk</text>
</g>
<!-- v15&#45;&gt;v18 -->
<g id="edge22" class="edge">
<title>v15&#45;&gt;v18</title>
<path fill="none" stroke="#000000" d="M1165.2768,-388.5735C1165.2768,-376.7918 1165.2768,-361.1607 1165.2768,-347.7581"/>
<polygon fill="#000000" stroke="#000000" points="1168.7769,-347.6033 1165.2768,-337.6034 1161.7769,-347.6034 1168.7769,-347.6033"/>
</g>
<!-- v2 -->
<g id="node4" class="node">
<title>v2</title>
<ellipse fill="none" stroke="#000000" cx="2402.2768" cy="-406.6" rx="163.2712" ry="18"/>
<text text-anchor="middle" x="2402.2768" y="-402.9" font-family="Times,serif" font-size="14.00" fill="#000000">GET_STRING_ID_DICT:dl_string_aliases</text>
</g>
<!-- v6 -->
<g id="node5" class="node">
<title>v6</title>
<ellipse fill="none" stroke="#000000" cx="1527.2768" cy="-319.6" rx="124.5782" ry="18"/>
<text text-anchor="middle" x="1527.2768" y="-315.9" font-family="Times,serif" font-size="14.00" fill="#000000">PSP:translate_kin_phos_clusters</text>
</g>
<!-- v2&#45;&gt;v6 -->
<g id="edge3" class="edge">
<title>v2&#45;&gt;v6</title>
<path fill="none" stroke="#000000" d="M2239.8073,-404.831C2020.1844,-401.6074 1649.1159,-392.9095 1590.2768,-370.6 1575.5593,-365.0197 1561.6759,-354.5798 1550.7073,-344.5922"/>
<polygon fill="#000000" stroke="#000000" points="1552.9116,-341.8573 1543.2653,-337.4754 1548.0736,-346.9164 1552.9116,-341.8573"/>
<text text-anchor="middle" x="1628.2768" y="-359.4" font-family="Times,serif" font-size="14.00" fill="#000000">string_id_dict</text>
</g>
<!-- v10 -->
<g id="node13" class="node">
<title>v10</title>
<ellipse fill="none" stroke="#000000" cx="2402.2768" cy="-319.6" rx="213.6622" ry="18"/>
<text text-anchor="middle" x="2402.2768" y="-315.9" font-family="Times,serif" font-size="14.00" fill="#000000">KINEX_SCORING_MATRIX:get_kinex_scoring_matrix</text>
</g>
<!-- v2&#45;&gt;v10 -->
<g id="edge10" class="edge">
<title>v2&#45;&gt;v10</title>
<path fill="none" stroke="#000000" d="M2402.2768,-388.5735C2402.2768,-376.7918 2402.2768,-361.1607 2402.2768,-347.7581"/>
<polygon fill="#000000" stroke="#000000" points="2405.7769,-347.6033 2402.2768,-337.6034 2398.7769,-347.6034 2405.7769,-347.6033"/>
<text text-anchor="middle" x="2440.2768" y="-359.4" font-family="Times,serif" font-size="14.00" fill="#000000">string_id_dict</text>
</g>
<!-- v26 -->
<g id="node14" class="node">
<title>v26</title>
<ellipse fill="none" stroke="#000000" cx="2350.2768" cy="-232.6" rx="150.5735" ry="18"/>
<text text-anchor="middle" x="2350.2768" y="-228.9" font-family="Times,serif" font-size="14.00" fill="#000000">KINEX_HERNANDEZ2017:run_kinex</text>
</g>
<!-- v2&#45;&gt;v26 -->
<g id="edge31" class="edge">
<title>v2&#45;&gt;v26</title>
<path fill="none" stroke="#000000" d="M2509.0356,-392.8952C2583.8835,-378.735 2664.1653,-351.4513 2625.2768,-301.6 2605.1186,-275.759 2531.5226,-258.1316 2465.5369,-247.1648"/>
<polygon fill="#000000" stroke="#000000" points="2465.8746,-243.6739 2455.4433,-245.5284 2464.7542,-250.5837 2465.8746,-243.6739"/>
<text text-anchor="middle" x="2674.2768" y="-315.9" font-family="Times,serif" font-size="14.00" fill="#000000">string_id_dict</text>
</g>
<!-- v14 -->
<g id="node17" class="node">
<title>v14</title>
<ellipse fill="none" stroke="#000000" cx="2997.2768" cy="-319.6" rx="250.7555" ry="18"/>
<text text-anchor="middle" x="2997.2768" y="-315.9" font-family="Times,serif" font-size="14.00" fill="#000000">HERNANDEZ2017_DATASET:translate_hernandez2017_metadata</text>
</g>
<!-- v2&#45;&gt;v14 -->
<g id="edge16" class="edge">
<title>v2&#45;&gt;v14</title>
<path fill="none" stroke="#000000" d="M2507.0413,-392.7389C2555.5213,-386.2156 2613.8617,-378.2112 2666.2768,-370.6 2738.6456,-360.0913 2819.7993,-347.5985 2883.6382,-337.6075"/>
<polygon fill="#000000" stroke="#000000" points="2884.3935,-341.032 2893.7312,-336.0262 2883.31,-334.1163 2884.3935,-341.032"/>
<text text-anchor="middle" x="2805.2768" y="-359.4" font-family="Times,serif" font-size="14.00" fill="#000000">string_id_dict</text>
</g>
<!-- v33 -->
<g id="node35" class="node">
<title>v33</title>
<ellipse fill="none" stroke="#000000" cx="1155.2768" cy="-145.6" rx="194.1657" ry="18"/>
<text text-anchor="middle" x="1155.2768" y="-141.9" font-family="Times,serif" font-size="14.00" fill="#000000">KSTAR_HERNANDEZ2017:translate_kstar_output</text>
</g>
<!-- v2&#45;&gt;v33 -->
<g id="edge40" class="edge">
<title>v2&#45;&gt;v33</title>
<path fill="none" stroke="#000000" d="M2248.5754,-400.4561C2054.5407,-391.3394 1740.8734,-371.548 1699.2768,-337.6 1654.9494,-301.4233 1704.9147,-251.6056 1661.2768,-214.6 1634.7243,-192.083 1450.2727,-171.2219 1311.6763,-158.4612"/>
<polygon fill="#000000" stroke="#000000" points="1311.6375,-154.9432 1301.3605,-157.5185 1311.0004,-161.9141 1311.6375,-154.9432"/>
<text text-anchor="middle" x="1719.2768" y="-272.4" font-family="Times,serif" font-size="14.00" fill="#000000">string_id_dict</text>
</g>
<!-- v28 -->
<g id="node9" class="node">
<title>v28</title>
<ellipse fill="none" stroke="#000000" cx="1509.2768" cy="-232.6" rx="142.9746" ry="18"/>
<text text-anchor="middle" x="1509.2768" y="-228.9" font-family="Times,serif" font-size="14.00" fill="#000000">GSEA_HERNANDEZ2017:run_gsea</text>
</g>
<!-- v6&#45;&gt;v28 -->
<g id="edge7" class="edge">
<title>v6&#45;&gt;v28</title>
<path fill="none" stroke="#000000" d="M1523.5472,-301.5735C1521.1096,-289.7918 1517.8756,-274.1607 1515.1026,-260.7581"/>
<polygon fill="#000000" stroke="#000000" points="1518.4552,-259.6868 1513.0017,-250.6034 1511.6004,-261.1051 1518.4552,-259.6868"/>
<text text-anchor="middle" x="1578.2768" y="-272.4" font-family="Times,serif" font-size="14.00" fill="#000000">psp_kin_sub_clusters</text>
</g>
<!-- v3 -->
<g id="node6" class="node">
<title>v3</title>
<ellipse fill="#000000" stroke="#000000" cx="1548.2768" cy="-580.6" rx="3.6" ry="3.6"/>
</g>
<!-- v4 -->
<g id="node7" class="node">
<title>v4</title>
<ellipse fill="none" stroke="#000000" cx="1548.2768" cy="-493.6" rx="105.8812" ry="18"/>
<text text-anchor="middle" x="1548.2768" y="-489.9" font-family="Times,serif" font-size="14.00" fill="#000000">PSP:psp_kinase_substrates</text>
</g>
<!-- v3&#45;&gt;v4 -->
<g id="edge4" class="edge">
<title>v3&#45;&gt;v4</title>
<path fill="none" stroke="#000000" d="M1548.2768,-576.8617C1548.2768,-567.445 1548.2768,-542.053 1548.2768,-521.7647"/>
<polygon fill="#000000" stroke="#000000" points="1551.7769,-521.7321 1548.2768,-511.7322 1544.7769,-521.7322 1551.7769,-521.7321"/>
<text text-anchor="middle" x="1632.7768" y="-533.4" font-family="Times,serif" font-size="14.00" fill="#000000">input/psp_kinase_substrates.gz</text>
</g>
<!-- v5 -->
<g id="node8" class="node">
<title>v5</title>
<ellipse fill="none" stroke="#000000" cx="1548.2768" cy="-406.6" rx="90.9839" ry="18"/>
<text text-anchor="middle" x="1548.2768" y="-402.9" font-family="Times,serif" font-size="14.00" fill="#000000">PSP:kin_phos_clusters</text>
</g>
<!-- v4&#45;&gt;v5 -->
<g id="edge5" class="edge">
<title>v4&#45;&gt;v5</title>
<path fill="none" stroke="#000000" d="M1548.2768,-475.5735C1548.2768,-463.7918 1548.2768,-448.1607 1548.2768,-434.7581"/>
<polygon fill="#000000" stroke="#000000" points="1551.7769,-434.6033 1548.2768,-424.6034 1544.7769,-434.6034 1551.7769,-434.6033"/>
</g>
<!-- v5&#45;&gt;v6 -->
<g id="edge6" class="edge">
<title>v5&#45;&gt;v6</title>
<path fill="none" stroke="#000000" d="M1543.9256,-388.5735C1541.0536,-376.6751 1537.2339,-360.8508 1533.9777,-347.3606"/>
<polygon fill="#000000" stroke="#000000" points="1537.3712,-346.5029 1531.6225,-337.6034 1530.5666,-348.1455 1537.3712,-346.5029"/>
</g>
<!-- v30 -->
<g id="node32" class="node">
<title>v30</title>
<ellipse fill="none" stroke="#000000" cx="1734.2768" cy="-145.6" rx="3.5" ry="3.5"/>
<text text-anchor="middle" x="1712.2768" y="-152.9" font-family="Times,serif" font-size="14.00" fill="#000000">collect</text>
</g>
<!-- v28&#45;&gt;v30 -->
<g id="edge34" class="edge">
<title>v28&#45;&gt;v30</title>
<path fill="none" stroke="#000000" d="M1553.7296,-215.4116C1605.9682,-195.2127 1689.5616,-162.8899 1721.3973,-150.5801"/>
<polygon fill="#000000" stroke="#000000" points="1722.8264,-153.7801 1730.8911,-146.9091 1720.3018,-147.2512 1722.8264,-153.7801"/>
</g>
<!-- v29 -->
<g id="node33" class="node">
<title>v29</title>
<ellipse fill="#000000" stroke="#000000" cx="1509.2768" cy="-145.6" rx="1.8" ry="1.8"/>
</g>
<!-- v28&#45;&gt;v29 -->
<g id="edge35" class="edge">
<title>v28&#45;&gt;v29</title>
<path fill="none" stroke="#000000" d="M1509.2768,-214.5735C1509.2768,-197.502 1509.2768,-172.3487 1509.2768,-157.6035"/>
<polygon fill="#000000" stroke="#000000" points="1512.7769,-157.5185 1509.2768,-147.5185 1505.7769,-157.5185 1512.7769,-157.5185"/>
</g>
<!-- v7 -->
<g id="node10" class="node">
<title>v7</title>
<ellipse fill="#000000" stroke="#000000" cx="3120.2768" cy="-667.6" rx="3.6" ry="3.6"/>
</g>
<!-- v8 -->
<g id="node11" class="node">
<title>v8</title>
<ellipse fill="none" stroke="#000000" cx="3120.2768" cy="-580.6" rx="103.1819" ry="18"/>
<text text-anchor="middle" x="3120.2768" y="-576.9" font-family="Times,serif" font-size="14.00" fill="#000000">PSP:hs_phosphoproteome</text>
</g>
<!-- v7&#45;&gt;v8 -->
<g id="edge8" class="edge">
<title>v7&#45;&gt;v8</title>
<path fill="none" stroke="#000000" d="M3120.2768,-663.8617C3120.2768,-654.445 3120.2768,-629.053 3120.2768,-608.7647"/>
<polygon fill="#000000" stroke="#000000" points="3123.7769,-608.7321 3120.2768,-598.7322 3116.7769,-608.7322 3123.7769,-608.7321"/>
<text text-anchor="middle" x="3223.2768" y="-620.4" font-family="Times,serif" font-size="14.00" fill="#000000">input/Phosphorylation_site_dataset.gz</text>
</g>
<!-- v9 -->
<g id="node12" class="node">
<title>v9</title>
<ellipse fill="#000000" stroke="#000000" cx="3120.2768" cy="-493.6" rx="1.8" ry="1.8"/>
</g>
<!-- v8&#45;&gt;v9 -->
<g id="edge9" class="edge">
<title>v8&#45;&gt;v9</title>
<path fill="none" stroke="#000000" d="M3120.2768,-562.5735C3120.2768,-545.502 3120.2768,-520.3487 3120.2768,-505.6035"/>
<polygon fill="#000000" stroke="#000000" points="3123.7769,-505.5185 3120.2768,-495.5185 3116.7769,-505.5185 3123.7769,-505.5185"/>
</g>
<!-- v10&#45;&gt;v26 -->
<g id="edge11" class="edge">
<title>v10&#45;&gt;v26</title>
<path fill="none" stroke="#000000" d="M2391.5024,-301.5735C2384.2512,-289.4418 2374.5606,-273.2287 2366.3967,-259.5698"/>
<polygon fill="#000000" stroke="#000000" points="2369.1722,-257.3913 2361.0374,-250.6034 2363.1637,-260.9827 2369.1722,-257.3913"/>
<text text-anchor="middle" x="2421.7768" y="-272.4" font-family="Times,serif" font-size="14.00" fill="#000000">scoring_matrix</text>
</g>
<!-- v27 -->
<g id="node31" class="node">
<title>v27</title>
<ellipse fill="none" stroke="#000000" cx="2270.2768" cy="-145.6" rx="3.5" ry="3.5"/>
<text text-anchor="middle" x="2248.2768" y="-152.9" font-family="Times,serif" font-size="14.00" fill="#000000">collect</text>
</g>
<!-- v26&#45;&gt;v27 -->
<g id="edge32" class="edge">
<title>v26&#45;&gt;v27</title>
<path fill="none" stroke="#000000" d="M2333.7008,-214.5735C2317.3321,-196.7726 2292.8831,-170.1843 2279.6302,-155.7718"/>
<polygon fill="#000000" stroke="#000000" points="2282.0805,-153.2656 2272.7353,-148.2736 2276.9277,-158.0037 2282.0805,-153.2656"/>
</g>
<!-- v11 -->
<g id="node15" class="node">
<title>v11</title>
<ellipse fill="none" stroke="#000000" cx="2530.2768" cy="-667.6" rx="231.259" ry="18"/>
<text text-anchor="middle" x="2530.2768" y="-663.9" font-family="Times,serif" font-size="14.00" fill="#000000">HERNANDEZ2017_DATASET:parse_hernandez2017_dataset</text>
</g>
<!-- v12 -->
<g id="node16" class="node">
<title>v12</title>
<ellipse fill="none" stroke="#000000" cx="1519.2768" cy="-580.6" rx="3.5" ry="3.5"/>
<text text-anchor="middle" x="1494.2768" y="-587.9" font-family="Times,serif" font-size="14.00" fill="#000000">flatMap</text>
</g>
<!-- v11&#45;&gt;v12 -->
<g id="edge12" class="edge">
<title>v11&#45;&gt;v12</title>
<path fill="none" stroke="#000000" d="M2313.7314,-661.2416C2042.011,-651.9273 1603.1723,-631.9597 1535.2768,-598.6 1532.1809,-597.0789 1529.4187,-594.6688 1527.0967,-592.1006"/>
<polygon fill="#000000" stroke="#000000" points="1529.7768,-589.8359 1521.0528,-583.8241 1524.1237,-593.9641 1529.7768,-589.8359"/>
</g>
<!-- v11&#45;&gt;v14 -->
<g id="edge13" class="edge">
<title>v11&#45;&gt;v14</title>
<path fill="none" stroke="#000000" d="M2658.6292,-652.6036C2779.2213,-636.7151 2941.2768,-609.9109 2941.2768,-580.6 2941.2768,-580.6 2941.2768,-580.6 2941.2768,-406.6 2941.2768,-383.2906 2955.6657,-361.258 2969.8561,-345.1969"/>
<polygon fill="#000000" stroke="#000000" points="2972.4819,-347.5131 2976.7425,-337.8127 2967.3626,-342.739 2972.4819,-347.5131"/>
</g>
<!-- v13 -->
<g id="node18" class="node">
<title>v13</title>
<ellipse fill="none" stroke="#000000" cx="1393.2768" cy="-493.6" rx="3.5" ry="3.5"/>
<text text-anchor="middle" x="1377.2768" y="-500.9" font-family="Times,serif" font-size="14.00" fill="#000000">map</text>
</g>
<!-- v12&#45;&gt;v13 -->
<g id="edge14" class="edge">
<title>v12&#45;&gt;v13</title>
<path fill="none" stroke="#000000" d="M1516.1622,-578.4494C1500.7046,-567.7763 1431.8844,-520.2576 1404.5359,-501.3741"/>
<polygon fill="#000000" stroke="#000000" points="1406.5002,-498.4772 1396.2826,-495.6754 1402.5229,-504.2375 1406.5002,-498.4772"/>
</g>
<!-- v20 -->
<g id="node19" class="node">
<title>v20</title>
<ellipse fill="none" stroke="#000000" cx="3230.2768" cy="-232.6" rx="3.5" ry="3.5"/>
<text text-anchor="middle" x="3202.7768" y="-239.9" font-family="Times,serif" font-size="14.00" fill="#000000">combine</text>
</g>
<!-- v14&#45;&gt;v20 -->
<g id="edge17" class="edge">
<title>v14&#45;&gt;v20</title>
<path fill="none" stroke="#000000" d="M3044.7087,-301.8894C3098.9818,-281.6243 3184.5547,-249.6722 3217.1113,-237.5159"/>
<polygon fill="#000000" stroke="#000000" points="3218.6734,-240.6687 3226.8173,-233.8918 3216.2247,-234.1109 3218.6734,-240.6687"/>
<text text-anchor="middle" x="3153.2768" y="-272.4" font-family="Times,serif" font-size="14.00" fill="#000000">metadata</text>
</g>
<!-- v35 -->
<g id="node30" class="node">
<title>v35</title>
<ellipse fill="none" stroke="#000000" cx="2137.2768" cy="-58.6" rx="300.8466" ry="18"/>
<text text-anchor="middle" x="2137.2768" y="-54.9" font-family="Times,serif" font-size="14.00" fill="#000000">BENCHMARK_PHOSX_HERNANDEZ2017:benchmark_phosx_hernandez2017</text>
</g>
<!-- v14&#45;&gt;v35 -->
<g id="edge42" class="edge">
<title>v14&#45;&gt;v35</title>
<path fill="none" stroke="#000000" d="M2945.9846,-301.9565C2829.6327,-262.2404 2536.4341,-163.8829 2287.2768,-94.6 2267.007,-88.9636 2245.0522,-83.3964 2224.3554,-78.3867"/>
<polygon fill="#000000" stroke="#000000" points="2225.1693,-74.9827 2214.6284,-76.0504 2223.5344,-81.7891 2225.1693,-74.9827"/>
<text text-anchor="middle" x="2650.2768" y="-185.4" font-family="Times,serif" font-size="14.00" fill="#000000">metadata</text>
</g>
<!-- v13&#45;&gt;v15 -->
<g id="edge15" class="edge">
<title>v13&#45;&gt;v15</title>
<path fill="none" stroke="#000000" d="M1390.0651,-491.8161C1377.352,-484.807 1329.2022,-458.75 1287.2768,-442.6 1272.7389,-436.9999 1256.9488,-431.7524 1241.7006,-427.0885"/>
<polygon fill="#000000" stroke="#000000" points="1242.3613,-423.6326 1231.7772,-424.11 1240.3489,-430.3371 1242.3613,-423.6326"/>
<text text-anchor="middle" x="1365.7768" y="-446.4" font-family="Times,serif" font-size="14.00" fill="#000000">untranslated_rnk</text>
</g>
<!-- v21 -->
<g id="node26" class="node">
<title>v21</title>
<ellipse fill="none" stroke="#000000" cx="3230.2768" cy="-145.6" rx="152.1731" ry="18"/>
<text text-anchor="middle" x="3230.2768" y="-141.9" font-family="Times,serif" font-size="14.00" fill="#000000">HERNANDEZ2017_DATASET:publish</text>
</g>
<!-- v20&#45;&gt;v21 -->
<g id="edge25" class="edge">
<title>v20&#45;&gt;v21</title>
<path fill="none" stroke="#000000" d="M3230.2768,-228.8617C3230.2768,-219.445 3230.2768,-194.053 3230.2768,-173.7647"/>
<polygon fill="#000000" stroke="#000000" points="3233.7769,-173.7321 3230.2768,-163.7322 3226.7769,-173.7322 3233.7769,-173.7321"/>
</g>
<!-- v16&#45;&gt;v26 -->
<g id="edge30" class="edge">
<title>v16&#45;&gt;v26</title>
<path fill="none" stroke="#000000" d="M2019.4974,-302.619C2090.5599,-287.5766 2193.9426,-265.6926 2266.1569,-250.4064"/>
<polygon fill="#000000" stroke="#000000" points="2267.0748,-253.7897 2276.1332,-248.2946 2265.6252,-246.9415 2267.0748,-253.7897"/>
<text text-anchor="middle" x="2188.7768" y="-272.4" font-family="Times,serif" font-size="14.00" fill="#000000">seqrnk</text>
</g>
<!-- v23 -->
<g id="node21" class="node">
<title>v23</title>
<ellipse fill="none" stroke="#000000" cx="1957.2768" cy="-232.6" rx="154.0727" ry="18"/>
<text text-anchor="middle" x="1957.2768" y="-228.9" font-family="Times,serif" font-size="14.00" fill="#000000">PHOSX_HERNANDEZ2017:run_phosx</text>
</g>
<!-- v16&#45;&gt;v23 -->
<g id="edge19" class="edge">
<title>v16&#45;&gt;v23</title>
<path fill="none" stroke="#000000" d="M1943.0064,-301.5735C1945.444,-289.7918 1948.6781,-274.1607 1951.451,-260.7581"/>
<polygon fill="#000000" stroke="#000000" points="1954.9533,-261.1051 1953.552,-250.6034 1948.0984,-259.6868 1954.9533,-261.1051"/>
<text text-anchor="middle" x="1968.7768" y="-272.4" font-family="Times,serif" font-size="14.00" fill="#000000">seqrnk</text>
</g>
<!-- v25 -->
<g id="node28" class="node">
<title>v25</title>
<ellipse fill="none" stroke="#000000" cx="2025.2768" cy="-145.6" rx="3.5" ry="3.5"/>
<text text-anchor="middle" x="2003.2768" y="-152.9" font-family="Times,serif" font-size="14.00" fill="#000000">collect</text>
</g>
<!-- v23&#45;&gt;v25 -->
<g id="edge27" class="edge">
<title>v23&#45;&gt;v25</title>
<path fill="none" stroke="#000000" d="M1971.3665,-214.5735C1985.0209,-197.1039 2005.2903,-171.1709 2016.6877,-156.589"/>
<polygon fill="#000000" stroke="#000000" points="2019.5699,-158.585 2022.9705,-148.5508 2014.0546,-154.2743 2019.5699,-158.585"/>
</g>
<!-- v24 -->
<g id="node29" class="node">
<title>v24</title>
<ellipse fill="#000000" stroke="#000000" cx="1957.2768" cy="-145.6" rx="1.8" ry="1.8"/>
</g>
<!-- v23&#45;&gt;v24 -->
<g id="edge28" class="edge">
<title>v23&#45;&gt;v24</title>
<path fill="none" stroke="#000000" d="M1957.2768,-214.5735C1957.2768,-197.502 1957.2768,-172.3487 1957.2768,-157.6035"/>
<polygon fill="#000000" stroke="#000000" points="1960.7769,-157.5185 1957.2768,-147.5185 1953.7769,-157.5185 1960.7769,-157.5185"/>
</g>
<!-- v32 -->
<g id="node23" class="node">
<title>v32</title>
<ellipse fill="none" stroke="#000000" cx="734.2768" cy="-232.6" rx="149.4735" ry="18"/>
<text text-anchor="middle" x="734.2768" y="-228.9" font-family="Times,serif" font-size="14.00" fill="#000000">KSTAR_HERNANDEZ2017:run_kstar</text>
</g>
<!-- v17&#45;&gt;v32 -->
<g id="edge21" class="edge">
<title>v17&#45;&gt;v32</title>
<path fill="none" stroke="#000000" d="M353.0368,-302.7224C436.4225,-287.385 558.8137,-264.8733 642.2748,-249.5222"/>
<polygon fill="#000000" stroke="#000000" points="643.0529,-252.9378 652.2547,-247.6865 641.7865,-246.0533 643.0529,-252.9378"/>
<text text-anchor="middle" x="558.2768" y="-272.4" font-family="Times,serif" font-size="14.00" fill="#000000">uniprot_rnk</text>
</g>
<!-- v32&#45;&gt;v33 -->
<g id="edge39" class="edge">
<title>v32&#45;&gt;v33</title>
<path fill="none" stroke="#000000" d="M809.5432,-217.0461C881.2962,-202.2183 989.4036,-179.8778 1065.5904,-164.1338"/>
<polygon fill="#000000" stroke="#000000" points="1066.5683,-167.5057 1075.6531,-162.0543 1065.1516,-160.6506 1066.5683,-167.5057"/>
</g>
<!-- v18&#45;&gt;v28 -->
<g id="edge23" class="edge">
<title>v18&#45;&gt;v28</title>
<path fill="none" stroke="#000000" d="M1233.2401,-302.4116C1291.6661,-287.6353 1375.7463,-266.3708 1435.7345,-251.1994"/>
<polygon fill="#000000" stroke="#000000" points="1436.684,-254.5695 1445.5206,-248.7244 1434.9677,-247.7832 1436.684,-254.5695"/>
<text text-anchor="middle" x="1367.7768" y="-272.4" font-family="Times,serif" font-size="14.00" fill="#000000">rnk</text>
</g>
<!-- v19 -->
<g id="node25" class="node">
<title>v19</title>
<ellipse fill="#000000" stroke="#000000" cx="3269.2768" cy="-319.6" rx="3.6" ry="3.6"/>
<text text-anchor="middle" x="3296.1768" y="-327" font-family="Times,serif" font-size="14.00" fill="#000000">Channel.of</text>
</g>
<!-- v19&#45;&gt;v20 -->
<g id="edge24" class="edge">
<title>v19&#45;&gt;v20</title>
<path fill="none" stroke="#000000" d="M3267.7956,-316.2957C3262.6073,-304.7219 3245.0754,-265.6123 3235.9317,-245.2147"/>
<polygon fill="#000000" stroke="#000000" points="3239.0439,-243.6009 3231.7595,-235.9076 3232.6563,-246.4644 3239.0439,-243.6009"/>
</g>
<!-- v22 -->
<g id="node27" class="node">
<title>v22</title>
<ellipse fill="#000000" stroke="#000000" cx="3230.2768" cy="-58.6" rx="1.8" ry="1.8"/>
</g>
<!-- v21&#45;&gt;v22 -->
<g id="edge26" class="edge">
<title>v21&#45;&gt;v22</title>
<path fill="none" stroke="#000000" d="M3230.2768,-127.5735C3230.2768,-110.502 3230.2768,-85.3487 3230.2768,-70.6035"/>
<polygon fill="#000000" stroke="#000000" points="3233.7769,-70.5185 3230.2768,-60.5185 3226.7769,-70.5185 3233.7769,-70.5185"/>
</g>
<!-- v25&#45;&gt;v35 -->
<g id="edge29" class="edge">
<title>v25&#45;&gt;v35</title>
<path fill="none" stroke="#000000" d="M2028.0454,-143.4494C2038.6535,-135.2092 2077.5352,-105.0064 2105.8971,-82.9753"/>
<polygon fill="#000000" stroke="#000000" points="2108.2011,-85.6176 2113.9513,-76.7189 2103.9069,-80.0894 2108.2011,-85.6176"/>
<text text-anchor="middle" x="2125.2768" y="-98.4" font-family="Times,serif" font-size="14.00" fill="#000000">phosx_output</text>
</g>
<!-- v39 -->
<g id="node37" class="node">
<title>v39</title>
<ellipse fill="#000000" stroke="#000000" cx="2099.2768" cy="-1.8" rx="1.8" ry="1.8"/>
</g>
<!-- v35&#45;&gt;v39 -->
<g id="edge43" class="edge">
<title>v35&#45;&gt;v39</title>
<path fill="none" stroke="#000000" d="M2125.0442,-40.3155C2118.6736,-30.793 2111.1353,-19.5254 2105.8639,-11.646"/>
<polygon fill="#000000" stroke="#000000" points="2108.7506,-9.6663 2100.281,-3.301 2102.9325,-13.5587 2108.7506,-9.6663"/>
</g>
<!-- v38 -->
<g id="node38" class="node">
<title>v38</title>
<ellipse fill="#000000" stroke="#000000" cx="2124.2768" cy="-1.8" rx="1.8" ry="1.8"/>
</g>
<!-- v35&#45;&gt;v38 -->
<g id="edge44" class="edge">
<title>v35&#45;&gt;v38</title>
<path fill="none" stroke="#000000" d="M2133.092,-40.3155C2131.0758,-31.5065 2128.7179,-21.204 2126.9482,-13.472"/>
<polygon fill="#000000" stroke="#000000" points="2130.3325,-12.5707 2124.6896,-3.6036 2123.509,-14.1325 2130.3325,-12.5707"/>
</g>
<!-- v37 -->
<g id="node39" class="node">
<title>v37</title>
<ellipse fill="#000000" stroke="#000000" cx="2149.2768" cy="-1.8" rx="1.8" ry="1.8"/>
</g>
<!-- v35&#45;&gt;v37 -->
<g id="edge45" class="edge">
<title>v35&#45;&gt;v37</title>
<path fill="none" stroke="#000000" d="M2141.1397,-40.3155C2143.0008,-31.5065 2145.1774,-21.204 2146.8109,-13.472"/>
<polygon fill="#000000" stroke="#000000" points="2150.2531,-14.1112 2148.8958,-3.6036 2143.4042,-12.6642 2150.2531,-14.1112"/>
</g>
<!-- v36 -->
<g id="node40" class="node">
<title>v36</title>
<ellipse fill="#000000" stroke="#000000" cx="2174.2768" cy="-1.8" rx="1.8" ry="1.8"/>
</g>
<!-- v35&#45;&gt;v36 -->
<g id="edge46" class="edge">
<title>v35&#45;&gt;v36</title>
<path fill="none" stroke="#000000" d="M2149.1875,-40.3155C2155.2756,-30.9694 2162.4589,-19.9421 2167.5757,-12.0872"/>
<polygon fill="#000000" stroke="#000000" points="2170.5764,-13.8931 2173.1019,-3.6036 2164.711,-10.0723 2170.5764,-13.8931"/>
</g>
<!-- v27&#45;&gt;v35 -->
<g id="edge33" class="edge">
<title>v27&#45;&gt;v35</title>
<path fill="none" stroke="#000000" d="M2266.9892,-143.4494C2254.2472,-135.1145 2207.1537,-104.309 2173.3834,-82.2186"/>
<polygon fill="#000000" stroke="#000000" points="2174.9679,-79.0728 2164.6833,-76.5276 2171.1359,-84.9308 2174.9679,-79.0728"/>
<text text-anchor="middle" x="2247.7768" y="-98.4" font-family="Times,serif" font-size="14.00" fill="#000000">kinex_output</text>
</g>
<!-- v30&#45;&gt;v35 -->
<g id="edge36" class="edge">
<title>v30&#45;&gt;v35</title>
<path fill="none" stroke="#000000" d="M1737.7608,-144.8479C1764.3566,-139.1064 1937.1796,-101.7972 2046.6365,-78.1675"/>
<polygon fill="#000000" stroke="#000000" points="2047.6599,-81.5273 2056.6961,-75.9958 2046.1827,-74.6849 2047.6599,-81.5273"/>
<text text-anchor="middle" x="1993.2768" y="-98.4" font-family="Times,serif" font-size="14.00" fill="#000000">gsea_output</text>
</g>
<!-- v31 -->
<g id="node34" class="node">
<title>v31</title>
<ellipse fill="none" stroke="#000000" cx="734.2768" cy="-319.6" rx="193.8658" ry="18"/>
<text text-anchor="middle" x="734.2768" y="-315.9" font-family="Times,serif" font-size="14.00" fill="#000000">KSTAR_HERNANDEZ2017:make_kstar_networks</text>
</g>
<!-- v31&#45;&gt;v32 -->
<g id="edge37" class="edge">
<title>v31&#45;&gt;v32</title>
<path fill="none" stroke="#000000" d="M728.6841,-301.5735C727.4659,-289.7918 727.2095,-274.1607 727.9147,-260.7581"/>
<polygon fill="#000000" stroke="#000000" points="731.4185,-260.8399 728.6865,-250.6034 724.4386,-260.3093 731.4185,-260.8399"/>
</g>
<!-- v31&#45;&gt;v32 -->
<g id="edge38" class="edge">
<title>v31&#45;&gt;v32</title>
<path fill="none" stroke="#000000" d="M739.8695,-301.5735C741.0877,-289.7918 741.3442,-274.1607 740.6389,-260.7581"/>
<polygon fill="#000000" stroke="#000000" points="744.115,-260.3093 739.8672,-250.6034 737.1351,-260.8399 744.115,-260.3093"/>
</g>
<!-- v34 -->
<g id="node36" class="node">
<title>v34</title>
<ellipse fill="#000000" stroke="#000000" cx="1155.2768" cy="-58.6" rx="1.8" ry="1.8"/>
</g>
<!-- v33&#45;&gt;v34 -->
<g id="edge41" class="edge">
<title>v33&#45;&gt;v34</title>
<path fill="none" stroke="#000000" d="M1155.2768,-127.5735C1155.2768,-110.502 1155.2768,-85.3487 1155.2768,-70.6035"/>
<polygon fill="#000000" stroke="#000000" points="1158.7769,-70.5185 1155.2768,-60.5185 1151.7769,-70.5185 1158.7769,-70.5185"/>
</g>
<!-- v40 -->
<g id="node41" class="node">
<title>v40</title>
<ellipse fill="#000000" stroke="#000000" cx="3349.2768" cy="-667.6" rx="3.6" ry="3.6"/>
<text text-anchor="middle" x="3295.6768" y="-675" font-family="Times,serif" font-size="14.00" fill="#000000">Channel.fromPath</text>
</g>
<!-- v42 -->
<g id="node42" class="node">
<title>v42</title>
<ellipse fill="none" stroke="#000000" cx="3387.2768" cy="-580.6" rx="3.5" ry="3.5"/>
<text text-anchor="middle" x="3359.7768" y="-587.9" font-family="Times,serif" font-size="14.00" fill="#000000">combine</text>
</g>
<!-- v40&#45;&gt;v42 -->
<g id="edge47" class="edge">
<title>v40&#45;&gt;v42</title>
<path fill="none" stroke="#000000" d="M3348.4411,-663.9402C3346.6504,-655.2769 3343.1568,-633.0109 3350.2768,-616.6 3355.5072,-604.5446 3366.8839,-594.489 3375.6504,-588.0972"/>
<polygon fill="#000000" stroke="#000000" points="3377.8451,-590.8404 3384.2179,-582.3765 3373.9579,-585.0189 3377.8451,-590.8404"/>
<text text-anchor="middle" x="3377.2768" y="-620.4" font-family="Times,serif" font-size="14.00" fill="#000000">config_ch</text>
</g>
<!-- v43 -->
<g id="node44" class="node">
<title>v43</title>
<ellipse fill="none" stroke="#000000" cx="3387.2768" cy="-493.6" rx="112.3801" ry="18"/>
<text text-anchor="middle" x="3387.2768" y="-489.9" font-family="Times,serif" font-size="14.00" fill="#000000">PUBLISH_CONFIG:publish</text>
</g>
<!-- v42&#45;&gt;v43 -->
<g id="edge49" class="edge">
<title>v42&#45;&gt;v43</title>
<path fill="none" stroke="#000000" d="M3387.2768,-576.8617C3387.2768,-567.445 3387.2768,-542.053 3387.2768,-521.7647"/>
<polygon fill="#000000" stroke="#000000" points="3390.7769,-521.7321 3387.2768,-511.7322 3383.7769,-521.7322 3390.7769,-521.7321"/>
</g>
<!-- v41 -->
<g id="node43" class="node">
<title>v41</title>
<ellipse fill="#000000" stroke="#000000" cx="3426.2768" cy="-667.6" rx="3.6" ry="3.6"/>
<text text-anchor="middle" x="3392.1768" y="-675" font-family="Times,serif" font-size="14.00" fill="#000000">Channel.of</text>
</g>
<!-- v41&#45;&gt;v42 -->
<g id="edge48" class="edge">
<title>v41&#45;&gt;v42</title>
<path fill="none" stroke="#000000" d="M3424.7187,-663.8695C3421.1775,-655.4175 3412.215,-634.1762 3404.2768,-616.6 3400.7775,-608.852 3396.7164,-600.2388 3393.4411,-593.3803"/>
<polygon fill="#000000" stroke="#000000" points="3396.3975,-591.4521 3388.9089,-583.9573 3390.0892,-594.4862 3396.3975,-591.4521"/>
<text text-anchor="middle" x="3429.2768" y="-620.4" font-family="Times,serif" font-size="14.00" fill="#000000">val_ch</text>
</g>
<!-- v44 -->
<g id="node45" class="node">
<title>v44</title>
<ellipse fill="#000000" stroke="#000000" cx="3387.2768" cy="-406.6" rx="1.8" ry="1.8"/>
</g>
<!-- v43&#45;&gt;v44 -->
<g id="edge50" class="edge">
<title>v43&#45;&gt;v44</title>
<path fill="none" stroke="#000000" d="M3387.2768,-475.5735C3387.2768,-458.502 3387.2768,-433.3487 3387.2768,-418.6035"/>
<polygon fill="#000000" stroke="#000000" points="3390.7769,-418.5185 3387.2768,-408.5185 3383.7769,-418.5185 3390.7769,-418.5185"/>
</g>
</g>
</svg>
