<?xml version="1.0" encoding="UTF-8" standalone="no"?>
<!DOCTYPE svg PUBLIC "-//W3C//DTD SVG 1.1//EN"
 "http://www.w3.org/Graphics/SVG/1.1/DTD/svg11.dtd">
<!-- Generated by graphviz version 2.40.1 (0)
 -->
<!-- Title: flowchart Pages: 1 -->
<svg width="2510pt" height="672pt"
 viewBox="0.00 0.00 2510.44 672.20" xmlns="http://www.w3.org/2000/svg" xmlns:xlink="http://www.w3.org/1999/xlink">
<g id="graph0" class="graph" transform="scale(1 1) rotate(0) translate(4 668.2)">
<title>flowchart</title>
<polygon fill="#ffffff" stroke="transparent" points="-4,4 -4,-668.2 2506.44,-668.2 2506.44,4 -4,4"/>
<!-- p0 -->
<g id="node1" class="node">
<title>p0</title>
<ellipse fill="none" stroke="#000000" cx="1111" cy="-558.6" rx="131.8766" ry="18"/>
<text text-anchor="middle" x="1111" y="-554.9" font-family="Times,serif" font-size="14.00" fill="#000000">GET_GENE_ID_DICT:dl_human</text>
</g>
<!-- p1 -->
<g id="node2" class="node">
<title>p1</title>
<ellipse fill="none" stroke="#000000" cx="1096" cy="-471.6" rx="178.9686" ry="18"/>
<text text-anchor="middle" x="1096" y="-467.9" font-family="Times,serif" font-size="14.00" fill="#000000">GET_GENE_ID_DICT:uniprotac_to_ensp_dict</text>
</g>
<!-- p0&#45;&gt;p1 -->
<g id="edge1" class="edge">
<title>p0&#45;&gt;p1</title>
<path fill="none" stroke="#000000" d="M1107.892,-540.5735C1105.8607,-528.7918 1103.1656,-513.1607 1100.8548,-499.7581"/>
<polygon fill="#000000" stroke="#000000" points="1104.2523,-498.8633 1099.104,-489.6034 1097.3541,-500.0527 1104.2523,-498.8633"/>
<text text-anchor="middle" x="1147" y="-511.4" font-family="Times,serif" font-size="14.00" fill="#000000">uniprot_id_dict</text>
</g>
<!-- p4 -->
<g id="node4" class="node">
<title>p4</title>
<ellipse fill="none" stroke="#000000" cx="1561" cy="-471.6" rx="196.8651" ry="18"/>
<text text-anchor="middle" x="1561" y="-467.9" font-family="Times,serif" font-size="14.00" fill="#000000">Gene_Synonym__2__Gene_Name:IDa2uniprot2IDb</text>
</g>
<!-- p0&#45;&gt;p4 -->
<g id="edge3" class="edge">
<title>p0&#45;&gt;p4</title>
<path fill="none" stroke="#000000" d="M1187.0818,-543.8909C1264.1472,-528.9915 1383.5174,-505.9133 1466.5793,-489.8547"/>
<polygon fill="#000000" stroke="#000000" points="1467.3697,-493.2667 1476.5235,-487.9321 1466.0409,-486.394 1467.3697,-493.2667"/>
<text text-anchor="middle" x="1405" y="-511.4" font-family="Times,serif" font-size="14.00" fill="#000000">uniprot_id_dict</text>
</g>
<!-- p21 -->
<g id="node3" class="node">
<title>p21</title>
<ellipse fill="none" stroke="#000000" cx="1187" cy="-384.6" rx="273.7515" ry="18"/>
<text text-anchor="middle" x="1187" y="-380.9" font-family="Times,serif" font-size="14.00" fill="#000000">HERNANDEZ2017_DATASET:hernandez2017_rnk_translate1col_w_dict</text>
</g>
<!-- p1&#45;&gt;p21 -->
<g id="edge2" class="edge">
<title>p1&#45;&gt;p21</title>
<path fill="none" stroke="#000000" d="M1095.5686,-453.3628C1096.2232,-442.7796 1098.6876,-429.7713 1106,-420.6 1109.9663,-415.6253 1114.7642,-411.3185 1120.0215,-407.5936"/>
<polygon fill="#000000" stroke="#000000" points="1121.997,-410.4861 1128.6078,-402.2068 1118.2768,-404.5564 1121.997,-410.4861"/>
<text text-anchor="middle" x="1165" y="-424.4" font-family="Times,serif" font-size="14.00" fill="#000000">uniprotac2ENSP_dict</text>
</g>
<!-- p22 -->
<g id="node27" class="node">
<title>p22</title>
<ellipse fill="none" stroke="#000000" cx="891" cy="-276.6" rx="231.259" ry="18"/>
<text text-anchor="middle" x="891" y="-272.9" font-family="Times,serif" font-size="14.00" fill="#000000">HERNANDEZ2017_DATASET:hernandez2017_make_seqrnk</text>
</g>
<!-- p21&#45;&gt;p22 -->
<g id="edge26" class="edge">
<title>p21&#45;&gt;p22</title>
<path fill="none" stroke="#000000" d="M1138.1216,-366.766C1086.2291,-347.8322 1004.2477,-317.9201 949.0916,-297.7956"/>
<polygon fill="#000000" stroke="#000000" points="950.0529,-294.4207 939.459,-294.281 947.6536,-300.9967 950.0529,-294.4207"/>
</g>
<!-- p23 -->
<g id="node28" class="node">
<title>p23</title>
<ellipse fill="none" stroke="#000000" cx="1360" cy="-276.6" rx="219.8612" ry="18"/>
<text text-anchor="middle" x="1360" y="-272.9" font-family="Times,serif" font-size="14.00" fill="#000000">HERNANDEZ2017_DATASET:hernandez2017_make_rnk</text>
</g>
<!-- p21&#45;&gt;p23 -->
<g id="edge28" class="edge">
<title>p21&#45;&gt;p23</title>
<path fill="none" stroke="#000000" d="M1215.9563,-366.5232C1245.2346,-348.2454 1290.6102,-319.9185 1322.5956,-299.9507"/>
<polygon fill="#000000" stroke="#000000" points="1324.6083,-302.8203 1331.2376,-294.5557 1320.9014,-296.8824 1324.6083,-302.8203"/>
</g>
<!-- p6 -->
<g id="node7" class="node">
<title>p6</title>
<ellipse fill="none" stroke="#000000" cx="615" cy="-384.6" rx="207.9631" ry="18"/>
<text text-anchor="middle" x="615" y="-380.9" font-family="Times,serif" font-size="14.00" fill="#000000">SER_THR_KINASES_PSSM:get_ser_thr_kinase_pssm</text>
</g>
<!-- p4&#45;&gt;p6 -->
<g id="edge6" class="edge">
<title>p4&#45;&gt;p6</title>
<path fill="none" stroke="#000000" d="M1404.0665,-460.6774C1340.5128,-454.8002 1275.2774,-446.4901 1246,-435.6 1234.9082,-431.4743 1235.206,-424.4046 1224,-420.6 1156.5576,-397.7022 975.0988,-406.8138 904,-402.6 868.2212,-400.4795 829.9555,-398.144 793.3631,-395.8777"/>
<polygon fill="#000000" stroke="#000000" points="793.2875,-392.3664 783.09,-395.2406 792.8541,-399.353 793.2875,-392.3664"/>
<text text-anchor="middle" x="1256.5" y="-424.4" font-family="Times,serif" font-size="14.00" fill="#000000">dict</text>
</g>
<!-- p12 -->
<g id="node15" class="node">
<title>p12</title>
<ellipse fill="none" stroke="#000000" cx="2024" cy="-276.6" rx="124.5782" ry="18"/>
<text text-anchor="middle" x="2024" y="-272.9" font-family="Times,serif" font-size="14.00" fill="#000000">PSP:translate_kin_phos_clusters</text>
</g>
<!-- p4&#45;&gt;p12 -->
<g id="edge14" class="edge">
<title>p4&#45;&gt;p12</title>
<path fill="none" stroke="#000000" d="M1663.932,-456.2073C1781.4195,-436.5184 1963.3887,-398.8619 2010,-348.6 2020.7999,-336.9542 2024.3994,-319.5652 2025.2511,-304.7939"/>
<polygon fill="#000000" stroke="#000000" points="2028.7537,-304.6865 2025.4493,-294.6202 2021.7551,-304.5501 2028.7537,-304.6865"/>
<text text-anchor="middle" x="1995.5" y="-380.9" font-family="Times,serif" font-size="14.00" fill="#000000">dict</text>
</g>
<!-- p17 -->
<g id="node21" class="node">
<title>p17</title>
<ellipse fill="none" stroke="#000000" cx="1798" cy="-330.6" rx="210.6627" ry="18"/>
<text text-anchor="middle" x="1798" y="-326.9" font-family="Times,serif" font-size="14.00" fill="#000000">KINEX_SCORING_MATRIX:dl_kinex_scoring_matrix</text>
</g>
<!-- p4&#45;&gt;p17 -->
<g id="edge20" class="edge">
<title>p4&#45;&gt;p17</title>
<path fill="none" stroke="#000000" d="M1591.0162,-453.7423C1633.727,-428.332 1712.068,-381.7241 1759.1569,-353.7092"/>
<polygon fill="#000000" stroke="#000000" points="1761.0496,-356.6558 1767.8541,-348.5349 1757.4705,-350.6399 1761.0496,-356.6558"/>
<text text-anchor="middle" x="1655.5" y="-424.4" font-family="Times,serif" font-size="14.00" fill="#000000">dict</text>
</g>
<!-- p26 -->
<g id="node22" class="node">
<title>p26</title>
<ellipse fill="none" stroke="#000000" cx="1269" cy="-189.6" rx="150.5735" ry="18"/>
<text text-anchor="middle" x="1269" y="-185.9" font-family="Times,serif" font-size="14.00" fill="#000000">KINEX_HERNANDEZ2017:run_kinex</text>
</g>
<!-- p4&#45;&gt;p26 -->
<g id="edge34" class="edge">
<title>p4&#45;&gt;p26</title>
<path fill="none" stroke="#000000" d="M1554.7559,-453.3895C1545.2344,-422.1557 1530.7923,-357.4111 1557,-312.6 1565.238,-298.5143 1580.762,-308.6857 1589,-294.6 1597.0775,-280.7886 1599.0509,-271.0491 1589,-258.6 1565.0832,-228.9764 1478.546,-211.4607 1401.4879,-201.4935"/>
<polygon fill="#000000" stroke="#000000" points="1401.5311,-197.9715 1391.1725,-200.1962 1400.6576,-204.9168 1401.5311,-197.9715"/>
<text text-anchor="middle" x="1567.5" y="-326.9" font-family="Times,serif" font-size="14.00" fill="#000000">dict</text>
</g>
<!-- p2 -->
<g id="node5" class="node">
<title>p2</title>
<ellipse fill="#000000" stroke="#000000" cx="1584" cy="-558.6" rx="3.6" ry="3.6"/>
</g>
<!-- p2&#45;&gt;p4 -->
<g id="edge4" class="edge">
<title>p2&#45;&gt;p4</title>
<path fill="none" stroke="#000000" d="M1583.0117,-554.8617C1580.5108,-545.4018 1573.7477,-519.8197 1568.3721,-499.4859"/>
<polygon fill="#000000" stroke="#000000" points="1571.7333,-498.5054 1565.7936,-489.7322 1564.9657,-500.2946 1571.7333,-498.5054"/>
<text text-anchor="middle" x="1584.5" y="-511.4" font-family="Times,serif" font-size="14.00" fill="#000000">IDa</text>
</g>
<!-- p3 -->
<g id="node6" class="node">
<title>p3</title>
<ellipse fill="#000000" stroke="#000000" cx="1539" cy="-558.6" rx="3.6" ry="3.6"/>
</g>
<!-- p3&#45;&gt;p4 -->
<g id="edge5" class="edge">
<title>p3&#45;&gt;p4</title>
<path fill="none" stroke="#000000" d="M1538.435,-554.7943C1537.2941,-546.1881 1535.2102,-524.6518 1540,-507.6 1540.8341,-504.6307 1541.9726,-501.6522 1543.291,-498.7498"/>
<polygon fill="#000000" stroke="#000000" points="1546.4174,-500.3243 1547.9631,-489.8428 1540.2184,-497.0727 1546.4174,-500.3243"/>
<text text-anchor="middle" x="1551" y="-511.4" font-family="Times,serif" font-size="14.00" fill="#000000">IDb</text>
</g>
<!-- p15 -->
<g id="node9" class="node">
<title>p15</title>
<ellipse fill="none" stroke="#000000" cx="257" cy="-276.6" rx="228.5596" ry="18"/>
<text text-anchor="middle" x="257" y="-272.9" font-family="Times,serif" font-size="14.00" fill="#000000">PSSM_BACKGROUND_SCORES:pssm_background_scores</text>
</g>
<!-- p6&#45;&gt;p15 -->
<g id="edge8" class="edge">
<title>p6&#45;&gt;p15</title>
<path fill="none" stroke="#000000" d="M507.7968,-369.1455C475.9663,-363.3354 445.8925,-356.2636 432,-348.6 412.7297,-337.9697 416.9666,-323.7631 398,-312.6 386.8089,-306.0133 374.4279,-300.6203 361.7857,-296.2072"/>
<polygon fill="#000000" stroke="#000000" points="362.6756,-292.8156 352.0827,-293.02 360.491,-299.466 362.6756,-292.8156"/>
<text text-anchor="middle" x="470" y="-326.9" font-family="Times,serif" font-size="14.00" fill="#000000">pssm_dict_h5</text>
</g>
<!-- p8 -->
<g id="node10" class="node">
<title>p8</title>
<ellipse fill="#000000" stroke="#000000" cx="640" cy="-276.6" rx="1.8" ry="1.8"/>
</g>
<!-- p6&#45;&gt;p8 -->
<g id="edge9" class="edge">
<title>p6&#45;&gt;p8</title>
<path fill="none" stroke="#000000" d="M620.9687,-366.3892C622.7161,-360.7241 624.5457,-354.4339 626,-348.6 631.2284,-327.6257 635.6786,-302.8097 638.0838,-288.4689"/>
<polygon fill="#000000" stroke="#000000" points="641.5712,-288.8285 639.7218,-278.3964 634.662,-287.7049 641.5712,-288.8285"/>
</g>
<!-- p7 -->
<g id="node11" class="node">
<title>p7</title>
<ellipse fill="#000000" stroke="#000000" cx="618" cy="-276.6" rx="1.8" ry="1.8"/>
</g>
<!-- p6&#45;&gt;p7 -->
<g id="edge10" class="edge">
<title>p6&#45;&gt;p7</title>
<path fill="none" stroke="#000000" d="M615.5089,-366.2793C616.1223,-344.1965 617.136,-307.7047 617.6611,-288.7993"/>
<polygon fill="#000000" stroke="#000000" points="621.1654,-288.6923 617.9445,-278.5989 614.1681,-288.4978 621.1654,-288.6923"/>
</g>
<!-- p24 -->
<g id="node19" class="node">
<title>p24</title>
<ellipse fill="none" stroke="#000000" cx="706" cy="-189.6" rx="154.0727" ry="18"/>
<text text-anchor="middle" x="706" y="-185.9" font-family="Times,serif" font-size="14.00" fill="#000000">PHOSX_HERNANDEZ2017:run_phosx</text>
</g>
<!-- p6&#45;&gt;p24 -->
<g id="edge30" class="edge">
<title>p6&#45;&gt;p24</title>
<path fill="none" stroke="#000000" d="M587.89,-366.5829C554.431,-342.0619 504.9645,-296.8516 531,-258.6 543.4024,-240.3783 591.381,-222.1886 633.9698,-209.0633"/>
<polygon fill="#000000" stroke="#000000" points="635.245,-212.3343 643.8047,-206.0907 633.2197,-205.6337 635.245,-212.3343"/>
<text text-anchor="middle" x="569" y="-272.9" font-family="Times,serif" font-size="14.00" fill="#000000">pssm_dict_h5</text>
</g>
<!-- p5 -->
<g id="node8" class="node">
<title>p5</title>
<ellipse fill="none" stroke="#000000" cx="615" cy="-471.6" rx="265.3531" ry="18"/>
<text text-anchor="middle" x="615" y="-467.9" font-family="Times,serif" font-size="14.00" fill="#000000">SER_THR_KINASES_PSSM:get_ser_thr_kinome_2023_suppl_table_2</text>
</g>
<!-- p5&#45;&gt;p6 -->
<g id="edge7" class="edge">
<title>p5&#45;&gt;p6</title>
<path fill="none" stroke="#000000" d="M615,-453.5735C615,-441.7918 615,-426.1607 615,-412.7581"/>
<polygon fill="#000000" stroke="#000000" points="618.5001,-412.6033 615,-402.6034 611.5001,-412.6034 618.5001,-412.6033"/>
</g>
<!-- p15&#45;&gt;p24 -->
<g id="edge18" class="edge">
<title>p15&#45;&gt;p24</title>
<path fill="none" stroke="#000000" d="M304.6369,-258.9871C336.3596,-247.8879 379.1906,-234.0979 418,-225.6 467.5041,-214.7603 522.5611,-206.8814 571.1676,-201.3099"/>
<polygon fill="#000000" stroke="#000000" points="571.5716,-204.7867 581.1179,-200.1911 570.7894,-197.8305 571.5716,-204.7867"/>
<text text-anchor="middle" x="463" y="-229.4" font-family="Times,serif" font-size="14.00" fill="#000000">pssm_bg_scores</text>
</g>
<!-- p16 -->
<g id="node20" class="node">
<title>p16</title>
<ellipse fill="#000000" stroke="#000000" cx="257" cy="-189.6" rx="1.8" ry="1.8"/>
</g>
<!-- p15&#45;&gt;p16 -->
<g id="edge19" class="edge">
<title>p15&#45;&gt;p16</title>
<path fill="none" stroke="#000000" d="M257,-258.5735C257,-241.502 257,-216.3487 257,-201.6035"/>
<polygon fill="#000000" stroke="#000000" points="260.5001,-201.5185 257,-191.5185 253.5001,-201.5185 260.5001,-201.5185"/>
<text text-anchor="middle" x="264" y="-229.4" font-family="Times,serif" font-size="14.00" fill="#000000">h5</text>
</g>
<!-- p9 -->
<g id="node12" class="node">
<title>p9</title>
<ellipse fill="#000000" stroke="#000000" cx="2154" cy="-558.6" rx="3.6" ry="3.6"/>
</g>
<!-- p10 -->
<g id="node13" class="node">
<title>p10</title>
<ellipse fill="none" stroke="#000000" cx="2154" cy="-471.6" rx="105.8812" ry="18"/>
<text text-anchor="middle" x="2154" y="-467.9" font-family="Times,serif" font-size="14.00" fill="#000000">PSP:psp_kinase_substrates</text>
</g>
<!-- p9&#45;&gt;p10 -->
<g id="edge11" class="edge">
<title>p9&#45;&gt;p10</title>
<path fill="none" stroke="#000000" d="M2154,-554.8617C2154,-545.445 2154,-520.053 2154,-499.7647"/>
<polygon fill="#000000" stroke="#000000" points="2157.5001,-499.7321 2154,-489.7322 2150.5001,-499.7322 2157.5001,-499.7321"/>
<text text-anchor="middle" x="2238.5" y="-511.4" font-family="Times,serif" font-size="14.00" fill="#000000">input/psp_kinase_substrates.gz</text>
</g>
<!-- p11 -->
<g id="node14" class="node">
<title>p11</title>
<ellipse fill="none" stroke="#000000" cx="2154" cy="-384.6" rx="90.9839" ry="18"/>
<text text-anchor="middle" x="2154" y="-380.9" font-family="Times,serif" font-size="14.00" fill="#000000">PSP:kin_phos_clusters</text>
</g>
<!-- p10&#45;&gt;p11 -->
<g id="edge12" class="edge">
<title>p10&#45;&gt;p11</title>
<path fill="none" stroke="#000000" d="M2154,-453.5735C2154,-441.7918 2154,-426.1607 2154,-412.7581"/>
<polygon fill="#000000" stroke="#000000" points="2157.5001,-412.6033 2154,-402.6034 2150.5001,-412.6034 2157.5001,-412.6033"/>
</g>
<!-- p11&#45;&gt;p12 -->
<g id="edge13" class="edge">
<title>p11&#45;&gt;p12</title>
<path fill="none" stroke="#000000" d="M2132.8239,-367.0076C2111.2341,-349.0714 2077.5702,-321.1045 2053.4014,-301.0258"/>
<polygon fill="#000000" stroke="#000000" points="2055.5287,-298.2429 2045.6002,-294.5448 2051.0556,-303.6272 2055.5287,-298.2429"/>
</g>
<!-- p28 -->
<g id="node16" class="node">
<title>p28</title>
<ellipse fill="none" stroke="#000000" cx="1687" cy="-189.6" rx="142.9746" ry="18"/>
<text text-anchor="middle" x="1687" y="-185.9" font-family="Times,serif" font-size="14.00" fill="#000000">GSEA_HERNANDEZ2017:run_gsea</text>
</g>
<!-- p12&#45;&gt;p28 -->
<g id="edge15" class="edge">
<title>p12&#45;&gt;p28</title>
<path fill="none" stroke="#000000" d="M1962.9718,-260.845C1905.8356,-246.0947 1820.4043,-224.0397 1759.7496,-208.3811"/>
<polygon fill="#000000" stroke="#000000" points="1760.4166,-204.9386 1749.8592,-205.8277 1758.6668,-211.7164 1760.4166,-204.9386"/>
<text text-anchor="middle" x="1934" y="-229.4" font-family="Times,serif" font-size="14.00" fill="#000000">psp_kin_sub_clusters</text>
</g>
<!-- p30 -->
<g id="node31" class="node">
<title>p30</title>
<ellipse fill="none" stroke="#000000" cx="1369" cy="-131.1" rx="3.5" ry="3.5"/>
<text text-anchor="middle" x="1347" y="-138.4" font-family="Times,serif" font-size="14.00" fill="#000000">collect</text>
</g>
<!-- p28&#45;&gt;p30 -->
<g id="edge37" class="edge">
<title>p28&#45;&gt;p30</title>
<path fill="none" stroke="#000000" d="M1605.9324,-174.6866C1529.2213,-160.5747 1420.3569,-140.5477 1382.5527,-133.5932"/>
<polygon fill="#000000" stroke="#000000" points="1383.0737,-130.1304 1372.6055,-131.7633 1381.8072,-137.0149 1383.0737,-130.1304"/>
</g>
<!-- p29 -->
<g id="node32" class="node">
<title>p29</title>
<ellipse fill="#000000" stroke="#000000" cx="1687" cy="-131.1" rx="1.8" ry="1.8"/>
</g>
<!-- p28&#45;&gt;p29 -->
<g id="edge38" class="edge">
<title>p28&#45;&gt;p29</title>
<path fill="none" stroke="#000000" d="M1687,-171.4109C1687,-162.1893 1687,-151.2476 1687,-143.0923"/>
<polygon fill="#000000" stroke="#000000" points="1690.5001,-143.0028 1687,-133.0028 1683.5001,-143.0028 1690.5001,-143.0028"/>
</g>
<!-- p13 -->
<g id="node17" class="node">
<title>p13</title>
<ellipse fill="#000000" stroke="#000000" cx="257" cy="-471.6" rx="3.6" ry="3.6"/>
</g>
<!-- p14 -->
<g id="node18" class="node">
<title>p14</title>
<ellipse fill="none" stroke="#000000" cx="257" cy="-384.6" rx="103.1819" ry="18"/>
<text text-anchor="middle" x="257" y="-380.9" font-family="Times,serif" font-size="14.00" fill="#000000">PSP:hs_phosphoproteome</text>
</g>
<!-- p13&#45;&gt;p14 -->
<g id="edge16" class="edge">
<title>p13&#45;&gt;p14</title>
<path fill="none" stroke="#000000" d="M257,-467.8617C257,-458.445 257,-433.053 257,-412.7647"/>
<polygon fill="#000000" stroke="#000000" points="260.5001,-412.7321 257,-402.7322 253.5001,-412.7322 260.5001,-412.7321"/>
<text text-anchor="middle" x="360" y="-424.4" font-family="Times,serif" font-size="14.00" fill="#000000">input/Phosphorylation_site_dataset.gz</text>
</g>
<!-- p14&#45;&gt;p15 -->
<g id="edge17" class="edge">
<title>p14&#45;&gt;p15</title>
<path fill="none" stroke="#000000" d="M257,-366.2793C257,-349.421 257,-324.1651 257,-304.747"/>
<polygon fill="#000000" stroke="#000000" points="260.5001,-304.6501 257,-294.6502 253.5001,-304.6502 260.5001,-304.6501"/>
<text text-anchor="middle" x="325.5" y="-326.9" font-family="Times,serif" font-size="14.00" fill="#000000">human_phosphosites_tsv</text>
</g>
<!-- p25 -->
<g id="node29" class="node">
<title>p25</title>
<ellipse fill="none" stroke="#000000" cx="743" cy="-131.1" rx="3.5" ry="3.5"/>
<text text-anchor="middle" x="721" y="-138.4" font-family="Times,serif" font-size="14.00" fill="#000000">collect</text>
</g>
<!-- p24&#45;&gt;p25 -->
<g id="edge31" class="edge">
<title>p24&#45;&gt;p25</title>
<path fill="none" stroke="#000000" d="M717.5042,-171.4109C723.4043,-162.0824 730.4177,-150.9937 735.5938,-142.8097"/>
<polygon fill="#000000" stroke="#000000" points="738.7045,-144.4393 741.0918,-134.1169 732.7884,-140.6975 738.7045,-144.4393"/>
</g>
<!-- p17&#45;&gt;p26 -->
<g id="edge21" class="edge">
<title>p17&#45;&gt;p26</title>
<path fill="none" stroke="#000000" d="M1775.4141,-312.6361C1743.3797,-288.2537 1681.9532,-245.4526 1622,-225.6 1584.2153,-213.0882 1494.6317,-204.0349 1415.1706,-198.1366"/>
<polygon fill="#000000" stroke="#000000" points="1415.2636,-194.6342 1405.0354,-197.3971 1414.7542,-201.6156 1415.2636,-194.6342"/>
<text text-anchor="middle" x="1792.5" y="-272.9" font-family="Times,serif" font-size="14.00" fill="#000000">scoring_matrix</text>
</g>
<!-- p27 -->
<g id="node30" class="node">
<title>p27</title>
<ellipse fill="none" stroke="#000000" cx="1146" cy="-131.1" rx="3.5" ry="3.5"/>
<text text-anchor="middle" x="1124" y="-138.4" font-family="Times,serif" font-size="14.00" fill="#000000">collect</text>
</g>
<!-- p26&#45;&gt;p27 -->
<g id="edge35" class="edge">
<title>p26&#45;&gt;p27</title>
<path fill="none" stroke="#000000" d="M1232.0959,-172.0481C1207.2583,-160.235 1176.0125,-145.3742 1158.8178,-137.1963"/>
<polygon fill="#000000" stroke="#000000" points="1159.944,-133.8562 1149.41,-132.7218 1156.9374,-140.1777 1159.944,-133.8562"/>
</g>
<!-- p18 -->
<g id="node23" class="node">
<title>p18</title>
<ellipse fill="none" stroke="#000000" cx="331" cy="-645.6" rx="231.259" ry="18"/>
<text text-anchor="middle" x="331" y="-641.9" font-family="Times,serif" font-size="14.00" fill="#000000">HERNANDEZ2017_DATASET:parse_hernandez2017_dataset</text>
</g>
<!-- p19 -->
<g id="node24" class="node">
<title>p19</title>
<ellipse fill="none" stroke="#000000" cx="1287" cy="-558.6" rx="3.5" ry="3.5"/>
<text text-anchor="middle" x="1305" y="-565.9" font-family="Times,serif" font-size="14.00" fill="#000000">flatMap</text>
</g>
<!-- p18&#45;&gt;p19 -->
<g id="edge22" class="edge">
<title>p18&#45;&gt;p19</title>
<path fill="none" stroke="#000000" d="M547.8246,-639.3021C777.5726,-630.8615 1124.4419,-612.5759 1252,-576.6 1260.0889,-574.3187 1268.4846,-570.0742 1275.025,-566.2798"/>
<polygon fill="#000000" stroke="#000000" points="1277.2663,-569.0069 1283.8987,-560.7448 1273.5616,-563.0675 1277.2663,-569.0069"/>
</g>
<!-- p31 -->
<g id="node25" class="node">
<title>p31</title>
<ellipse fill="none" stroke="#000000" cx="1024" cy="-58.6" rx="300.8466" ry="18"/>
<text text-anchor="middle" x="1024" y="-54.9" font-family="Times,serif" font-size="14.00" fill="#000000">BENCHMARK_PHOSX_HERNANDEZ2017:benchmark_phosx_hernandez2017</text>
</g>
<!-- p18&#45;&gt;p31 -->
<g id="edge23" class="edge">
<title>p18&#45;&gt;p31</title>
<path fill="none" stroke="#000000" d="M176.1604,-632.1463C90.0141,-620.216 0,-598.2609 0,-558.6 0,-558.6 0,-558.6 0,-131.1 0,-94.1211 430.509,-74.6158 733.2453,-65.4711"/>
<polygon fill="#000000" stroke="#000000" points="733.6199,-68.9616 743.5105,-65.1636 733.4101,-61.9647 733.6199,-68.9616"/>
<text text-anchor="middle" x="25" y="-326.9" font-family="Times,serif" font-size="14.00" fill="#000000">metadata</text>
</g>
<!-- p20 -->
<g id="node26" class="node">
<title>p20</title>
<ellipse fill="none" stroke="#000000" cx="1296" cy="-471.6" rx="3.5" ry="3.5"/>
<text text-anchor="middle" x="1305" y="-478.9" font-family="Times,serif" font-size="14.00" fill="#000000">map</text>
</g>
<!-- p19&#45;&gt;p20 -->
<g id="edge24" class="edge">
<title>p19&#45;&gt;p20</title>
<path fill="none" stroke="#000000" d="M1287.3867,-554.8617C1288.6127,-543.0107 1292.4561,-505.8578 1294.5705,-485.4184"/>
<polygon fill="#000000" stroke="#000000" points="1298.0771,-485.5346 1295.6247,-475.2275 1291.1142,-484.8143 1298.0771,-485.5346"/>
</g>
<!-- p34 -->
<g id="node33" class="node">
<title>p34</title>
<ellipse fill="#000000" stroke="#000000" cx="999" cy="-1.8" rx="1.8" ry="1.8"/>
</g>
<!-- p31&#45;&gt;p34 -->
<g id="edge40" class="edge">
<title>p31&#45;&gt;p34</title>
<path fill="none" stroke="#000000" d="M1015.9522,-40.3155C1011.9805,-31.2917 1007.3189,-20.7006 1003.8903,-12.9109"/>
<polygon fill="#000000" stroke="#000000" points="1007.0258,-11.3463 999.7939,-3.6036 1000.6189,-14.1663 1007.0258,-11.3463"/>
</g>
<!-- p33 -->
<g id="node34" class="node">
<title>p33</title>
<ellipse fill="#000000" stroke="#000000" cx="1024" cy="-1.8" rx="1.8" ry="1.8"/>
</g>
<!-- p31&#45;&gt;p33 -->
<g id="edge41" class="edge">
<title>p31&#45;&gt;p33</title>
<path fill="none" stroke="#000000" d="M1024,-40.3155C1024,-31.6139 1024,-21.4551 1024,-13.756"/>
<polygon fill="#000000" stroke="#000000" points="1027.5001,-13.6036 1024,-3.6036 1020.5001,-13.6037 1027.5001,-13.6036"/>
</g>
<!-- p32 -->
<g id="node35" class="node">
<title>p32</title>
<ellipse fill="#000000" stroke="#000000" cx="1049" cy="-1.8" rx="1.8" ry="1.8"/>
</g>
<!-- p31&#45;&gt;p32 -->
<g id="edge42" class="edge">
<title>p31&#45;&gt;p32</title>
<path fill="none" stroke="#000000" d="M1032.0478,-40.3155C1036.0195,-31.2917 1040.6811,-20.7006 1044.1097,-12.9109"/>
<polygon fill="#000000" stroke="#000000" points="1047.3811,-14.1663 1048.2061,-3.6036 1040.9742,-11.3463 1047.3811,-14.1663"/>
</g>
<!-- p20&#45;&gt;p21 -->
<g id="edge25" class="edge">
<title>p20&#45;&gt;p21</title>
<path fill="none" stroke="#000000" d="M1295.1966,-468.1249C1292.9397,-459.0898 1285.7243,-434.5935 1271,-420.6 1265.6233,-415.4902 1259.4091,-411.0461 1252.8425,-407.195"/>
<polygon fill="#000000" stroke="#000000" points="1254.1827,-403.9423 1243.7152,-402.3042 1250.8765,-410.1123 1254.1827,-403.9423"/>
<text text-anchor="middle" x="1328.5" y="-424.4" font-family="Times,serif" font-size="14.00" fill="#000000">untranslated_rnk</text>
</g>
<!-- p22&#45;&gt;p24 -->
<g id="edge27" class="edge">
<title>p22&#45;&gt;p24</title>
<path fill="none" stroke="#000000" d="M853.1161,-258.7843C823.9926,-245.0884 783.6155,-226.1003 752.528,-211.4807"/>
<polygon fill="#000000" stroke="#000000" points="753.7399,-208.183 743.2011,-207.0946 750.7609,-214.5175 753.7399,-208.183"/>
<text text-anchor="middle" x="828.5" y="-229.4" font-family="Times,serif" font-size="14.00" fill="#000000">seqrnk</text>
</g>
<!-- p22&#45;&gt;p26 -->
<g id="edge33" class="edge">
<title>p22&#45;&gt;p26</title>
<path fill="none" stroke="#000000" d="M965.2296,-259.5154C1029.8544,-244.6415 1123.2912,-223.1361 1189.4402,-207.9114"/>
<polygon fill="#000000" stroke="#000000" points="1190.4439,-211.272 1199.4041,-205.6181 1188.8738,-204.4503 1190.4439,-211.272"/>
<text text-anchor="middle" x="1121.5" y="-229.4" font-family="Times,serif" font-size="14.00" fill="#000000">seqrnk</text>
</g>
<!-- p23&#45;&gt;p28 -->
<g id="edge29" class="edge">
<title>p23&#45;&gt;p28</title>
<path fill="none" stroke="#000000" d="M1424.9956,-259.3076C1480.0796,-244.6522 1558.9454,-223.6696 1615.7405,-208.559"/>
<polygon fill="#000000" stroke="#000000" points="1616.9581,-211.8568 1625.722,-205.9033 1615.1583,-205.0922 1616.9581,-211.8568"/>
<text text-anchor="middle" x="1553.5" y="-229.4" font-family="Times,serif" font-size="14.00" fill="#000000">rnk</text>
</g>
<!-- p25&#45;&gt;p31 -->
<g id="edge32" class="edge">
<title>p25&#45;&gt;p31</title>
<path fill="none" stroke="#000000" d="M746.5529,-130.1833C766.9823,-124.9124 871.189,-98.0263 945.8817,-78.7551"/>
<polygon fill="#000000" stroke="#000000" points="946.9451,-82.0954 955.7536,-76.2081 945.1963,-75.3174 946.9451,-82.0954"/>
<text text-anchor="middle" x="921" y="-98.4" font-family="Times,serif" font-size="14.00" fill="#000000">phosx_output</text>
</g>
<!-- p27&#45;&gt;p31 -->
<g id="edge36" class="edge">
<title>p27&#45;&gt;p31</title>
<path fill="none" stroke="#000000" d="M1142.9843,-129.3079C1132.0301,-122.7982 1093.399,-99.8412 1063.0902,-81.8298"/>
<polygon fill="#000000" stroke="#000000" points="1064.7772,-78.761 1054.3925,-76.6611 1061.2011,-84.7786 1064.7772,-78.761"/>
<text text-anchor="middle" x="1142.5" y="-98.4" font-family="Times,serif" font-size="14.00" fill="#000000">kinex_output</text>
</g>
<!-- p30&#45;&gt;p31 -->
<g id="edge39" class="edge">
<title>p30&#45;&gt;p31</title>
<path fill="none" stroke="#000000" d="M1365.1255,-130.2858C1340.9834,-125.2124 1209.2004,-97.5189 1116.6942,-78.0792"/>
<polygon fill="#000000" stroke="#000000" points="1117.2519,-74.62 1106.7458,-75.9886 1115.8122,-81.4704 1117.2519,-74.62"/>
<text text-anchor="middle" x="1291" y="-98.4" font-family="Times,serif" font-size="14.00" fill="#000000">gsea_output</text>
</g>
<!-- p35 -->
<g id="node36" class="node">
<title>p35</title>
<ellipse fill="#000000" stroke="#000000" cx="2351" cy="-645.6" rx="3.6" ry="3.6"/>
<text text-anchor="middle" x="2297.4" y="-653" font-family="Times,serif" font-size="14.00" fill="#000000">Channel.fromPath</text>
</g>
<!-- p37 -->
<g id="node37" class="node">
<title>p37</title>
<ellipse fill="none" stroke="#000000" cx="2390" cy="-558.6" rx="3.5" ry="3.5"/>
<text text-anchor="middle" x="2362.5" y="-565.9" font-family="Times,serif" font-size="14.00" fill="#000000">combine</text>
</g>
<!-- p35&#45;&gt;p37 -->
<g id="edge43" class="edge">
<title>p35&#45;&gt;p37</title>
<path fill="none" stroke="#000000" d="M2349.7431,-642.1768C2346.8335,-633.6636 2340.4394,-611.0384 2348,-594.6 2354.0709,-581.4006 2367.6336,-571.2297 2377.7137,-565.1174"/>
<polygon fill="#000000" stroke="#000000" points="2379.6982,-568.02 2386.7654,-560.1265 2376.3183,-561.89 2379.6982,-568.02"/>
<text text-anchor="middle" x="2375" y="-598.4" font-family="Times,serif" font-size="14.00" fill="#000000">config_ch</text>
</g>
<!-- p38 -->
<g id="node39" class="node">
<title>p38</title>
<ellipse fill="none" stroke="#000000" cx="2390" cy="-471.6" rx="112.3801" ry="18"/>
<text text-anchor="middle" x="2390" y="-467.9" font-family="Times,serif" font-size="14.00" fill="#000000">PUBLISH_CONFIG:publish</text>
</g>
<!-- p37&#45;&gt;p38 -->
<g id="edge45" class="edge">
<title>p37&#45;&gt;p38</title>
<path fill="none" stroke="#000000" d="M2390,-554.8617C2390,-545.445 2390,-520.053 2390,-499.7647"/>
<polygon fill="#000000" stroke="#000000" points="2393.5001,-499.7321 2390,-489.7322 2386.5001,-499.7322 2393.5001,-499.7321"/>
</g>
<!-- p36 -->
<g id="node38" class="node">
<title>p36</title>
<ellipse fill="#000000" stroke="#000000" cx="2428" cy="-645.6" rx="3.6" ry="3.6"/>
<text text-anchor="middle" x="2393.9" y="-653" font-family="Times,serif" font-size="14.00" fill="#000000">Channel.of</text>
</g>
<!-- p36&#45;&gt;p37 -->
<g id="edge44" class="edge">
<title>p36&#45;&gt;p37</title>
<path fill="none" stroke="#000000" d="M2426.4129,-641.8825C2422.8122,-633.4569 2413.7359,-612.2662 2406,-594.6 2402.6255,-586.8939 2398.8001,-578.2822 2395.7361,-571.4142"/>
<polygon fill="#000000" stroke="#000000" points="2398.7899,-569.6694 2391.5124,-561.9695 2392.3998,-572.5272 2398.7899,-569.6694"/>
<text text-anchor="middle" x="2431" y="-598.4" font-family="Times,serif" font-size="14.00" fill="#000000">val_ch</text>
</g>
<!-- p39 -->
<g id="node40" class="node">
<title>p39</title>
<ellipse fill="#000000" stroke="#000000" cx="2390" cy="-384.6" rx="1.8" ry="1.8"/>
</g>
<!-- p38&#45;&gt;p39 -->
<g id="edge46" class="edge">
<title>p38&#45;&gt;p39</title>
<path fill="none" stroke="#000000" d="M2390,-453.5735C2390,-436.502 2390,-411.3487 2390,-396.6035"/>
<polygon fill="#000000" stroke="#000000" points="2393.5001,-396.5185 2390,-386.5185 2386.5001,-396.5185 2393.5001,-396.5185"/>
</g>
</g>
</svg>
