<?xml version="1.0" encoding="UTF-8" standalone="no"?>
<!DOCTYPE svg PUBLIC "-//W3C//DTD SVG 1.1//EN"
 "http://www.w3.org/Graphics/SVG/1.1/DTD/svg11.dtd">
<!-- Generated by graphviz version 2.40.1 (0)
 -->
<!-- Title: flowchart Pages: 1 -->
<svg width="2483pt" height="694pt"
 viewBox="0.00 0.00 2483.12 694.20" xmlns="http://www.w3.org/2000/svg" xmlns:xlink="http://www.w3.org/1999/xlink">
<g id="graph0" class="graph" transform="scale(1 1) rotate(0) translate(4 690.2)">
<title>flowchart</title>
<polygon fill="#ffffff" stroke="transparent" points="-4,4 -4,-690.2 2479.1205,-690.2 2479.1205,4 -4,4"/>
<!-- v0 -->
<g id="node1" class="node">
<title>v0</title>
<ellipse fill="none" stroke="#000000" cx="1158.6805" cy="-580.6" rx="131.8766" ry="18"/>
<text text-anchor="middle" x="1158.6805" y="-576.9" font-family="Times,serif" font-size="14.00" fill="#000000">GET_GENE_ID_DICT:dl_human</text>
</g>
<!-- v1 -->
<g id="node2" class="node">
<title>v1</title>
<ellipse fill="none" stroke="#000000" cx="1158.6805" cy="-493.6" rx="178.9686" ry="18"/>
<text text-anchor="middle" x="1158.6805" y="-489.9" font-family="Times,serif" font-size="14.00" fill="#000000">GET_GENE_ID_DICT:uniprotac_to_ensp_dict</text>
</g>
<!-- v0&#45;&gt;v1 -->
<g id="edge1" class="edge">
<title>v0&#45;&gt;v1</title>
<path fill="none" stroke="#000000" d="M1158.6805,-562.5735C1158.6805,-550.7918 1158.6805,-535.1607 1158.6805,-521.7581"/>
<polygon fill="#000000" stroke="#000000" points="1162.1806,-521.6033 1158.6805,-511.6034 1155.1806,-521.6034 1162.1806,-521.6033"/>
</g>
<!-- v15 -->
<g id="node3" class="node">
<title>v15</title>
<ellipse fill="none" stroke="#000000" cx="958.6805" cy="-406.6" rx="273.7515" ry="18"/>
<text text-anchor="middle" x="958.6805" y="-402.9" font-family="Times,serif" font-size="14.00" fill="#000000">HERNANDEZ2017_DATASET:hernandez2017_rnk_translate1col_w_dict</text>
</g>
<!-- v1&#45;&gt;v15 -->
<g id="edge2" class="edge">
<title>v1&#45;&gt;v15</title>
<path fill="none" stroke="#000000" d="M1124.0449,-475.8048C1103.7497,-465.6231 1077.4997,-452.8731 1053.6805,-442.6 1042.1792,-437.6395 1029.7484,-432.6609 1017.7888,-428.0558"/>
<polygon fill="#000000" stroke="#000000" points="1018.9161,-424.7399 1008.3252,-424.4502 1016.4238,-431.2813 1018.9161,-424.7399"/>
<text text-anchor="middle" x="1145.6805" y="-446.4" font-family="Times,serif" font-size="14.00" fill="#000000">uniprotac2ENSP_dict</text>
</g>
<!-- v16 -->
<g id="node20" class="node">
<title>v16</title>
<ellipse fill="none" stroke="#000000" cx="955.6805" cy="-319.6" rx="231.259" ry="18"/>
<text text-anchor="middle" x="955.6805" y="-315.9" font-family="Times,serif" font-size="14.00" fill="#000000">HERNANDEZ2017_DATASET:hernandez2017_make_seqrnk</text>
</g>
<!-- v15&#45;&gt;v16 -->
<g id="edge18" class="edge">
<title>v15&#45;&gt;v16</title>
<path fill="none" stroke="#000000" d="M958.0589,-388.5735C957.6526,-376.7918 957.1136,-361.1607 956.6515,-347.7581"/>
<polygon fill="#000000" stroke="#000000" points="960.144,-347.4768 956.3013,-337.6034 953.1481,-347.7181 960.144,-347.4768"/>
</g>
<!-- v17 -->
<g id="node22" class="node">
<title>v17</title>
<ellipse fill="none" stroke="#000000" cx="219.6805" cy="-319.6" rx="219.8612" ry="18"/>
<text text-anchor="middle" x="219.6805" y="-315.9" font-family="Times,serif" font-size="14.00" fill="#000000">HERNANDEZ2017_DATASET:hernandez2017_make_rnk</text>
</g>
<!-- v15&#45;&gt;v17 -->
<g id="edge20" class="edge">
<title>v15&#45;&gt;v17</title>
<path fill="none" stroke="#000000" d="M824.8532,-390.845C691.9913,-375.2036 489.3585,-351.3483 355.7264,-335.6162"/>
<polygon fill="#000000" stroke="#000000" points="355.7659,-332.0968 345.4252,-334.4035 354.9474,-339.0488 355.7659,-332.0968"/>
</g>
<!-- v2 -->
<g id="node4" class="node">
<title>v2</title>
<ellipse fill="none" stroke="#000000" cx="1528.6805" cy="-406.6" rx="163.2712" ry="18"/>
<text text-anchor="middle" x="1528.6805" y="-402.9" font-family="Times,serif" font-size="14.00" fill="#000000">GET_STRING_ID_DICT:dl_string_aliases</text>
</g>
<!-- v6 -->
<g id="node5" class="node">
<title>v6</title>
<ellipse fill="none" stroke="#000000" cx="581.6805" cy="-319.6" rx="124.5782" ry="18"/>
<text text-anchor="middle" x="581.6805" y="-315.9" font-family="Times,serif" font-size="14.00" fill="#000000">PSP:translate_kin_phos_clusters</text>
</g>
<!-- v2&#45;&gt;v6 -->
<g id="edge3" class="edge">
<title>v2&#45;&gt;v6</title>
<path fill="none" stroke="#000000" d="M1390.7456,-396.9572C1228.8582,-385.1622 952.4191,-363.5308 715.6805,-337.6 704.4915,-336.3744 692.7925,-334.9764 681.1672,-333.5136"/>
<polygon fill="#000000" stroke="#000000" points="681.3473,-330.0083 670.9847,-332.2141 680.4611,-336.9519 681.3473,-330.0083"/>
<text text-anchor="middle" x="1061.1805" y="-359.4" font-family="Times,serif" font-size="14.00" fill="#000000">dict</text>
</g>
<!-- v10 -->
<g id="node13" class="node">
<title>v10</title>
<ellipse fill="none" stroke="#000000" cx="1418.6805" cy="-319.6" rx="213.6622" ry="18"/>
<text text-anchor="middle" x="1418.6805" y="-315.9" font-family="Times,serif" font-size="14.00" fill="#000000">KINEX_SCORING_MATRIX:get_kinex_scoring_matrix</text>
</g>
<!-- v2&#45;&gt;v10 -->
<g id="edge10" class="edge">
<title>v2&#45;&gt;v10</title>
<path fill="none" stroke="#000000" d="M1505.8884,-388.5735C1489.517,-375.6253 1467.2672,-358.0276 1449.3396,-343.8485"/>
<polygon fill="#000000" stroke="#000000" points="1451.4579,-341.0616 1441.4434,-337.6034 1447.1156,-346.552 1451.4579,-341.0616"/>
<text text-anchor="middle" x="1491.1805" y="-359.4" font-family="Times,serif" font-size="14.00" fill="#000000">dict</text>
</g>
<!-- v25 -->
<g id="node14" class="node">
<title>v25</title>
<ellipse fill="none" stroke="#000000" cx="1333.6805" cy="-232.6" rx="150.5735" ry="18"/>
<text text-anchor="middle" x="1333.6805" y="-228.9" font-family="Times,serif" font-size="14.00" fill="#000000">KINEX_HERNANDEZ2017:run_kinex</text>
</g>
<!-- v2&#45;&gt;v25 -->
<g id="edge29" class="edge">
<title>v2&#45;&gt;v25</title>
<path fill="none" stroke="#000000" d="M1572.2217,-389.1262C1614.7058,-369.5365 1669.2162,-335.987 1641.6805,-301.6 1618.7756,-272.996 1535.7364,-255.4466 1461.6481,-245.2084"/>
<polygon fill="#000000" stroke="#000000" points="1462.1068,-241.7387 1451.7292,-243.8732 1461.1729,-248.6761 1462.1068,-241.7387"/>
<text text-anchor="middle" x="1660.1805" y="-315.9" font-family="Times,serif" font-size="14.00" fill="#000000">dict</text>
</g>
<!-- v14 -->
<g id="node17" class="node">
<title>v14</title>
<ellipse fill="none" stroke="#000000" cx="1958.6805" cy="-319.6" rx="250.7555" ry="18"/>
<text text-anchor="middle" x="1958.6805" y="-315.9" font-family="Times,serif" font-size="14.00" fill="#000000">HERNANDEZ2017_DATASET:translate_hernandez2017_metadata</text>
</g>
<!-- v2&#45;&gt;v14 -->
<g id="edge16" class="edge">
<title>v2&#45;&gt;v14</title>
<path fill="none" stroke="#000000" d="M1607.0491,-390.744C1679.4963,-376.0861 1787.2846,-354.2778 1864.4074,-338.6739"/>
<polygon fill="#000000" stroke="#000000" points="1865.4967,-342.0245 1874.604,-336.6108 1864.1085,-335.1635 1865.4967,-342.0245"/>
<text text-anchor="middle" x="1780.1805" y="-359.4" font-family="Times,serif" font-size="14.00" fill="#000000">dict</text>
</g>
<!-- v27 -->
<g id="node9" class="node">
<title>v27</title>
<ellipse fill="none" stroke="#000000" cx="581.6805" cy="-232.6" rx="142.9746" ry="18"/>
<text text-anchor="middle" x="581.6805" y="-228.9" font-family="Times,serif" font-size="14.00" fill="#000000">GSEA_HERNANDEZ2017:run_gsea</text>
</g>
<!-- v6&#45;&gt;v27 -->
<g id="edge7" class="edge">
<title>v6&#45;&gt;v27</title>
<path fill="none" stroke="#000000" d="M581.6805,-301.5735C581.6805,-289.7918 581.6805,-274.1607 581.6805,-260.7581"/>
<polygon fill="#000000" stroke="#000000" points="585.1806,-260.6033 581.6805,-250.6034 578.1806,-260.6034 585.1806,-260.6033"/>
<text text-anchor="middle" x="639.6805" y="-272.4" font-family="Times,serif" font-size="14.00" fill="#000000">psp_kin_sub_clusters</text>
</g>
<!-- v3 -->
<g id="node6" class="node">
<title>v3</title>
<ellipse fill="#000000" stroke="#000000" cx="575.6805" cy="-580.6" rx="3.6" ry="3.6"/>
</g>
<!-- v4 -->
<g id="node7" class="node">
<title>v4</title>
<ellipse fill="none" stroke="#000000" cx="575.6805" cy="-493.6" rx="105.8812" ry="18"/>
<text text-anchor="middle" x="575.6805" y="-489.9" font-family="Times,serif" font-size="14.00" fill="#000000">PSP:psp_kinase_substrates</text>
</g>
<!-- v3&#45;&gt;v4 -->
<g id="edge4" class="edge">
<title>v3&#45;&gt;v4</title>
<path fill="none" stroke="#000000" d="M575.6805,-576.8617C575.6805,-567.445 575.6805,-542.053 575.6805,-521.7647"/>
<polygon fill="#000000" stroke="#000000" points="579.1806,-521.7321 575.6805,-511.7322 572.1806,-521.7322 579.1806,-521.7321"/>
<text text-anchor="middle" x="660.1805" y="-533.4" font-family="Times,serif" font-size="14.00" fill="#000000">input/psp_kinase_substrates.gz</text>
</g>
<!-- v5 -->
<g id="node8" class="node">
<title>v5</title>
<ellipse fill="none" stroke="#000000" cx="575.6805" cy="-406.6" rx="90.9839" ry="18"/>
<text text-anchor="middle" x="575.6805" y="-402.9" font-family="Times,serif" font-size="14.00" fill="#000000">PSP:kin_phos_clusters</text>
</g>
<!-- v4&#45;&gt;v5 -->
<g id="edge5" class="edge">
<title>v4&#45;&gt;v5</title>
<path fill="none" stroke="#000000" d="M575.6805,-475.5735C575.6805,-463.7918 575.6805,-448.1607 575.6805,-434.7581"/>
<polygon fill="#000000" stroke="#000000" points="579.1806,-434.6033 575.6805,-424.6034 572.1806,-434.6034 579.1806,-434.6033"/>
</g>
<!-- v5&#45;&gt;v6 -->
<g id="edge6" class="edge">
<title>v5&#45;&gt;v6</title>
<path fill="none" stroke="#000000" d="M576.9237,-388.5735C577.7362,-376.7918 578.8143,-361.1607 579.7386,-347.7581"/>
<polygon fill="#000000" stroke="#000000" points="583.2425,-347.8205 580.4389,-337.6034 576.2591,-347.3388 583.2425,-347.8205"/>
</g>
<!-- v29 -->
<g id="node30" class="node">
<title>v29</title>
<ellipse fill="none" stroke="#000000" cx="582.6805" cy="-145.6" rx="3.5" ry="3.5"/>
<text text-anchor="middle" x="560.6805" y="-152.9" font-family="Times,serif" font-size="14.00" fill="#000000">collect</text>
</g>
<!-- v27&#45;&gt;v29 -->
<g id="edge32" class="edge">
<title>v27&#45;&gt;v29</title>
<path fill="none" stroke="#000000" d="M581.8877,-214.5735C582.0772,-198.0868 582.3534,-174.0625 582.5247,-159.1548"/>
<polygon fill="#000000" stroke="#000000" points="586.0245,-159.1816 582.6398,-149.142 579.025,-159.1011 586.0245,-159.1816"/>
</g>
<!-- v28 -->
<g id="node31" class="node">
<title>v28</title>
<ellipse fill="#000000" stroke="#000000" cx="606.6805" cy="-145.6" rx="1.8" ry="1.8"/>
</g>
<!-- v27&#45;&gt;v28 -->
<g id="edge33" class="edge">
<title>v27&#45;&gt;v28</title>
<path fill="none" stroke="#000000" d="M587.3781,-214.3161C589.1145,-208.6481 591.0061,-202.3746 592.6805,-196.6 596.5641,-183.207 600.7671,-167.7551 603.5437,-157.4011"/>
<polygon fill="#000000" stroke="#000000" points="606.9755,-158.115 606.1665,-147.5511 600.2112,-156.3139 606.9755,-158.115"/>
</g>
<!-- v7 -->
<g id="node10" class="node">
<title>v7</title>
<ellipse fill="#000000" stroke="#000000" cx="2095.6805" cy="-667.6" rx="3.6" ry="3.6"/>
</g>
<!-- v8 -->
<g id="node11" class="node">
<title>v8</title>
<ellipse fill="none" stroke="#000000" cx="2095.6805" cy="-580.6" rx="103.1819" ry="18"/>
<text text-anchor="middle" x="2095.6805" y="-576.9" font-family="Times,serif" font-size="14.00" fill="#000000">PSP:hs_phosphoproteome</text>
</g>
<!-- v7&#45;&gt;v8 -->
<g id="edge8" class="edge">
<title>v7&#45;&gt;v8</title>
<path fill="none" stroke="#000000" d="M2095.6805,-663.8617C2095.6805,-654.445 2095.6805,-629.053 2095.6805,-608.7647"/>
<polygon fill="#000000" stroke="#000000" points="2099.1806,-608.7321 2095.6805,-598.7322 2092.1806,-608.7322 2099.1806,-608.7321"/>
<text text-anchor="middle" x="2198.6805" y="-620.4" font-family="Times,serif" font-size="14.00" fill="#000000">input/Phosphorylation_site_dataset.gz</text>
</g>
<!-- v9 -->
<g id="node12" class="node">
<title>v9</title>
<ellipse fill="#000000" stroke="#000000" cx="2095.6805" cy="-493.6" rx="1.8" ry="1.8"/>
</g>
<!-- v8&#45;&gt;v9 -->
<g id="edge9" class="edge">
<title>v8&#45;&gt;v9</title>
<path fill="none" stroke="#000000" d="M2095.6805,-562.5735C2095.6805,-545.502 2095.6805,-520.3487 2095.6805,-505.6035"/>
<polygon fill="#000000" stroke="#000000" points="2099.1806,-505.5185 2095.6805,-495.5185 2092.1806,-505.5185 2099.1806,-505.5185"/>
</g>
<!-- v10&#45;&gt;v25 -->
<g id="edge11" class="edge">
<title>v10&#45;&gt;v25</title>
<path fill="none" stroke="#000000" d="M1401.0685,-301.5735C1388.7597,-288.9752 1372.1508,-271.9755 1358.502,-258.0055"/>
<polygon fill="#000000" stroke="#000000" points="1360.7619,-255.3103 1351.27,-250.6034 1355.7549,-260.2021 1360.7619,-255.3103"/>
<text text-anchor="middle" x="1423.1805" y="-272.4" font-family="Times,serif" font-size="14.00" fill="#000000">scoring_matrix</text>
</g>
<!-- v26 -->
<g id="node29" class="node">
<title>v26</title>
<ellipse fill="none" stroke="#000000" cx="1301.6805" cy="-145.6" rx="3.5" ry="3.5"/>
<text text-anchor="middle" x="1279.6805" y="-152.9" font-family="Times,serif" font-size="14.00" fill="#000000">collect</text>
</g>
<!-- v25&#45;&gt;v26 -->
<g id="edge30" class="edge">
<title>v25&#45;&gt;v26</title>
<path fill="none" stroke="#000000" d="M1327.0501,-214.5735C1320.9254,-197.922 1311.9725,-173.5813 1306.5027,-158.7103"/>
<polygon fill="#000000" stroke="#000000" points="1309.7203,-157.3191 1302.9833,-149.142 1303.1506,-159.7355 1309.7203,-157.3191"/>
</g>
<!-- v11 -->
<g id="node15" class="node">
<title>v11</title>
<ellipse fill="none" stroke="#000000" cx="1691.6805" cy="-667.6" rx="231.259" ry="18"/>
<text text-anchor="middle" x="1691.6805" y="-663.9" font-family="Times,serif" font-size="14.00" fill="#000000">HERNANDEZ2017_DATASET:parse_hernandez2017_dataset</text>
</g>
<!-- v12 -->
<g id="node16" class="node">
<title>v12</title>
<ellipse fill="none" stroke="#000000" cx="982.6805" cy="-580.6" rx="3.5" ry="3.5"/>
<text text-anchor="middle" x="957.6805" y="-587.9" font-family="Times,serif" font-size="14.00" fill="#000000">flatMap</text>
</g>
<!-- v11&#45;&gt;v12 -->
<g id="edge12" class="edge">
<title>v11&#45;&gt;v12</title>
<path fill="none" stroke="#000000" d="M1508.958,-656.5486C1341.5065,-645.0309 1106.5524,-624.9768 1017.6805,-598.6 1009.6235,-596.2087 1001.229,-591.96 994.6813,-588.1907"/>
<polygon fill="#000000" stroke="#000000" points="996.1407,-584.9789 985.7911,-582.7126 992.4685,-590.9384 996.1407,-584.9789"/>
</g>
<!-- v11&#45;&gt;v14 -->
<g id="edge13" class="edge">
<title>v11&#45;&gt;v14</title>
<path fill="none" stroke="#000000" d="M1762.1871,-650.3918C1795.7553,-637.5593 1828.6805,-615.96 1828.6805,-580.6 1828.6805,-580.6 1828.6805,-580.6 1828.6805,-406.6 1828.6805,-375.2334 1855.1428,-354.4609 1884.1893,-341.1078"/>
<polygon fill="#000000" stroke="#000000" points="1885.8748,-344.193 1893.6805,-337.029 1883.111,-337.7617 1885.8748,-344.193"/>
</g>
<!-- v13 -->
<g id="node18" class="node">
<title>v13</title>
<ellipse fill="none" stroke="#000000" cx="958.6805" cy="-493.6" rx="3.5" ry="3.5"/>
<text text-anchor="middle" x="942.6805" y="-500.9" font-family="Times,serif" font-size="14.00" fill="#000000">map</text>
</g>
<!-- v12&#45;&gt;v13 -->
<g id="edge14" class="edge">
<title>v12&#45;&gt;v13</title>
<path fill="none" stroke="#000000" d="M981.6493,-576.8617C978.3646,-564.9548 968.0341,-527.5068 962.413,-507.1303"/>
<polygon fill="#000000" stroke="#000000" points="965.7145,-505.9367 959.6812,-497.2275 958.9666,-507.7982 965.7145,-505.9367"/>
</g>
<!-- v19 -->
<g id="node19" class="node">
<title>v19</title>
<ellipse fill="none" stroke="#000000" cx="2191.6805" cy="-232.6" rx="3.5" ry="3.5"/>
<text text-anchor="middle" x="2164.1805" y="-239.9" font-family="Times,serif" font-size="14.00" fill="#000000">combine</text>
</g>
<!-- v14&#45;&gt;v19 -->
<g id="edge17" class="edge">
<title>v14&#45;&gt;v19</title>
<path fill="none" stroke="#000000" d="M2006.1124,-301.8894C2060.3855,-281.6243 2145.9584,-249.6722 2178.515,-237.5159"/>
<polygon fill="#000000" stroke="#000000" points="2180.0771,-240.6687 2188.221,-233.8918 2177.6284,-234.1109 2180.0771,-240.6687"/>
<text text-anchor="middle" x="2114.6805" y="-272.4" font-family="Times,serif" font-size="14.00" fill="#000000">metadata</text>
</g>
<!-- v30 -->
<g id="node28" class="node">
<title>v30</title>
<ellipse fill="none" stroke="#000000" cx="1248.6805" cy="-58.6" rx="300.8466" ry="18"/>
<text text-anchor="middle" x="1248.6805" y="-54.9" font-family="Times,serif" font-size="14.00" fill="#000000">BENCHMARK_PHOSX_HERNANDEZ2017:benchmark_phosx_hernandez2017</text>
</g>
<!-- v14&#45;&gt;v30 -->
<g id="edge35" class="edge">
<title>v14&#45;&gt;v30</title>
<path fill="none" stroke="#000000" d="M1912.1472,-301.8283C1810.8996,-263.2631 1562.8917,-169.3537 1353.6805,-94.6 1339.8943,-89.674 1325.0438,-84.5014 1310.9746,-79.6623"/>
<polygon fill="#000000" stroke="#000000" points="1311.9766,-76.3059 1301.382,-76.3726 1309.7058,-82.9273 1311.9766,-76.3059"/>
<text text-anchor="middle" x="1653.6805" y="-185.4" font-family="Times,serif" font-size="14.00" fill="#000000">metadata</text>
</g>
<!-- v13&#45;&gt;v15 -->
<g id="edge15" class="edge">
<title>v13&#45;&gt;v15</title>
<path fill="none" stroke="#000000" d="M958.6805,-489.8617C958.6805,-480.445 958.6805,-455.053 958.6805,-434.7647"/>
<polygon fill="#000000" stroke="#000000" points="962.1806,-434.7321 958.6805,-424.7322 955.1806,-434.7322 962.1806,-434.7321"/>
<text text-anchor="middle" x="1004.1805" y="-446.4" font-family="Times,serif" font-size="14.00" fill="#000000">untranslated_rnk</text>
</g>
<!-- v20 -->
<g id="node24" class="node">
<title>v20</title>
<ellipse fill="none" stroke="#000000" cx="2191.6805" cy="-145.6" rx="152.1731" ry="18"/>
<text text-anchor="middle" x="2191.6805" y="-141.9" font-family="Times,serif" font-size="14.00" fill="#000000">HERNANDEZ2017_DATASET:publish</text>
</g>
<!-- v19&#45;&gt;v20 -->
<g id="edge23" class="edge">
<title>v19&#45;&gt;v20</title>
<path fill="none" stroke="#000000" d="M2191.6805,-228.8617C2191.6805,-219.445 2191.6805,-194.053 2191.6805,-173.7647"/>
<polygon fill="#000000" stroke="#000000" points="2195.1806,-173.7321 2191.6805,-163.7322 2188.1806,-173.7322 2195.1806,-173.7321"/>
</g>
<!-- v16&#45;&gt;v25 -->
<g id="edge28" class="edge">
<title>v16&#45;&gt;v25</title>
<path fill="none" stroke="#000000" d="M1029.9101,-302.5154C1094.5349,-287.6415 1187.9717,-266.1361 1254.1207,-250.9114"/>
<polygon fill="#000000" stroke="#000000" points="1255.1244,-254.272 1264.0846,-248.6181 1253.5543,-247.4503 1255.1244,-254.272"/>
<text text-anchor="middle" x="1186.1805" y="-272.4" font-family="Times,serif" font-size="14.00" fill="#000000">seqrnk</text>
</g>
<!-- v22 -->
<g id="node21" class="node">
<title>v22</title>
<ellipse fill="none" stroke="#000000" cx="1000.6805" cy="-232.6" rx="154.0727" ry="18"/>
<text text-anchor="middle" x="1000.6805" y="-228.9" font-family="Times,serif" font-size="14.00" fill="#000000">PHOSX_HERNANDEZ2017:run_phosx</text>
</g>
<!-- v16&#45;&gt;v22 -->
<g id="edge19" class="edge">
<title>v16&#45;&gt;v22</title>
<path fill="none" stroke="#000000" d="M965.0045,-301.5735C971.2796,-289.4418 979.6657,-273.2287 986.7306,-259.5698"/>
<polygon fill="#000000" stroke="#000000" points="989.8829,-261.0935 991.3684,-250.6034 983.6654,-257.8776 989.8829,-261.0935"/>
<text text-anchor="middle" x="1000.1805" y="-272.4" font-family="Times,serif" font-size="14.00" fill="#000000">seqrnk</text>
</g>
<!-- v24 -->
<g id="node26" class="node">
<title>v24</title>
<ellipse fill="none" stroke="#000000" cx="1001.6805" cy="-145.6" rx="3.5" ry="3.5"/>
<text text-anchor="middle" x="979.6805" y="-152.9" font-family="Times,serif" font-size="14.00" fill="#000000">collect</text>
</g>
<!-- v22&#45;&gt;v24 -->
<g id="edge25" class="edge">
<title>v22&#45;&gt;v24</title>
<path fill="none" stroke="#000000" d="M1000.8877,-214.5735C1001.0772,-198.0868 1001.3534,-174.0625 1001.5247,-159.1548"/>
<polygon fill="#000000" stroke="#000000" points="1005.0245,-159.1816 1001.6398,-149.142 998.025,-159.1011 1005.0245,-159.1816"/>
</g>
<!-- v23 -->
<g id="node27" class="node">
<title>v23</title>
<ellipse fill="#000000" stroke="#000000" cx="1025.6805" cy="-145.6" rx="1.8" ry="1.8"/>
</g>
<!-- v22&#45;&gt;v23 -->
<g id="edge26" class="edge">
<title>v22&#45;&gt;v23</title>
<path fill="none" stroke="#000000" d="M1006.3781,-214.3161C1008.1145,-208.6481 1010.0061,-202.3746 1011.6805,-196.6 1015.5641,-183.207 1019.7671,-167.7551 1022.5437,-157.4011"/>
<polygon fill="#000000" stroke="#000000" points="1025.9755,-158.115 1025.1665,-147.5511 1019.2112,-156.3139 1025.9755,-158.115"/>
</g>
<!-- v17&#45;&gt;v27 -->
<g id="edge21" class="edge">
<title>v17&#45;&gt;v27</title>
<path fill="none" stroke="#000000" d="M290.7681,-302.5154C352.6281,-287.6485 442.0544,-266.1565 505.3982,-250.9331"/>
<polygon fill="#000000" stroke="#000000" points="506.427,-254.2855 515.3323,-248.5456 504.7912,-247.4793 506.427,-254.2855"/>
<text text-anchor="middle" x="432.1805" y="-272.4" font-family="Times,serif" font-size="14.00" fill="#000000">rnk</text>
</g>
<!-- v18 -->
<g id="node23" class="node">
<title>v18</title>
<ellipse fill="#000000" stroke="#000000" cx="2230.6805" cy="-319.6" rx="3.6" ry="3.6"/>
<text text-anchor="middle" x="2257.5805" y="-327" font-family="Times,serif" font-size="14.00" fill="#000000">Channel.of</text>
</g>
<!-- v18&#45;&gt;v19 -->
<g id="edge22" class="edge">
<title>v18&#45;&gt;v19</title>
<path fill="none" stroke="#000000" d="M2229.1993,-316.2957C2224.011,-304.7219 2206.4791,-265.6123 2197.3354,-245.2147"/>
<polygon fill="#000000" stroke="#000000" points="2200.4476,-243.6009 2193.1632,-235.9076 2194.06,-246.4644 2200.4476,-243.6009"/>
</g>
<!-- v21 -->
<g id="node25" class="node">
<title>v21</title>
<ellipse fill="#000000" stroke="#000000" cx="2191.6805" cy="-58.6" rx="1.8" ry="1.8"/>
</g>
<!-- v20&#45;&gt;v21 -->
<g id="edge24" class="edge">
<title>v20&#45;&gt;v21</title>
<path fill="none" stroke="#000000" d="M2191.6805,-127.5735C2191.6805,-110.502 2191.6805,-85.3487 2191.6805,-70.6035"/>
<polygon fill="#000000" stroke="#000000" points="2195.1806,-70.5185 2191.6805,-60.5185 2188.1806,-70.5185 2195.1806,-70.5185"/>
</g>
<!-- v24&#45;&gt;v30 -->
<g id="edge27" class="edge">
<title>v24&#45;&gt;v30</title>
<path fill="none" stroke="#000000" d="M1003.2131,-142.2952C1005.2608,-138.2395 1009.269,-131.4309 1014.6805,-127.6 1048.2217,-103.8552 1089.9521,-88.1977 1128.8458,-77.908"/>
<polygon fill="#000000" stroke="#000000" points="1129.8399,-81.2666 1138.6662,-75.406 1128.1116,-74.4833 1129.8399,-81.2666"/>
<text text-anchor="middle" x="1110.6805" y="-98.4" font-family="Times,serif" font-size="14.00" fill="#000000">phosx_output</text>
</g>
<!-- v34 -->
<g id="node32" class="node">
<title>v34</title>
<ellipse fill="#000000" stroke="#000000" cx="1211.6805" cy="-1.8" rx="1.8" ry="1.8"/>
</g>
<!-- v30&#45;&gt;v34 -->
<g id="edge36" class="edge">
<title>v30&#45;&gt;v34</title>
<path fill="none" stroke="#000000" d="M1236.7698,-40.3155C1230.6817,-30.9694 1223.4984,-19.9421 1218.3817,-12.0872"/>
<polygon fill="#000000" stroke="#000000" points="1221.2463,-10.0723 1212.8554,-3.6036 1215.381,-13.8931 1221.2463,-10.0723"/>
</g>
<!-- v33 -->
<g id="node33" class="node">
<title>v33</title>
<ellipse fill="#000000" stroke="#000000" cx="1236.6805" cy="-1.8" rx="1.8" ry="1.8"/>
</g>
<!-- v30&#45;&gt;v33 -->
<g id="edge37" class="edge">
<title>v30&#45;&gt;v33</title>
<path fill="none" stroke="#000000" d="M1244.8176,-40.3155C1242.9565,-31.5065 1240.78,-21.204 1239.1464,-13.472"/>
<polygon fill="#000000" stroke="#000000" points="1242.5531,-12.6642 1237.0616,-3.6036 1235.7043,-14.1112 1242.5531,-12.6642"/>
</g>
<!-- v32 -->
<g id="node34" class="node">
<title>v32</title>
<ellipse fill="#000000" stroke="#000000" cx="1261.6805" cy="-1.8" rx="1.8" ry="1.8"/>
</g>
<!-- v30&#45;&gt;v32 -->
<g id="edge38" class="edge">
<title>v30&#45;&gt;v32</title>
<path fill="none" stroke="#000000" d="M1252.8653,-40.3155C1254.8815,-31.5065 1257.2394,-21.204 1259.0091,-13.472"/>
<polygon fill="#000000" stroke="#000000" points="1262.4484,-14.1325 1261.2677,-3.6036 1255.6248,-12.5707 1262.4484,-14.1325"/>
</g>
<!-- v31 -->
<g id="node35" class="node">
<title>v31</title>
<ellipse fill="#000000" stroke="#000000" cx="1286.6805" cy="-1.8" rx="1.8" ry="1.8"/>
</g>
<!-- v30&#45;&gt;v31 -->
<g id="edge39" class="edge">
<title>v30&#45;&gt;v31</title>
<path fill="none" stroke="#000000" d="M1260.9131,-40.3155C1267.2838,-30.793 1274.822,-19.5254 1280.0934,-11.646"/>
<polygon fill="#000000" stroke="#000000" points="1283.0248,-13.5587 1285.6763,-3.301 1277.2068,-9.6663 1283.0248,-13.5587"/>
</g>
<!-- v26&#45;&gt;v30 -->
<g id="edge31" class="edge">
<title>v26&#45;&gt;v30</title>
<path fill="none" stroke="#000000" d="M1299.6676,-142.2957C1294.0345,-133.049 1277.6943,-106.2265 1265.0144,-85.4122"/>
<polygon fill="#000000" stroke="#000000" points="1267.8639,-83.3621 1259.6722,-76.643 1261.8858,-87.004 1267.8639,-83.3621"/>
<text text-anchor="middle" x="1314.1805" y="-98.4" font-family="Times,serif" font-size="14.00" fill="#000000">kinex_output</text>
</g>
<!-- v29&#45;&gt;v30 -->
<g id="edge34" class="edge">
<title>v29&#45;&gt;v30</title>
<path fill="none" stroke="#000000" d="M584.1081,-142.1318C586.0476,-137.9074 589.9442,-130.9248 595.6805,-127.6 633.353,-105.7646 858.6478,-85.4157 1034.1956,-72.5564"/>
<polygon fill="#000000" stroke="#000000" points="1034.6419,-76.0333 1044.3612,-71.816 1034.1334,-69.0517 1034.6419,-76.0333"/>
<text text-anchor="middle" x="814.6805" y="-98.4" font-family="Times,serif" font-size="14.00" fill="#000000">gsea_output</text>
</g>
<!-- v35 -->
<g id="node36" class="node">
<title>v35</title>
<ellipse fill="#000000" stroke="#000000" cx="2324.6805" cy="-667.6" rx="3.6" ry="3.6"/>
<text text-anchor="middle" x="2271.0805" y="-675" font-family="Times,serif" font-size="14.00" fill="#000000">Channel.fromPath</text>
</g>
<!-- v37 -->
<g id="node37" class="node">
<title>v37</title>
<ellipse fill="none" stroke="#000000" cx="2362.6805" cy="-580.6" rx="3.5" ry="3.5"/>
<text text-anchor="middle" x="2335.1805" y="-587.9" font-family="Times,serif" font-size="14.00" fill="#000000">combine</text>
</g>
<!-- v35&#45;&gt;v37 -->
<g id="edge40" class="edge">
<title>v35&#45;&gt;v37</title>
<path fill="none" stroke="#000000" d="M2323.8448,-663.9402C2322.0541,-655.2769 2318.5605,-633.0109 2325.6805,-616.6 2330.9109,-604.5446 2342.2876,-594.489 2351.0541,-588.0972"/>
<polygon fill="#000000" stroke="#000000" points="2353.2487,-590.8404 2359.6216,-582.3765 2349.3616,-585.0189 2353.2487,-590.8404"/>
<text text-anchor="middle" x="2352.6805" y="-620.4" font-family="Times,serif" font-size="14.00" fill="#000000">config_ch</text>
</g>
<!-- v38 -->
<g id="node39" class="node">
<title>v38</title>
<ellipse fill="none" stroke="#000000" cx="2362.6805" cy="-493.6" rx="112.3801" ry="18"/>
<text text-anchor="middle" x="2362.6805" y="-489.9" font-family="Times,serif" font-size="14.00" fill="#000000">PUBLISH_CONFIG:publish</text>
</g>
<!-- v37&#45;&gt;v38 -->
<g id="edge42" class="edge">
<title>v37&#45;&gt;v38</title>
<path fill="none" stroke="#000000" d="M2362.6805,-576.8617C2362.6805,-567.445 2362.6805,-542.053 2362.6805,-521.7647"/>
<polygon fill="#000000" stroke="#000000" points="2366.1806,-521.7321 2362.6805,-511.7322 2359.1806,-521.7322 2366.1806,-521.7321"/>
</g>
<!-- v36 -->
<g id="node38" class="node">
<title>v36</title>
<ellipse fill="#000000" stroke="#000000" cx="2401.6805" cy="-667.6" rx="3.6" ry="3.6"/>
<text text-anchor="middle" x="2367.5805" y="-675" font-family="Times,serif" font-size="14.00" fill="#000000">Channel.of</text>
</g>
<!-- v36&#45;&gt;v37 -->
<g id="edge41" class="edge">
<title>v36&#45;&gt;v37</title>
<path fill="none" stroke="#000000" d="M2400.1224,-663.8695C2396.5812,-655.4175 2387.6186,-634.1762 2379.6805,-616.6 2376.1812,-608.852 2372.1201,-600.2388 2368.8448,-593.3803"/>
<polygon fill="#000000" stroke="#000000" points="2371.8012,-591.4521 2364.3126,-583.9573 2365.4929,-594.4862 2371.8012,-591.4521"/>
<text text-anchor="middle" x="2404.6805" y="-620.4" font-family="Times,serif" font-size="14.00" fill="#000000">val_ch</text>
</g>
<!-- v39 -->
<g id="node40" class="node">
<title>v39</title>
<ellipse fill="#000000" stroke="#000000" cx="2362.6805" cy="-406.6" rx="1.8" ry="1.8"/>
</g>
<!-- v38&#45;&gt;v39 -->
<g id="edge43" class="edge">
<title>v38&#45;&gt;v39</title>
<path fill="none" stroke="#000000" d="M2362.6805,-475.5735C2362.6805,-458.502 2362.6805,-433.3487 2362.6805,-418.6035"/>
<polygon fill="#000000" stroke="#000000" points="2366.1806,-418.5185 2362.6805,-408.5185 2359.1806,-418.5185 2366.1806,-418.5185"/>
</g>
</g>
</svg>
