<?xml version="1.0" encoding="UTF-8" standalone="no"?>
<!DOCTYPE svg PUBLIC "-//W3C//DTD SVG 1.1//EN"
 "http://www.w3.org/Graphics/SVG/1.1/DTD/svg11.dtd">
<!-- Generated by graphviz version 2.40.1 (0)
 -->
<!-- Title: flowchart Pages: 1 -->
<svg width="4098pt" height="774pt"
 viewBox="0.00 0.00 4097.72 774.20" xmlns="http://www.w3.org/2000/svg" xmlns:xlink="http://www.w3.org/1999/xlink">
<g id="graph0" class="graph" transform="scale(1 1) rotate(0) translate(4 770.2)">
<title>flowchart</title>
<polygon fill="#ffffff" stroke="transparent" points="-4,4 -4,-770.2 4093.7168,-770.2 4093.7168,4 -4,4"/>
<!-- v0 -->
<g id="node1" class="node">
<title>v0</title>
<ellipse fill="none" stroke="#000000" cx="987.2768" cy="-660.6" rx="131.8766" ry="18"/>
<text text-anchor="middle" x="987.2768" y="-656.9" font-family="Times,serif" font-size="14.00" fill="#000000">GET_GENE_ID_DICT:dl_human</text>
</g>
<!-- v1 -->
<g id="node2" class="node">
<title>v1</title>
<ellipse fill="none" stroke="#000000" cx="987.2768" cy="-587.6" rx="178.9686" ry="18"/>
<text text-anchor="middle" x="987.2768" y="-583.9" font-family="Times,serif" font-size="14.00" fill="#000000">GET_GENE_ID_DICT:uniprotac_to_ensp_dict</text>
</g>
<!-- v0&#45;&gt;v1 -->
<g id="edge1" class="edge">
<title>v0&#45;&gt;v1</title>
<path fill="none" stroke="#000000" d="M987.2768,-642.5551C987.2768,-634.4828 987.2768,-624.7764 987.2768,-615.7817"/>
<polygon fill="#000000" stroke="#000000" points="990.7769,-615.6903 987.2768,-605.6904 983.7769,-615.6904 990.7769,-615.6903"/>
</g>
<!-- v15 -->
<g id="node3" class="node">
<title>v15</title>
<ellipse fill="none" stroke="#000000" cx="987.2768" cy="-500.6" rx="273.7515" ry="18"/>
<text text-anchor="middle" x="987.2768" y="-496.9" font-family="Times,serif" font-size="14.00" fill="#000000">HERNANDEZ2017_DATASET:hernandez2017_rnk_translate1col_w_dict</text>
</g>
<!-- v1&#45;&gt;v15 -->
<g id="edge2" class="edge">
<title>v1&#45;&gt;v15</title>
<path fill="none" stroke="#000000" d="M987.2768,-569.5735C987.2768,-557.7918 987.2768,-542.1607 987.2768,-528.7581"/>
<polygon fill="#000000" stroke="#000000" points="990.7769,-528.6033 987.2768,-518.6034 983.7769,-528.6034 990.7769,-528.6033"/>
<text text-anchor="middle" x="1046.2768" y="-540.4" font-family="Times,serif" font-size="14.00" fill="#000000">uniprotac2ENSP_dict</text>
</g>
<!-- v16 -->
<g id="node20" class="node">
<title>v16</title>
<ellipse fill="none" stroke="#000000" cx="1620.2768" cy="-319.6" rx="231.259" ry="18"/>
<text text-anchor="middle" x="1620.2768" y="-315.9" font-family="Times,serif" font-size="14.00" fill="#000000">HERNANDEZ2017_DATASET:hernandez2017_make_seqrnk</text>
</g>
<!-- v15&#45;&gt;v16 -->
<g id="edge18" class="edge">
<title>v15&#45;&gt;v16</title>
<path fill="none" stroke="#000000" d="M1146.2173,-485.9239C1209.3651,-477.6007 1282.109,-464.8548 1346.2768,-445.6 1433.0879,-419.5507 1527.7807,-371.1178 1580.0022,-342.4835"/>
<polygon fill="#000000" stroke="#000000" points="1581.8762,-345.447 1588.9383,-337.5491 1578.4924,-339.3191 1581.8762,-345.447"/>
</g>
<!-- v17 -->
<g id="node22" class="node">
<title>v17</title>
<ellipse fill="none" stroke="#000000" cx="261.2768" cy="-427.6" rx="261.0538" ry="18"/>
<text text-anchor="middle" x="261.2768" y="-423.9" font-family="Times,serif" font-size="14.00" fill="#000000">HERNANDEZ2017_DATASET:hernandez2017_make_uniprot_seqrnk</text>
</g>
<!-- v15&#45;&gt;v17 -->
<g id="edge20" class="edge">
<title>v15&#45;&gt;v17</title>
<path fill="none" stroke="#000000" d="M837.2895,-485.5186C715.2016,-473.2426 543.3668,-455.9644 419.1893,-443.4783"/>
<polygon fill="#000000" stroke="#000000" points="419.5074,-439.9927 409.2074,-442.4746 418.8071,-446.9576 419.5074,-439.9927"/>
</g>
<!-- v18 -->
<g id="node24" class="node">
<title>v18</title>
<ellipse fill="none" stroke="#000000" cx="972.2768" cy="-373.6" rx="219.8612" ry="18"/>
<text text-anchor="middle" x="972.2768" y="-369.9" font-family="Times,serif" font-size="14.00" fill="#000000">HERNANDEZ2017_DATASET:hernandez2017_make_rnk</text>
</g>
<!-- v15&#45;&gt;v18 -->
<g id="edge22" class="edge">
<title>v15&#45;&gt;v18</title>
<path fill="none" stroke="#000000" d="M985.1277,-482.404C982.6438,-461.3735 978.526,-426.5094 975.6221,-401.9236"/>
<polygon fill="#000000" stroke="#000000" points="979.0708,-401.2827 974.422,-391.7622 972.1192,-402.1038 979.0708,-401.2827"/>
</g>
<!-- v2 -->
<g id="node4" class="node">
<title>v2</title>
<ellipse fill="none" stroke="#000000" cx="2389.2768" cy="-427.6" rx="163.2712" ry="18"/>
<text text-anchor="middle" x="2389.2768" y="-423.9" font-family="Times,serif" font-size="14.00" fill="#000000">GET_STRING_ID_DICT:dl_string_aliases</text>
</g>
<!-- v6 -->
<g id="node5" class="node">
<title>v6</title>
<ellipse fill="none" stroke="#000000" cx="1246.2768" cy="-319.6" rx="124.5782" ry="18"/>
<text text-anchor="middle" x="1246.2768" y="-315.9" font-family="Times,serif" font-size="14.00" fill="#000000">PSP:translate_kin_phos_clusters</text>
</g>
<!-- v2&#45;&gt;v6 -->
<g id="edge3" class="edge">
<title>v2&#45;&gt;v6</title>
<path fill="none" stroke="#000000" d="M2254.0333,-417.4626C2060.2441,-402.4993 1692.4811,-372.4753 1380.2768,-337.6 1369.1806,-336.3605 1357.5817,-334.9602 1346.05,-333.5016"/>
<polygon fill="#000000" stroke="#000000" points="1346.3114,-330.0065 1335.9477,-332.2074 1345.4218,-336.9498 1346.3114,-330.0065"/>
<text text-anchor="middle" x="1967.2768" y="-369.9" font-family="Times,serif" font-size="14.00" fill="#000000">string_id_dict</text>
</g>
<!-- v10 -->
<g id="node13" class="node">
<title>v10</title>
<ellipse fill="none" stroke="#000000" cx="2083.2768" cy="-319.6" rx="213.6622" ry="18"/>
<text text-anchor="middle" x="2083.2768" y="-315.9" font-family="Times,serif" font-size="14.00" fill="#000000">KINEX_SCORING_MATRIX:get_kinex_scoring_matrix</text>
</g>
<!-- v2&#45;&gt;v10 -->
<g id="edge10" class="edge">
<title>v2&#45;&gt;v10</title>
<path fill="none" stroke="#000000" d="M2313.1172,-411.5799C2290.3998,-406.0645 2265.6106,-399.3074 2243.2768,-391.6 2202.9175,-377.672 2158.7892,-357.4119 2127.1176,-341.9288"/>
<polygon fill="#000000" stroke="#000000" points="2128.6354,-338.7749 2118.1183,-337.494 2125.5411,-345.0539 2128.6354,-338.7749"/>
<text text-anchor="middle" x="2281.2768" y="-369.9" font-family="Times,serif" font-size="14.00" fill="#000000">string_id_dict</text>
</g>
<!-- v27 -->
<g id="node14" class="node">
<title>v27</title>
<ellipse fill="none" stroke="#000000" cx="2083.2768" cy="-232.6" rx="150.5735" ry="18"/>
<text text-anchor="middle" x="2083.2768" y="-228.9" font-family="Times,serif" font-size="14.00" fill="#000000">KINEX_HERNANDEZ2017:run_kinex</text>
</g>
<!-- v2&#45;&gt;v27 -->
<g id="edge33" class="edge">
<title>v2&#45;&gt;v27</title>
<path fill="none" stroke="#000000" d="M2378.3505,-409.586C2358.2083,-376.6004 2316.3565,-309.1706 2306.2768,-301.6 2271.7009,-275.6307 2227.2067,-259.3226 2187.0691,-249.1335"/>
<polygon fill="#000000" stroke="#000000" points="2187.7822,-245.7049 2177.2376,-246.736 2186.1237,-252.5056 2187.7822,-245.7049"/>
<text text-anchor="middle" x="2371.2768" y="-315.9" font-family="Times,serif" font-size="14.00" fill="#000000">string_id_dict</text>
</g>
<!-- v14 -->
<g id="node17" class="node">
<title>v14</title>
<ellipse fill="none" stroke="#000000" cx="3656.2768" cy="-319.6" rx="250.7555" ry="18"/>
<text text-anchor="middle" x="3656.2768" y="-315.9" font-family="Times,serif" font-size="14.00" fill="#000000">HERNANDEZ2017_DATASET:translate_hernandez2017_metadata</text>
</g>
<!-- v2&#45;&gt;v14 -->
<g id="edge16" class="edge">
<title>v2&#45;&gt;v14</title>
<path fill="none" stroke="#000000" d="M2534.866,-419.418C2596.9226,-416.0938 2670.1299,-412.388 2736.2768,-409.6 2982.8543,-399.207 3046.6195,-424.0229 3291.2768,-391.6 3360.5283,-382.4225 3375.8074,-369.4544 3444.2768,-355.6 3475.726,-349.2364 3509.9543,-343.088 3541.5506,-337.7274"/>
<polygon fill="#000000" stroke="#000000" points="3542.4305,-341.1286 3551.7099,-336.0154 3541.2672,-334.2259 3542.4305,-341.1286"/>
<text text-anchor="middle" x="3482.2768" y="-369.9" font-family="Times,serif" font-size="14.00" fill="#000000">string_id_dict</text>
</g>
<!-- v23 -->
<g id="node21" class="node">
<title>v23</title>
<ellipse fill="none" stroke="#000000" cx="2426.2768" cy="-232.6" rx="154.0727" ry="18"/>
<text text-anchor="middle" x="2426.2768" y="-228.9" font-family="Times,serif" font-size="14.00" fill="#000000">PHOSX_HERNANDEZ2017:run_phosx</text>
</g>
<!-- v2&#45;&gt;v23 -->
<g id="edge27" class="edge">
<title>v2&#45;&gt;v23</title>
<path fill="none" stroke="#000000" d="M2394.8906,-409.4991C2400.3026,-391.4453 2408.3731,-362.84 2413.2768,-337.6 2418.2815,-311.84 2421.749,-282.1311 2423.8363,-260.9031"/>
<polygon fill="#000000" stroke="#000000" points="2427.3224,-261.2143 2424.7769,-250.9299 2420.3533,-260.557 2427.3224,-261.2143"/>
<text text-anchor="middle" x="2457.2768" y="-315.9" font-family="Times,serif" font-size="14.00" fill="#000000">string_id_dict</text>
</g>
<!-- v34 -->
<g id="node36" class="node">
<title>v34</title>
<ellipse fill="none" stroke="#000000" cx="1027.2768" cy="-232.6" rx="194.1657" ry="18"/>
<text text-anchor="middle" x="1027.2768" y="-228.9" font-family="Times,serif" font-size="14.00" fill="#000000">KSTAR_HERNANDEZ2017:translate_kstar_output</text>
</g>
<!-- v2&#45;&gt;v34 -->
<g id="edge42" class="edge">
<title>v2&#45;&gt;v34</title>
<path fill="none" stroke="#000000" d="M2230.7737,-423.3242C2065.4943,-418.2368 1798.9859,-408.265 1569.2768,-391.6 1565.5662,-391.3308 1038.8871,-340.2509 1036.2768,-337.6 1016.7082,-317.7264 1017.2535,-284.2893 1020.8969,-260.4892"/>
<polygon fill="#000000" stroke="#000000" points="1024.3445,-261.0919 1022.6628,-250.6314 1017.4542,-259.8576 1024.3445,-261.0919"/>
<text text-anchor="middle" x="1074.2768" y="-315.9" font-family="Times,serif" font-size="14.00" fill="#000000">string_id_dict</text>
</g>
<!-- v39 -->
<g id="node41" class="node">
<title>v39</title>
<ellipse fill="none" stroke="#000000" cx="2749.2768" cy="-319.6" rx="209.8628" ry="18"/>
<text text-anchor="middle" x="2749.2768" y="-315.9" font-family="Times,serif" font-size="14.00" fill="#000000">PTMSEA_HERNANDEZ2017:translate_ptmsea_output</text>
</g>
<!-- v2&#45;&gt;v39 -->
<g id="edge48" class="edge">
<title>v2&#45;&gt;v39</title>
<path fill="none" stroke="#000000" d="M2445.9228,-410.6062C2509.8073,-391.4409 2613.6347,-360.2926 2681.6984,-339.8735"/>
<polygon fill="#000000" stroke="#000000" points="2682.8996,-343.1674 2691.4721,-336.9414 2680.8881,-336.4626 2682.8996,-343.1674"/>
<text text-anchor="middle" x="2661.2768" y="-369.9" font-family="Times,serif" font-size="14.00" fill="#000000">string_id_dict</text>
</g>
<!-- v44 -->
<g id="node46" class="node">
<title>v44</title>
<ellipse fill="none" stroke="#000000" cx="3182.2768" cy="-319.6" rx="205.2636" ry="18"/>
<text text-anchor="middle" x="3182.2768" y="-315.9" font-family="Times,serif" font-size="14.00" fill="#000000">ZSCORE_HERNANDEZ2017:translate_zscore_output</text>
</g>
<!-- v2&#45;&gt;v44 -->
<g id="edge54" class="edge">
<title>v2&#45;&gt;v44</title>
<path fill="none" stroke="#000000" d="M2543.0176,-421.559C2635.8439,-416.5082 2756.2933,-407.4703 2862.2768,-391.6 2947.6739,-378.8123 3044.179,-355.9119 3108.6704,-339.3656"/>
<polygon fill="#000000" stroke="#000000" points="3109.9312,-342.655 3118.7393,-336.7671 3108.182,-335.8771 3109.9312,-342.655"/>
<text text-anchor="middle" x="3075.2768" y="-369.9" font-family="Times,serif" font-size="14.00" fill="#000000">string_id_dict</text>
</g>
<!-- v29 -->
<g id="node9" class="node">
<title>v29</title>
<ellipse fill="none" stroke="#000000" cx="1577.2768" cy="-232.6" rx="142.9746" ry="18"/>
<text text-anchor="middle" x="1577.2768" y="-228.9" font-family="Times,serif" font-size="14.00" fill="#000000">GSEA_HERNANDEZ2017:run_gsea</text>
</g>
<!-- v6&#45;&gt;v29 -->
<g id="edge7" class="edge">
<title>v6&#45;&gt;v29</title>
<path fill="none" stroke="#000000" d="M1306.6024,-303.744C1362.684,-289.0035 1446.2774,-267.0319 1505.7094,-251.4108"/>
<polygon fill="#000000" stroke="#000000" points="1506.6199,-254.7904 1515.4016,-248.8633 1504.8404,-248.0204 1506.6199,-254.7904"/>
<text text-anchor="middle" x="1490.2768" y="-272.4" font-family="Times,serif" font-size="14.00" fill="#000000">psp_kin_sub_clusters</text>
</g>
<!-- v3 -->
<g id="node6" class="node">
<title>v3</title>
<ellipse fill="#000000" stroke="#000000" cx="1390.2768" cy="-587.6" rx="3.6" ry="3.6"/>
</g>
<!-- v4 -->
<g id="node7" class="node">
<title>v4</title>
<ellipse fill="none" stroke="#000000" cx="1390.2768" cy="-500.6" rx="105.8812" ry="18"/>
<text text-anchor="middle" x="1390.2768" y="-496.9" font-family="Times,serif" font-size="14.00" fill="#000000">PSP:psp_kinase_substrates</text>
</g>
<!-- v3&#45;&gt;v4 -->
<g id="edge4" class="edge">
<title>v3&#45;&gt;v4</title>
<path fill="none" stroke="#000000" d="M1390.2768,-583.8617C1390.2768,-574.445 1390.2768,-549.053 1390.2768,-528.7647"/>
<polygon fill="#000000" stroke="#000000" points="1393.7769,-528.7321 1390.2768,-518.7322 1386.7769,-528.7322 1393.7769,-528.7321"/>
<text text-anchor="middle" x="1474.7768" y="-540.4" font-family="Times,serif" font-size="14.00" fill="#000000">input/psp_kinase_substrates.gz</text>
</g>
<!-- v5 -->
<g id="node8" class="node">
<title>v5</title>
<ellipse fill="none" stroke="#000000" cx="1246.2768" cy="-427.6" rx="90.9839" ry="18"/>
<text text-anchor="middle" x="1246.2768" y="-423.9" font-family="Times,serif" font-size="14.00" fill="#000000">PSP:kin_phos_clusters</text>
</g>
<!-- v4&#45;&gt;v5 -->
<g id="edge5" class="edge">
<title>v4&#45;&gt;v5</title>
<path fill="none" stroke="#000000" d="M1356.5152,-483.4847C1336.2941,-473.2337 1310.4042,-460.109 1288.7963,-449.155"/>
<polygon fill="#000000" stroke="#000000" points="1290.3289,-446.0079 1279.8269,-444.608 1287.1637,-452.2515 1290.3289,-446.0079"/>
</g>
<!-- v5&#45;&gt;v6 -->
<g id="edge6" class="edge">
<title>v5&#45;&gt;v6</title>
<path fill="none" stroke="#000000" d="M1246.2768,-409.2793C1246.2768,-392.421 1246.2768,-367.1651 1246.2768,-347.747"/>
<polygon fill="#000000" stroke="#000000" points="1249.7769,-347.6501 1246.2768,-337.6502 1242.7769,-347.6502 1249.7769,-347.6501"/>
</g>
<!-- v31 -->
<g id="node33" class="node">
<title>v31</title>
<ellipse fill="none" stroke="#000000" cx="1994.2768" cy="-145.6" rx="3.5" ry="3.5"/>
<text text-anchor="middle" x="1972.2768" y="-152.9" font-family="Times,serif" font-size="14.00" fill="#000000">collect</text>
</g>
<!-- v29&#45;&gt;v31 -->
<g id="edge36" class="edge">
<title>v29&#45;&gt;v31</title>
<path fill="none" stroke="#000000" d="M1660.5012,-217.9363C1694.8607,-211.6798 1735.0491,-204.1006 1771.2768,-196.6 1850.9407,-180.1063 1945.8961,-157.3542 1980.6647,-148.9198"/>
<polygon fill="#000000" stroke="#000000" points="1981.723,-152.2644 1990.6113,-146.4983 1980.0671,-145.4631 1981.723,-152.2644"/>
</g>
<!-- v30 -->
<g id="node34" class="node">
<title>v30</title>
<ellipse fill="#000000" stroke="#000000" cx="1810.2768" cy="-145.6" rx="1.8" ry="1.8"/>
</g>
<!-- v29&#45;&gt;v30 -->
<g id="edge37" class="edge">
<title>v29&#45;&gt;v30</title>
<path fill="none" stroke="#000000" d="M1671.2536,-218.9491C1713.721,-209.0903 1762.5017,-192.2473 1799.2768,-163.6 1801.617,-161.777 1803.5776,-159.3056 1805.1644,-156.7786"/>
<polygon fill="#000000" stroke="#000000" points="1808.399,-158.129 1809.5982,-147.6023 1802.0962,-155.0836 1808.399,-158.129"/>
</g>
<!-- v7 -->
<g id="node10" class="node">
<title>v7</title>
<ellipse fill="#000000" stroke="#000000" cx="3710.2768" cy="-747.6" rx="3.6" ry="3.6"/>
</g>
<!-- v8 -->
<g id="node11" class="node">
<title>v8</title>
<ellipse fill="none" stroke="#000000" cx="3710.2768" cy="-660.6" rx="103.1819" ry="18"/>
<text text-anchor="middle" x="3710.2768" y="-656.9" font-family="Times,serif" font-size="14.00" fill="#000000">PSP:hs_phosphoproteome</text>
</g>
<!-- v7&#45;&gt;v8 -->
<g id="edge8" class="edge">
<title>v7&#45;&gt;v8</title>
<path fill="none" stroke="#000000" d="M3710.2768,-743.8617C3710.2768,-734.445 3710.2768,-709.053 3710.2768,-688.7647"/>
<polygon fill="#000000" stroke="#000000" points="3713.7769,-688.7321 3710.2768,-678.7322 3706.7769,-688.7322 3713.7769,-688.7321"/>
<text text-anchor="middle" x="3813.2768" y="-700.4" font-family="Times,serif" font-size="14.00" fill="#000000">input/Phosphorylation_site_dataset.gz</text>
</g>
<!-- v9 -->
<g id="node12" class="node">
<title>v9</title>
<ellipse fill="#000000" stroke="#000000" cx="3710.2768" cy="-587.6" rx="1.8" ry="1.8"/>
</g>
<!-- v8&#45;&gt;v9 -->
<g id="edge9" class="edge">
<title>v8&#45;&gt;v9</title>
<path fill="none" stroke="#000000" d="M3710.2768,-642.5551C3710.2768,-629.2025 3710.2768,-611.3784 3710.2768,-599.701"/>
<polygon fill="#000000" stroke="#000000" points="3713.7769,-599.4525 3710.2768,-589.4525 3706.7769,-599.4525 3713.7769,-599.4525"/>
</g>
<!-- v10&#45;&gt;v27 -->
<g id="edge11" class="edge">
<title>v10&#45;&gt;v27</title>
<path fill="none" stroke="#000000" d="M2083.2768,-301.5735C2083.2768,-289.7918 2083.2768,-274.1607 2083.2768,-260.7581"/>
<polygon fill="#000000" stroke="#000000" points="2086.7769,-260.6033 2083.2768,-250.6034 2079.7769,-260.6034 2086.7769,-260.6033"/>
<text text-anchor="middle" x="2124.7768" y="-272.4" font-family="Times,serif" font-size="14.00" fill="#000000">scoring_matrix</text>
</g>
<!-- v28 -->
<g id="node32" class="node">
<title>v28</title>
<ellipse fill="none" stroke="#000000" cx="2083.2768" cy="-145.6" rx="3.5" ry="3.5"/>
<text text-anchor="middle" x="2061.2768" y="-152.9" font-family="Times,serif" font-size="14.00" fill="#000000">collect</text>
</g>
<!-- v27&#45;&gt;v28 -->
<g id="edge34" class="edge">
<title>v27&#45;&gt;v28</title>
<path fill="none" stroke="#000000" d="M2083.2768,-214.5735C2083.2768,-198.0868 2083.2768,-174.0625 2083.2768,-159.1548"/>
<polygon fill="#000000" stroke="#000000" points="2086.7769,-159.142 2083.2768,-149.142 2079.7769,-159.1421 2086.7769,-159.142"/>
</g>
<!-- v11 -->
<g id="node15" class="node">
<title>v11</title>
<ellipse fill="none" stroke="#000000" cx="3169.2768" cy="-747.6" rx="231.259" ry="18"/>
<text text-anchor="middle" x="3169.2768" y="-743.9" font-family="Times,serif" font-size="14.00" fill="#000000">HERNANDEZ2017_DATASET:parse_hernandez2017_dataset</text>
</g>
<!-- v12 -->
<g id="node16" class="node">
<title>v12</title>
<ellipse fill="none" stroke="#000000" cx="2450.2768" cy="-660.6" rx="3.5" ry="3.5"/>
<text text-anchor="middle" x="2425.2768" y="-667.9" font-family="Times,serif" font-size="14.00" fill="#000000">flatMap</text>
</g>
<!-- v11&#45;&gt;v12 -->
<g id="edge12" class="edge">
<title>v11&#45;&gt;v12</title>
<path fill="none" stroke="#000000" d="M3044.0366,-732.4458C2861.4715,-710.3551 2536.1438,-670.99 2464.4914,-662.32"/>
<polygon fill="#000000" stroke="#000000" points="2464.5041,-658.7961 2454.1561,-661.0694 2463.6632,-665.7454 2464.5041,-658.7961"/>
</g>
<!-- v11&#45;&gt;v14 -->
<g id="edge13" class="edge">
<title>v11&#45;&gt;v14</title>
<path fill="none" stroke="#000000" d="M3346.4308,-736.0206C3439.4276,-724.8837 3534.2768,-703.106 3534.2768,-660.6 3534.2768,-660.6 3534.2768,-660.6 3534.2768,-427.6 3534.2768,-388.4274 3569.9759,-360.0324 3602.752,-342.2174"/>
<polygon fill="#000000" stroke="#000000" points="3604.6256,-345.1882 3611.8869,-337.473 3601.3992,-338.9761 3604.6256,-345.1882"/>
</g>
<!-- v13 -->
<g id="node18" class="node">
<title>v13</title>
<ellipse fill="none" stroke="#000000" cx="1321.2768" cy="-587.6" rx="3.5" ry="3.5"/>
<text text-anchor="middle" x="1305.2768" y="-594.9" font-family="Times,serif" font-size="14.00" fill="#000000">map</text>
</g>
<!-- v12&#45;&gt;v13 -->
<g id="edge14" class="edge">
<title>v12&#45;&gt;v13</title>
<path fill="none" stroke="#000000" d="M2446.526,-660.544C2385.7171,-659.6155 1602.9555,-646.9245 1377.2768,-605.6 1362.0679,-602.8151 1345.2608,-597.0281 1334.0658,-592.7642"/>
<polygon fill="#000000" stroke="#000000" points="1335.3192,-589.4962 1324.7333,-589.0619 1332.7379,-596.0028 1335.3192,-589.4962"/>
</g>
<!-- v20 -->
<g id="node19" class="node">
<title>v20</title>
<ellipse fill="none" stroke="#000000" cx="3843.2768" cy="-232.6" rx="3.5" ry="3.5"/>
<text text-anchor="middle" x="3815.7768" y="-239.9" font-family="Times,serif" font-size="14.00" fill="#000000">combine</text>
</g>
<!-- v14&#45;&gt;v20 -->
<g id="edge17" class="edge">
<title>v14&#45;&gt;v20</title>
<path fill="none" stroke="#000000" d="M3694.5703,-301.7843C3737.2051,-281.9489 3803.6996,-251.0129 3830.9739,-238.3238"/>
<polygon fill="#000000" stroke="#000000" points="3832.4874,-241.48 3840.0778,-234.0883 3829.5346,-235.1332 3832.4874,-241.48"/>
<text text-anchor="middle" x="3786.2768" y="-272.4" font-family="Times,serif" font-size="14.00" fill="#000000">metadata</text>
</g>
<!-- v46 -->
<g id="node31" class="node">
<title>v46</title>
<ellipse fill="none" stroke="#000000" cx="2747.2768" cy="-58.6" rx="300.8466" ry="18"/>
<text text-anchor="middle" x="2747.2768" y="-54.9" font-family="Times,serif" font-size="14.00" fill="#000000">BENCHMARK_PHOSX_HERNANDEZ2017:benchmark_phosx_hernandez2017</text>
</g>
<!-- v14&#45;&gt;v46 -->
<g id="edge57" class="edge">
<title>v14&#45;&gt;v46</title>
<path fill="none" stroke="#000000" d="M3615.304,-301.8263C3515.2096,-259.1519 3249.4397,-150.3212 3017.2768,-94.6 2984.3179,-86.6896 2948.6497,-80.3867 2914.373,-75.4112"/>
<polygon fill="#000000" stroke="#000000" points="2914.6597,-71.9169 2904.2669,-73.9763 2913.6756,-78.8474 2914.6597,-71.9169"/>
<text text-anchor="middle" x="3369.2768" y="-185.4" font-family="Times,serif" font-size="14.00" fill="#000000">metadata</text>
</g>
<!-- v48 -->
<g id="node49" class="node">
<title>v48</title>
<ellipse fill="none" stroke="#000000" cx="2085.2768" cy="-58.6" rx="343.3392" ry="18"/>
<text text-anchor="middle" x="2085.2768" y="-54.9" font-family="Times,serif" font-size="14.00" fill="#000000">BENCHMARK_PHOSX_HERNANDEZ2017:benchmark_phosx_per_kinase_hernandez2017</text>
</g>
<!-- v14&#45;&gt;v48 -->
<g id="edge65" class="edge">
<title>v14&#45;&gt;v48</title>
<path fill="none" stroke="#000000" d="M3587.0303,-302.2681C3534.4904,-288.8651 3460.582,-269.4694 3396.2768,-250.6 3200.0457,-193.0189 3146.5085,-189.544 2958.2768,-109.6 2945.2825,-104.0812 2943.9048,-98.286 2930.2768,-94.6 2824.4508,-65.977 2546.8003,-81.3995 2437.2768,-76.6 2404.7275,-75.1736 2370.4909,-73.562 2336.677,-71.9038"/>
<polygon fill="#000000" stroke="#000000" points="2336.8379,-68.4075 2326.6779,-71.4115 2336.4936,-75.3991 2336.8379,-68.4075"/>
<text text-anchor="middle" x="3225.2768" y="-185.4" font-family="Times,serif" font-size="14.00" fill="#000000">metadata</text>
</g>
<!-- v13&#45;&gt;v15 -->
<g id="edge15" class="edge">
<title>v13&#45;&gt;v15</title>
<path fill="none" stroke="#000000" d="M1317.5258,-586.6229C1293.0373,-580.2442 1154.1493,-544.0668 1064.4609,-520.7048"/>
<polygon fill="#000000" stroke="#000000" points="1065.1498,-517.2675 1054.5904,-518.1338 1063.3852,-524.0415 1065.1498,-517.2675"/>
<text text-anchor="middle" x="1219.7768" y="-540.4" font-family="Times,serif" font-size="14.00" fill="#000000">untranslated_rnk</text>
</g>
<!-- v21 -->
<g id="node26" class="node">
<title>v21</title>
<ellipse fill="none" stroke="#000000" cx="3843.2768" cy="-145.6" rx="152.1731" ry="18"/>
<text text-anchor="middle" x="3843.2768" y="-141.9" font-family="Times,serif" font-size="14.00" fill="#000000">HERNANDEZ2017_DATASET:publish</text>
</g>
<!-- v20&#45;&gt;v21 -->
<g id="edge25" class="edge">
<title>v20&#45;&gt;v21</title>
<path fill="none" stroke="#000000" d="M3843.2768,-228.8617C3843.2768,-219.445 3843.2768,-194.053 3843.2768,-173.7647"/>
<polygon fill="#000000" stroke="#000000" points="3846.7769,-173.7321 3843.2768,-163.7322 3839.7769,-173.7322 3846.7769,-173.7321"/>
</g>
<!-- v16&#45;&gt;v27 -->
<g id="edge32" class="edge">
<title>v16&#45;&gt;v27</title>
<path fill="none" stroke="#000000" d="M1671.9507,-301.9596C1706.0442,-290.9209 1751.8907,-277.209 1793.2768,-268.6 1844.5089,-257.9429 1901.5342,-250.0294 1951.3679,-244.3787"/>
<polygon fill="#000000" stroke="#000000" points="1952.01,-247.8289 1961.5609,-243.2429 1951.2347,-240.872 1952.01,-247.8289"/>
<text text-anchor="middle" x="1811.7768" y="-272.4" font-family="Times,serif" font-size="14.00" fill="#000000">seqrnk</text>
</g>
<!-- v16&#45;&gt;v23 -->
<g id="edge19" class="edge">
<title>v16&#45;&gt;v23</title>
<path fill="none" stroke="#000000" d="M1739.7635,-304.1601C1824.2007,-293.4939 1940.0782,-279.349 2042.2768,-268.6 2131.4756,-259.2183 2153.9793,-258.9899 2243.2768,-250.6 2261.1933,-248.9167 2280.0923,-247.1019 2298.6725,-245.2953"/>
<polygon fill="#000000" stroke="#000000" points="2299.0386,-248.7763 2308.6519,-244.3228 2298.3595,-241.8093 2299.0386,-248.7763"/>
<text text-anchor="middle" x="2060.7768" y="-272.4" font-family="Times,serif" font-size="14.00" fill="#000000">seqrnk</text>
</g>
<!-- v26 -->
<g id="node28" class="node">
<title>v26</title>
<ellipse fill="none" stroke="#000000" cx="2451.2768" cy="-145.6" rx="3.5" ry="3.5"/>
<text text-anchor="middle" x="2429.2768" y="-152.9" font-family="Times,serif" font-size="14.00" fill="#000000">collect</text>
</g>
<!-- v23&#45;&gt;v26 -->
<g id="edge28" class="edge">
<title>v23&#45;&gt;v26</title>
<path fill="none" stroke="#000000" d="M2431.9744,-214.3161C2433.7108,-208.6481 2435.6024,-202.3746 2437.2768,-196.6 2440.9526,-183.9235 2444.9146,-169.4025 2447.6824,-159.1056"/>
<polygon fill="#000000" stroke="#000000" points="2451.0966,-159.8862 2450.2943,-149.3217 2444.3334,-158.0806 2451.0966,-159.8862"/>
</g>
<!-- v25 -->
<g id="node29" class="node">
<title>v25</title>
<ellipse fill="#000000" stroke="#000000" cx="2401.2768" cy="-145.6" rx="1.8" ry="1.8"/>
</g>
<!-- v23&#45;&gt;v25 -->
<g id="edge29" class="edge">
<title>v23&#45;&gt;v25</title>
<path fill="none" stroke="#000000" d="M2421.0968,-214.5735C2416.1411,-197.3278 2408.8155,-171.8345 2404.5973,-157.1554"/>
<polygon fill="#000000" stroke="#000000" points="2407.9539,-156.1629 2401.8281,-147.5185 2401.2261,-158.0962 2407.9539,-156.1629"/>
</g>
<!-- v24 -->
<g id="node30" class="node">
<title>v24</title>
<ellipse fill="#000000" stroke="#000000" cx="2426.2768" cy="-145.6" rx="1.8" ry="1.8"/>
</g>
<!-- v23&#45;&gt;v24 -->
<g id="edge30" class="edge">
<title>v23&#45;&gt;v24</title>
<path fill="none" stroke="#000000" d="M2426.2768,-214.5735C2426.2768,-197.502 2426.2768,-172.3487 2426.2768,-157.6035"/>
<polygon fill="#000000" stroke="#000000" points="2429.7769,-157.5185 2426.2768,-147.5185 2422.7769,-157.5185 2429.7769,-157.5185"/>
</g>
<!-- v33 -->
<g id="node23" class="node">
<title>v33</title>
<ellipse fill="none" stroke="#000000" cx="728.2768" cy="-319.6" rx="149.4735" ry="18"/>
<text text-anchor="middle" x="728.2768" y="-315.9" font-family="Times,serif" font-size="14.00" fill="#000000">KSTAR_HERNANDEZ2017:run_kstar</text>
</g>
<!-- v17&#45;&gt;v33 -->
<g id="edge21" class="edge">
<title>v17&#45;&gt;v33</title>
<path fill="none" stroke="#000000" d="M336.0494,-410.3078C421.7718,-390.4834 561.691,-358.1252 649.1855,-337.8909"/>
<polygon fill="#000000" stroke="#000000" points="650.1076,-341.2701 659.0618,-335.6069 648.5303,-334.4501 650.1076,-341.2701"/>
<text text-anchor="middle" x="596.2768" y="-369.9" font-family="Times,serif" font-size="14.00" fill="#000000">uniprot_rnk</text>
</g>
<!-- v33&#45;&gt;v34 -->
<g id="edge41" class="edge">
<title>v33&#45;&gt;v34</title>
<path fill="none" stroke="#000000" d="M785.5732,-302.9285C834.7978,-288.6056 905.9023,-267.9163 958.2523,-252.6841"/>
<polygon fill="#000000" stroke="#000000" points="959.5055,-255.9647 968.1294,-249.8101 957.5497,-249.2434 959.5055,-255.9647"/>
</g>
<!-- v18&#45;&gt;v29 -->
<g id="edge23" class="edge">
<title>v18&#45;&gt;v29</title>
<path fill="none" stroke="#000000" d="M970.3474,-355.4059C969.6959,-338.8866 971.7077,-315.1043 986.2768,-301.6 1018.6729,-271.5716 1271.6077,-250.8672 1435.9177,-240.4323"/>
<polygon fill="#000000" stroke="#000000" points="1436.3585,-243.9116 1446.1189,-239.7904 1435.9188,-236.9254 1436.3585,-243.9116"/>
<text text-anchor="middle" x="995.7768" y="-315.9" font-family="Times,serif" font-size="14.00" fill="#000000">rnk</text>
</g>
<!-- v19 -->
<g id="node25" class="node">
<title>v19</title>
<ellipse fill="#000000" stroke="#000000" cx="3928.2768" cy="-319.6" rx="3.6" ry="3.6"/>
<text text-anchor="middle" x="3955.1768" y="-327" font-family="Times,serif" font-size="14.00" fill="#000000">Channel.of</text>
</g>
<!-- v19&#45;&gt;v20 -->
<g id="edge24" class="edge">
<title>v19&#45;&gt;v20</title>
<path fill="none" stroke="#000000" d="M3926.4401,-316.3911C3924.2419,-312.6676 3920.3454,-306.4228 3916.2768,-301.6 3896.3521,-277.9821 3869.0377,-254.003 3854.1079,-241.4771"/>
<polygon fill="#000000" stroke="#000000" points="3856.2268,-238.6877 3846.2876,-235.0185 3851.7693,-244.085 3856.2268,-238.6877"/>
</g>
<!-- v22 -->
<g id="node27" class="node">
<title>v22</title>
<ellipse fill="#000000" stroke="#000000" cx="3843.2768" cy="-58.6" rx="1.8" ry="1.8"/>
</g>
<!-- v21&#45;&gt;v22 -->
<g id="edge26" class="edge">
<title>v21&#45;&gt;v22</title>
<path fill="none" stroke="#000000" d="M3843.2768,-127.5735C3843.2768,-110.502 3843.2768,-85.3487 3843.2768,-70.6035"/>
<polygon fill="#000000" stroke="#000000" points="3846.7769,-70.5185 3843.2768,-60.5185 3839.7769,-70.5185 3846.7769,-70.5185"/>
</g>
<!-- v26&#45;&gt;v46 -->
<g id="edge31" class="edge">
<title>v26&#45;&gt;v46</title>
<path fill="none" stroke="#000000" d="M2454.7582,-145.1805C2473.2106,-142.8997 2561.3345,-131.287 2630.2768,-109.6 2643.8781,-105.3215 2673.3729,-92.4558 2699.344,-80.7181"/>
<polygon fill="#000000" stroke="#000000" points="2701.0583,-83.7837 2708.7168,-76.4627 2698.1644,-77.4098 2701.0583,-83.7837"/>
<text text-anchor="middle" x="2705.2768" y="-98.4" font-family="Times,serif" font-size="14.00" fill="#000000">phosx_output</text>
</g>
<!-- v26&#45;&gt;v48 -->
<g id="edge59" class="edge">
<title>v26&#45;&gt;v48</title>
<path fill="none" stroke="#000000" d="M2449.8313,-142.3851C2447.7373,-138.1557 2443.4261,-130.8766 2437.2768,-127.6 2386.3595,-100.4694 2232.9759,-127.9482 2178.2768,-109.6 2166.7064,-105.7188 2165.8283,-100.7322 2155.2768,-94.6 2147.5507,-90.1098 2139.2044,-85.5647 2131.0588,-81.2856"/>
<polygon fill="#000000" stroke="#000000" points="2132.48,-78.0801 2121.9913,-76.5846 2129.2581,-84.2946 2132.48,-78.0801"/>
<text text-anchor="middle" x="2215.2768" y="-98.4" font-family="Times,serif" font-size="14.00" fill="#000000">phosx_output</text>
</g>
<!-- v47 -->
<g id="node48" class="node">
<title>v47</title>
<ellipse fill="#000000" stroke="#000000" cx="2747.2768" cy="-1.8" rx="1.8" ry="1.8"/>
</g>
<!-- v46&#45;&gt;v47 -->
<g id="edge58" class="edge">
<title>v46&#45;&gt;v47</title>
<path fill="none" stroke="#000000" d="M2747.2768,-40.3155C2747.2768,-31.6139 2747.2768,-21.4551 2747.2768,-13.756"/>
<polygon fill="#000000" stroke="#000000" points="2750.7769,-13.6036 2747.2768,-3.6036 2743.7769,-13.6037 2750.7769,-13.6036"/>
</g>
<!-- v28&#45;&gt;v46 -->
<g id="edge35" class="edge">
<title>v28&#45;&gt;v46</title>
<path fill="none" stroke="#000000" d="M2086.9937,-145.367C2129.0389,-142.7233 2514.0594,-118.3145 2536.2768,-109.6 2546.2928,-105.6714 2545.4832,-99.0539 2555.2768,-94.6 2570.7609,-87.5582 2587.5477,-81.8938 2604.5323,-77.3374"/>
<polygon fill="#000000" stroke="#000000" points="2605.7237,-80.6456 2614.5471,-74.7807 2603.9921,-73.8631 2605.7237,-80.6456"/>
<text text-anchor="middle" x="2590.7768" y="-98.4" font-family="Times,serif" font-size="14.00" fill="#000000">kinex_output</text>
</g>
<!-- v28&#45;&gt;v48 -->
<g id="edge61" class="edge">
<title>v28&#45;&gt;v48</title>
<path fill="none" stroke="#000000" d="M2083.3392,-141.8883C2083.4829,-133.4746 2083.8573,-112.3068 2084.2768,-94.6 2084.3343,-92.174 2084.3973,-89.6561 2084.4629,-87.1299"/>
<polygon fill="#000000" stroke="#000000" points="2087.9675,-87.0044 2084.7392,-76.9134 2080.9701,-86.8151 2087.9675,-87.0044"/>
<text text-anchor="middle" x="2119.7768" y="-98.4" font-family="Times,serif" font-size="14.00" fill="#000000">kinex_output</text>
</g>
<!-- v31&#45;&gt;v46 -->
<g id="edge38" class="edge">
<title>v31&#45;&gt;v46</title>
<path fill="none" stroke="#000000" d="M1997.7178,-144.5434C2008.3721,-141.3244 2041.8125,-131.6151 2070.2768,-127.6 2153.3279,-115.885 2368.7212,-138.9893 2447.2768,-109.6 2457.3536,-105.8301 2456.3583,-98.7684 2466.2768,-94.6 2485.4287,-86.5511 2522.5398,-79.8942 2563.6719,-74.587"/>
<polygon fill="#000000" stroke="#000000" points="2564.1485,-78.0547 2573.6348,-73.3366 2563.2767,-71.1092 2564.1485,-78.0547"/>
<text text-anchor="middle" x="2499.2768" y="-98.4" font-family="Times,serif" font-size="14.00" fill="#000000">gsea_output</text>
</g>
<!-- v31&#45;&gt;v48 -->
<g id="edge60" class="edge">
<title>v31&#45;&gt;v48</title>
<path fill="none" stroke="#000000" d="M1994.8021,-141.9194C1996.2757,-132.8187 2001.2285,-108.9586 2014.2768,-94.6 2018.6076,-89.8344 2023.7138,-85.611 2029.1699,-81.8903"/>
<polygon fill="#000000" stroke="#000000" points="2031.3037,-84.686 2037.9703,-76.4515 2027.6237,-78.7314 2031.3037,-84.686"/>
<text text-anchor="middle" x="2047.2768" y="-98.4" font-family="Times,serif" font-size="14.00" fill="#000000">gsea_output</text>
</g>
<!-- v32 -->
<g id="node35" class="node">
<title>v32</title>
<ellipse fill="none" stroke="#000000" cx="734.2768" cy="-427.6" rx="193.8658" ry="18"/>
<text text-anchor="middle" x="734.2768" y="-423.9" font-family="Times,serif" font-size="14.00" fill="#000000">KSTAR_HERNANDEZ2017:make_kstar_networks</text>
</g>
<!-- v32&#45;&gt;v33 -->
<g id="edge39" class="edge">
<title>v32&#45;&gt;v33</title>
<path fill="none" stroke="#000000" d="M728.042,-409.2793C725.373,-392.421 723.7058,-367.1651 723.8314,-347.747"/>
<polygon fill="#000000" stroke="#000000" points="727.3327,-347.7367 724.0906,-337.6502 720.335,-347.557 727.3327,-347.7367"/>
</g>
<!-- v32&#45;&gt;v33 -->
<g id="edge40" class="edge">
<title>v32&#45;&gt;v33</title>
<path fill="none" stroke="#000000" d="M738.476,-409.2793C739.2719,-392.421 738.1328,-367.1651 735.8497,-347.747"/>
<polygon fill="#000000" stroke="#000000" points="739.2916,-347.0835 734.4686,-337.6502 732.3562,-348.0323 739.2916,-347.0835"/>
</g>
<!-- v35 -->
<g id="node37" class="node">
<title>v35</title>
<ellipse fill="none" stroke="#000000" cx="1787.2768" cy="-145.6" rx="3.5" ry="3.5"/>
<text text-anchor="middle" x="1765.2768" y="-152.9" font-family="Times,serif" font-size="14.00" fill="#000000">collect</text>
</g>
<!-- v34&#45;&gt;v35 -->
<g id="edge43" class="edge">
<title>v34&#45;&gt;v35</title>
<path fill="none" stroke="#000000" d="M1149.806,-218.5736C1341.506,-196.629 1698.252,-155.791 1773.2281,-147.2082"/>
<polygon fill="#000000" stroke="#000000" points="1774.0521,-150.6368 1783.5891,-146.0221 1773.2559,-143.6823 1774.0521,-150.6368"/>
</g>
<!-- v35&#45;&gt;v46 -->
<g id="edge44" class="edge">
<title>v35&#45;&gt;v46</title>
<path fill="none" stroke="#000000" d="M1788.4814,-142.072C1790.1549,-137.786 1793.6312,-130.7398 1799.2768,-127.6 1853.3921,-97.504 2298.116,-130.8499 2356.2768,-109.6 2366.3823,-105.9078 2365.295,-98.6145 2375.2768,-94.6 2401.3289,-84.1225 2452.2882,-76.6146 2508.3345,-71.2661"/>
<polygon fill="#000000" stroke="#000000" points="2508.8461,-74.7337 2518.4805,-70.3258 2508.2002,-67.7636 2508.8461,-74.7337"/>
<text text-anchor="middle" x="2409.2768" y="-98.4" font-family="Times,serif" font-size="14.00" fill="#000000">kstar_output</text>
</g>
<!-- v35&#45;&gt;v48 -->
<g id="edge62" class="edge">
<title>v35&#45;&gt;v48</title>
<path fill="none" stroke="#000000" d="M1788.5972,-142.2568C1790.3902,-138.1615 1793.9898,-131.312 1799.2768,-127.6 1827.0108,-108.1282 1902.8287,-90.3046 1969.4347,-77.6517"/>
<polygon fill="#000000" stroke="#000000" points="1970.4276,-81.0267 1979.6118,-75.7445 1969.1381,-74.1464 1970.4276,-81.0267"/>
<text text-anchor="middle" x="1919.2768" y="-98.4" font-family="Times,serif" font-size="14.00" fill="#000000">kstar_output</text>
</g>
<!-- v36 -->
<g id="node38" class="node">
<title>v36</title>
<ellipse fill="none" stroke="#000000" cx="2749.2768" cy="-587.6" rx="206.8635" ry="18"/>
<text text-anchor="middle" x="2749.2768" y="-583.9" font-family="Times,serif" font-size="14.00" fill="#000000">PTMSEA_HERNANDEZ2017:ptmsea_hernandez2017</text>
</g>
<!-- v37 -->
<g id="node39" class="node">
<title>v37</title>
<ellipse fill="none" stroke="#000000" cx="2749.2768" cy="-500.6" rx="3.5" ry="3.5"/>
<text text-anchor="middle" x="2724.2768" y="-507.9" font-family="Times,serif" font-size="14.00" fill="#000000">flatMap</text>
</g>
<!-- v36&#45;&gt;v37 -->
<g id="edge45" class="edge">
<title>v36&#45;&gt;v37</title>
<path fill="none" stroke="#000000" d="M2749.2768,-569.5735C2749.2768,-553.0868 2749.2768,-529.0625 2749.2768,-514.1548"/>
<polygon fill="#000000" stroke="#000000" points="2752.7769,-514.142 2749.2768,-504.142 2745.7769,-514.1421 2752.7769,-514.142"/>
</g>
<!-- v38 -->
<g id="node40" class="node">
<title>v38</title>
<ellipse fill="none" stroke="#000000" cx="2749.2768" cy="-427.6" rx="3.5" ry="3.5"/>
<text text-anchor="middle" x="2733.2768" y="-434.9" font-family="Times,serif" font-size="14.00" fill="#000000">map</text>
</g>
<!-- v37&#45;&gt;v38 -->
<g id="edge46" class="edge">
<title>v37&#45;&gt;v38</title>
<path fill="none" stroke="#000000" d="M2749.2768,-497.0791C2749.2768,-487.1785 2749.2768,-458.6936 2749.2768,-441.4241"/>
<polygon fill="#000000" stroke="#000000" points="2752.7769,-441.2575 2749.2768,-431.2576 2745.7769,-441.2576 2752.7769,-441.2575"/>
</g>
<!-- v38&#45;&gt;v39 -->
<g id="edge47" class="edge">
<title>v38&#45;&gt;v39</title>
<path fill="none" stroke="#000000" d="M2749.2768,-424.0066C2749.2768,-412.3616 2749.2768,-374.8721 2749.2768,-348.1552"/>
<polygon fill="#000000" stroke="#000000" points="2752.7769,-347.8214 2749.2768,-337.8215 2745.7769,-347.8215 2752.7769,-347.8214"/>
<text text-anchor="middle" x="2803.7768" y="-369.9" font-family="Times,serif" font-size="14.00" fill="#000000">ptmsea_output_untr</text>
</g>
<!-- v40 -->
<g id="node42" class="node">
<title>v40</title>
<ellipse fill="none" stroke="#000000" cx="2749.2768" cy="-145.6" rx="3.5" ry="3.5"/>
<text text-anchor="middle" x="2727.2768" y="-152.9" font-family="Times,serif" font-size="14.00" fill="#000000">collect</text>
</g>
<!-- v39&#45;&gt;v40 -->
<g id="edge49" class="edge">
<title>v39&#45;&gt;v40</title>
<path fill="none" stroke="#000000" d="M2749.2768,-301.3078C2749.2768,-266.3382 2749.2768,-190.7072 2749.2768,-159.4996"/>
<polygon fill="#000000" stroke="#000000" points="2752.7769,-159.3527 2749.2768,-149.3528 2745.7769,-159.3528 2752.7769,-159.3527"/>
</g>
<!-- v40&#45;&gt;v46 -->
<g id="edge50" class="edge">
<title>v40&#45;&gt;v46</title>
<path fill="none" stroke="#000000" d="M2749.1909,-141.8617C2748.9744,-132.445 2748.3907,-107.053 2747.9243,-86.7647"/>
<polygon fill="#000000" stroke="#000000" points="2751.4226,-86.649 2747.6936,-76.7322 2744.4245,-86.81 2751.4226,-86.649"/>
<text text-anchor="middle" x="2789.7768" y="-98.4" font-family="Times,serif" font-size="14.00" fill="#000000">ptmsea_output</text>
</g>
<!-- v40&#45;&gt;v48 -->
<g id="edge63" class="edge">
<title>v40&#45;&gt;v48</title>
<path fill="none" stroke="#000000" d="M2745.659,-145.3772C2703.1016,-142.7504 2298.9689,-117.6319 2275.2768,-109.6 2263.7189,-105.6817 2263.5406,-99.2975 2252.2768,-94.6 2236.7164,-88.1107 2219.8325,-82.7282 2202.9799,-78.2811"/>
<polygon fill="#000000" stroke="#000000" points="2203.6247,-74.8339 2193.0712,-75.7695 2201.9047,-81.6193 2203.6247,-74.8339"/>
<text text-anchor="middle" x="2315.7768" y="-98.4" font-family="Times,serif" font-size="14.00" fill="#000000">ptmsea_output</text>
</g>
<!-- v41 -->
<g id="node43" class="node">
<title>v41</title>
<ellipse fill="none" stroke="#000000" cx="3182.2768" cy="-587.6" rx="202.2642" ry="18"/>
<text text-anchor="middle" x="3182.2768" y="-583.9" font-family="Times,serif" font-size="14.00" fill="#000000">ZSCORE_HERNANDEZ2017:zscore_hernandez2017</text>
</g>
<!-- v42 -->
<g id="node44" class="node">
<title>v42</title>
<ellipse fill="none" stroke="#000000" cx="3182.2768" cy="-500.6" rx="3.5" ry="3.5"/>
<text text-anchor="middle" x="3157.2768" y="-507.9" font-family="Times,serif" font-size="14.00" fill="#000000">flatMap</text>
</g>
<!-- v41&#45;&gt;v42 -->
<g id="edge51" class="edge">
<title>v41&#45;&gt;v42</title>
<path fill="none" stroke="#000000" d="M3182.2768,-569.5735C3182.2768,-553.0868 3182.2768,-529.0625 3182.2768,-514.1548"/>
<polygon fill="#000000" stroke="#000000" points="3185.7769,-514.142 3182.2768,-504.142 3178.7769,-514.1421 3185.7769,-514.142"/>
</g>
<!-- v43 -->
<g id="node45" class="node">
<title>v43</title>
<ellipse fill="none" stroke="#000000" cx="3182.2768" cy="-427.6" rx="3.5" ry="3.5"/>
<text text-anchor="middle" x="3166.2768" y="-434.9" font-family="Times,serif" font-size="14.00" fill="#000000">map</text>
</g>
<!-- v42&#45;&gt;v43 -->
<g id="edge52" class="edge">
<title>v42&#45;&gt;v43</title>
<path fill="none" stroke="#000000" d="M3182.2768,-497.0791C3182.2768,-487.1785 3182.2768,-458.6936 3182.2768,-441.4241"/>
<polygon fill="#000000" stroke="#000000" points="3185.7769,-441.2575 3182.2768,-431.2576 3178.7769,-441.2576 3185.7769,-441.2575"/>
</g>
<!-- v43&#45;&gt;v44 -->
<g id="edge53" class="edge">
<title>v43&#45;&gt;v44</title>
<path fill="none" stroke="#000000" d="M3182.2768,-424.0066C3182.2768,-412.3616 3182.2768,-374.8721 3182.2768,-348.1552"/>
<polygon fill="#000000" stroke="#000000" points="3185.7769,-347.8214 3182.2768,-337.8215 3178.7769,-347.8215 3185.7769,-347.8214"/>
<text text-anchor="middle" x="3234.7768" y="-369.9" font-family="Times,serif" font-size="14.00" fill="#000000">zscore_output_untr</text>
</g>
<!-- v45 -->
<g id="node47" class="node">
<title>v45</title>
<ellipse fill="none" stroke="#000000" cx="2906.2768" cy="-145.6" rx="3.5" ry="3.5"/>
<text text-anchor="middle" x="2884.2768" y="-152.9" font-family="Times,serif" font-size="14.00" fill="#000000">collect</text>
</g>
<!-- v44&#45;&gt;v45 -->
<g id="edge55" class="edge">
<title>v44&#45;&gt;v45</title>
<path fill="none" stroke="#000000" d="M3041.5583,-306.4632C2988.7234,-300.2197 2939.1782,-292.2357 2930.2768,-283.6 2896.07,-250.414 2900.1721,-187.1599 2903.9754,-159.3256"/>
<polygon fill="#000000" stroke="#000000" points="2907.4615,-159.688 2905.5632,-149.2646 2900.5471,-158.5968 2907.4615,-159.688"/>
</g>
<!-- v45&#45;&gt;v46 -->
<g id="edge56" class="edge">
<title>v45&#45;&gt;v46</title>
<path fill="none" stroke="#000000" d="M2909.3203,-143.2676C2918.8863,-135.6648 2946.9206,-111.1377 2933.2768,-94.6 2927.4267,-87.509 2915.2632,-81.7982 2899.8223,-77.2031"/>
<polygon fill="#000000" stroke="#000000" points="2900.3797,-73.7277 2889.8119,-74.4838 2898.5446,-80.4829 2900.3797,-73.7277"/>
<text text-anchor="middle" x="2975.2768" y="-98.4" font-family="Times,serif" font-size="14.00" fill="#000000">zscore_output</text>
</g>
<!-- v45&#45;&gt;v48 -->
<g id="edge64" class="edge">
<title>v45&#45;&gt;v48</title>
<path fill="none" stroke="#000000" d="M2903.1522,-143.4412C2889.2216,-133.821 2833.3684,-95.2964 2831.2768,-94.6 2748.1184,-66.9115 2524.8212,-80.8381 2437.2768,-76.6 2405.7048,-75.0716 2372.5421,-73.4271 2339.7161,-71.7756"/>
<polygon fill="#000000" stroke="#000000" points="2339.7052,-68.2707 2329.5417,-71.263 2339.3529,-75.2618 2339.7052,-68.2707"/>
<text text-anchor="middle" x="2891.2768" y="-98.4" font-family="Times,serif" font-size="14.00" fill="#000000">zscore_output</text>
</g>
<!-- v49 -->
<g id="node50" class="node">
<title>v49</title>
<ellipse fill="#000000" stroke="#000000" cx="2085.2768" cy="-1.8" rx="1.8" ry="1.8"/>
</g>
<!-- v48&#45;&gt;v49 -->
<g id="edge66" class="edge">
<title>v48&#45;&gt;v49</title>
<path fill="none" stroke="#000000" d="M2085.2768,-40.3155C2085.2768,-31.6139 2085.2768,-21.4551 2085.2768,-13.756"/>
<polygon fill="#000000" stroke="#000000" points="2088.7769,-13.6036 2085.2768,-3.6036 2081.7769,-13.6037 2088.7769,-13.6036"/>
</g>
<!-- v50 -->
<g id="node51" class="node">
<title>v50</title>
<ellipse fill="#000000" stroke="#000000" cx="3939.2768" cy="-747.6" rx="3.6" ry="3.6"/>
<text text-anchor="middle" x="3885.6768" y="-755" font-family="Times,serif" font-size="14.00" fill="#000000">Channel.fromPath</text>
</g>
<!-- v52 -->
<g id="node52" class="node">
<title>v52</title>
<ellipse fill="none" stroke="#000000" cx="3977.2768" cy="-660.6" rx="3.5" ry="3.5"/>
<text text-anchor="middle" x="3949.7768" y="-667.9" font-family="Times,serif" font-size="14.00" fill="#000000">combine</text>
</g>
<!-- v50&#45;&gt;v52 -->
<g id="edge67" class="edge">
<title>v50&#45;&gt;v52</title>
<path fill="none" stroke="#000000" d="M3938.4411,-743.9402C3936.6504,-735.2769 3933.1568,-713.0109 3940.2768,-696.6 3945.5072,-684.5446 3956.8839,-674.489 3965.6504,-668.0972"/>
<polygon fill="#000000" stroke="#000000" points="3967.8451,-670.8404 3974.2179,-662.3765 3963.9579,-665.0189 3967.8451,-670.8404"/>
<text text-anchor="middle" x="3967.2768" y="-700.4" font-family="Times,serif" font-size="14.00" fill="#000000">config_ch</text>
</g>
<!-- v53 -->
<g id="node54" class="node">
<title>v53</title>
<ellipse fill="none" stroke="#000000" cx="3977.2768" cy="-587.6" rx="112.3801" ry="18"/>
<text text-anchor="middle" x="3977.2768" y="-583.9" font-family="Times,serif" font-size="14.00" fill="#000000">PUBLISH_CONFIG:publish</text>
</g>
<!-- v52&#45;&gt;v53 -->
<g id="edge69" class="edge">
<title>v52&#45;&gt;v53</title>
<path fill="none" stroke="#000000" d="M3977.2768,-657.0791C3977.2768,-649.6741 3977.2768,-631.873 3977.2768,-616.1439"/>
<polygon fill="#000000" stroke="#000000" points="3980.7769,-615.7387 3977.2768,-605.7387 3973.7769,-615.7388 3980.7769,-615.7387"/>
</g>
<!-- v51 -->
<g id="node53" class="node">
<title>v51</title>
<ellipse fill="#000000" stroke="#000000" cx="4016.2768" cy="-747.6" rx="3.6" ry="3.6"/>
<text text-anchor="middle" x="3982.1768" y="-755" font-family="Times,serif" font-size="14.00" fill="#000000">Channel.of</text>
</g>
<!-- v51&#45;&gt;v52 -->
<g id="edge68" class="edge">
<title>v51&#45;&gt;v52</title>
<path fill="none" stroke="#000000" d="M4014.7187,-743.8695C4011.1775,-735.4175 4002.215,-714.1762 3994.2768,-696.6 3990.7775,-688.852 3986.7164,-680.2388 3983.4411,-673.3803"/>
<polygon fill="#000000" stroke="#000000" points="3986.3975,-671.4521 3978.9089,-663.9573 3980.0892,-674.4862 3986.3975,-671.4521"/>
<text text-anchor="middle" x="4018.2768" y="-700.4" font-family="Times,serif" font-size="14.00" fill="#000000">val_ch</text>
</g>
<!-- v54 -->
<g id="node55" class="node">
<title>v54</title>
<ellipse fill="#000000" stroke="#000000" cx="3977.2768" cy="-500.6" rx="1.8" ry="1.8"/>
</g>
<!-- v53&#45;&gt;v54 -->
<g id="edge70" class="edge">
<title>v53&#45;&gt;v54</title>
<path fill="none" stroke="#000000" d="M3977.2768,-569.5735C3977.2768,-552.502 3977.2768,-527.3487 3977.2768,-512.6035"/>
<polygon fill="#000000" stroke="#000000" points="3980.7769,-512.5185 3977.2768,-502.5185 3973.7769,-512.5185 3980.7769,-512.5185"/>
</g>
</g>
</svg>
